<?xml version="1.0" standalone="no"?>
<!DOCTYPE svg PUBLIC "-//W3C//DTD SVG 1.1//EN" "http://www.w3.org/Graphics/SVG/1.1/DTD/svg11.dtd" >
<svg xmlns="http://www.w3.org/2000/svg" xmlns:xlink="http://www.w3.org/1999/xlink" version="1.1">
<metadata>
Created by FontForge 20170731 at Thu Jun 24 15:41:53 1999
 By ,,,
Copyright 1990-1999 Bitstream Inc.  All rights reserved.
</metadata>
<defs>
<font id="BaskervilleBT-Roman" horiz-adv-x="1024" >
  <font-face 
    font-family="Baskerville BT"
    font-weight="400"
    font-stretch="normal"
    units-per-em="2048"
    panose-1="2 2 6 2 7 5 6 2 3 3"
    ascent="1556"
    descent="-492"
    x-height="901"
    cap-height="1372"
    bbox="-342 -578 2355 1960"
    underline-thickness="115"
    underline-position="-456"
    unicode-range="U+0020-F002"
  />
<missing-glyph horiz-adv-x="1229" 
d="M102 -362v1806h1024v-1806h-1024zM217 -248h795v1577h-795v-1577z" />
    <glyph glyph-name=".notdef" horiz-adv-x="1229" 
d="M102 -362v1806h1024v-1806h-1024zM217 -248h795v1577h-795v-1577z" />
    <glyph glyph-name=".null" horiz-adv-x="0" 
 />
    <glyph glyph-name="nonmarkingreturn" horiz-adv-x="561" 
 />
    <glyph glyph-name="space" unicode=" " horiz-adv-x="561" 
 />
    <glyph glyph-name="exclam" unicode="!" horiz-adv-x="616" 
d="M285 340v158q0 234 -43 484t-43 269q0 71 29.5 111.5t80.5 40.5q52 0 80.5 -39t28.5 -109q0 -40 -43 -292.5t-43 -466.5v-156h-47zM193 94q0 49 34 83t82 34t81.5 -34t33.5 -83q0 -48 -34 -81t-83 -33q-48 0 -81 33t-33 81z" />
    <glyph glyph-name="quotedbl" unicode="&#x22;" horiz-adv-x="678" 
d="M518 864h-31l-65 457q0 2 -1 6q-3 22 -3 33q0 49 22.5 75.5t63.5 26.5q40 0 62 -26t22 -74q0 -14 -0.5 -23t-1.5 -18zM190 864h-32l-64 457q-2 17 -3 26t-1 15q0 48 22 74t62 26q41 0 63.5 -26t22.5 -74q0 -9 -3 -34q-1 -5 -1 -7z" />
    <glyph glyph-name="numbersign" unicode="#" horiz-adv-x="1575" 
d="M700 868l-100 -286h289l102 286h-291zM778 1456h133l-168 -471h287l168 471h131l-166 -471h307l-40 -117h-310l-100 -286h332l-43 -115h-330l-166 -469h-133l166 469h-287l-166 -469h-131l166 469h-324l43 115h322l100 286h-348l43 117h348z" />
    <glyph glyph-name="dollar" unicode="$" horiz-adv-x="1124" 
d="M686 66q95 25 140.5 88.5t45.5 167.5q0 85 -45 145.5t-141 103.5v-505zM485 44q13 -2 27.5 -2.5t40.5 -0.5q33 0 49 1t29 3v557q-33 17 -69 32.5t-77 31.5v-622zM486 868q9 -4 26 -12q79 -35 119 -55l-1 522q-15 3 -36 4.5t-49 1.5q-19 0 -34 -2t-26 -6zM428 893v412
q-82 -27 -126 -81t-44 -128q0 -65 41.5 -114.5t128.5 -88.5zM428 -291v289q-153 13 -247.5 70.5t-94.5 134.5q0 40 23.5 65t62.5 25q42 0 67 -25t25 -67q0 -17 -3 -37.5t-3 -24.5q0 -37 45.5 -62.5t124.5 -31.5v645q-163 73 -229 149.5t-66 190.5q0 116 76.5 200.5
t218.5 125.5v164h57l1 -154q30 3 45.5 3.5t29.5 0.5q16 0 34 -1t35 -3l1 154h55v-158q130 -18 206.5 -76.5t76.5 -138.5q0 -36 -18.5 -55t-53.5 -19q-37 0 -57.5 21.5t-20.5 60.5q0 7 3 25.5t3 31.5q0 49 -29.5 71t-109.5 32v-539q170 -74 240.5 -162.5t70.5 -222.5
q0 -149 -78 -244.5t-233 -134.5v-303h-55v291q-30 -2 -49.5 -3t-36.5 -1q-11 0 -31 1t-29 1v-289h-57z" />
    <glyph glyph-name="percent" unicode="%" horiz-adv-x="1634" 
d="M1063 229q0 -104 42 -156.5t126 -52.5q122 0 214.5 138.5t92.5 333.5q0 105 -45 168t-119 63q-61 0 -114.5 -41t-100.5 -123q-44 -79 -70 -169.5t-26 -160.5zM1221 -35q-139 0 -224.5 88.5t-85.5 233.5q0 197 131 340t308 143q108 0 167.5 -75t59.5 -214
q0 -207 -109.5 -361.5t-246.5 -154.5zM201 836q0 -78 46 -128.5t118 -50.5q120 0 212.5 138t92.5 325q0 104 -44.5 170t-113.5 66q-51 0 -100 -30t-84 -83q-62 -94 -94.5 -198.5t-32.5 -208.5zM393 -102h-88l813 1386q-53 -35 -114.5 -52.5t-133.5 -17.5q-46 0 -90 10
t-88 29q10 -36 15.5 -71.5t5.5 -69.5q0 -66 -17.5 -137t-48.5 -131q-59 -118 -137 -176t-178 -58q-124 0 -202.5 87.5t-78.5 226.5q0 96 37.5 187t106.5 161q62 63 139 98t155 35q49 0 87.5 -14.5t87.5 -53.5q49 -40 96.5 -56.5t107.5 -16.5q116 0 216 56.5t153 152.5h76z
" />
    <glyph glyph-name="ampersand" unicode="&#x26;" horiz-adv-x="1569" 
d="M606 766q93 73 137.5 154.5t44.5 179.5q0 123 -45.5 188.5t-132.5 65.5q-75 0 -123.5 -59t-48.5 -152q0 -73 42 -167t126 -210zM807 209q-98 102 -178.5 204.5t-141.5 200.5q-90 -54 -139 -131t-49 -164q0 -110 65 -183t164 -73q77 0 144 35.5t135 110.5zM842 172
q-87 -100 -194 -152.5t-226 -52.5q-130 0 -212.5 72.5t-82.5 183.5q0 119 85.5 228t252.5 204q-74 111 -110 207t-36 180q0 153 93.5 257t230.5 104q118 0 197.5 -77t79.5 -191q0 -103 -70 -203t-213 -203q94 -128 169.5 -221.5t123.5 -140.5q63 85 128 203.5t83 142.5
q47 59 93.5 87.5t96.5 28.5q66 0 108 -38.5t42 -100.5q0 -48 -31.5 -78t-81.5 -30q-47 0 -69.5 26t-22.5 80q0 5 2 17t2 18q0 7 -6.5 12.5t-16.5 5.5q-42 0 -129 -157.5t-161 -257.5q110 -119 195.5 -180.5t142.5 -61.5q63 0 115.5 40t56.5 40q6 0 11 -6t5 -15
q0 -53 -91.5 -111.5t-201.5 -58.5q-85 0 -164.5 43t-193.5 156z" />
    <glyph glyph-name="quotesingle" unicode="'" horiz-adv-x="348" 
d="M190 864h-32l-66 457q-1 8 -1.5 16t-0.5 23q0 50 21.5 76t62.5 26t63.5 -26t22.5 -74q0 -9 -3 -34q-1 -5 -1 -7z" />
    <glyph glyph-name="parenleft" unicode="(" horiz-adv-x="676" 
d="M559 -428q-211 213 -315.5 438.5t-104.5 470.5q0 243 101 464.5t321 459.5l41 -37q-155 -170 -230 -384t-75 -486q0 -285 74 -500.5t231 -388.5z" />
    <glyph glyph-name="parenright" unicode=")" horiz-adv-x="676" 
d="M137 1405q212 -214 317 -440t105 -469t-101 -464.5t-321 -459.5l-41 39q155 169 229 382t74 486q0 286 -73.5 501.5t-229.5 387.5z" />
    <glyph glyph-name="asterisk" unicode="*" 
d="M500 1014v16q0 73 -35 162.5t-35 114.5q0 43 22.5 69.5t59.5 26.5q35 0 58.5 -25t23.5 -63q0 -28 -35 -120.5t-35 -168.5v-12q78 39 150 137q15 20 22 28q25 30 51 44t56 14q32 0 54 -23t22 -57q0 -33 -22 -56.5t-62 -35.5q-14 -4 -52 -9q-123 -15 -206 -65
q69 -42 162 -56.5t100 -16.5q35 -12 57.5 -38t22.5 -55q0 -33 -24 -56.5t-58 -23.5q-26 0 -52 16t-52 47q-6 7 -17 23q-65 91 -152 140v-17q0 -72 35 -161.5t35 -114.5q0 -43 -22.5 -69.5t-59.5 -26.5q-35 0 -58.5 24.5t-23.5 63.5q0 28 35 120.5t35 167.5v13
q-78 -40 -150 -137q-15 -20 -23 -30q-24 -28 -50 -42t-56 -14q-32 0 -54 23t-22 56t22 56.5t62 36.5q14 4 52 8q123 13 206 63q-72 44 -165 60t-95 16q-39 12 -60.5 36.5t-21.5 55.5q0 34 23.5 57t58.5 23q26 0 52 -16t53 -48q5 -6 16 -21q65 -92 152 -140z" />
    <glyph glyph-name="plus" unicode="+" horiz-adv-x="1706" 
d="M795 1221h118v-551h539v-117h-539v-553h-118v553h-541v117h541v551z" />
    <glyph glyph-name="comma" unicode="," horiz-adv-x="561" 
d="M334 16q-18 -9 -33.5 -13.5t-32.5 -4.5q-44 0 -72 30t-28 76q0 48 32.5 80.5t80.5 32.5q70 0 113.5 -46.5t43.5 -121.5q0 -107 -73.5 -201t-206.5 -155l-25 33q97 61 153 129.5t56 124.5q0 10 -2 19t-6 17z" />
    <glyph glyph-name="hyphen" unicode="-" horiz-adv-x="680" 
d="M94 387v139h496v-139h-496z" />
    <glyph glyph-name="period" unicode="." horiz-adv-x="561" 
d="M166 100q0 48 33.5 81.5t81.5 33.5q47 0 80.5 -33.5t33.5 -81.5t-33 -81t-81 -33q-49 0 -82 33t-33 81z" />
    <glyph glyph-name="slash" unicode="/" horiz-adv-x="557" 
d="M31 -190h-80l518 1593h80z" />
    <glyph glyph-name="zero" unicode="0" horiz-adv-x="1124" 
d="M303 688q0 -345 64.5 -510.5t197.5 -165.5q142 0 205.5 156.5t63.5 511.5q0 353 -64.5 516.5t-202.5 163.5q-134 0 -199 -164.5t-65 -507.5zM104 678q0 316 133.5 521.5t331.5 205.5q100 0 182 -54.5t154 -168.5q62 -97 94.5 -225.5t32.5 -274.5q0 -152 -34 -281
t-101 -233q-65 -102 -146.5 -152.5t-181.5 -50.5q-108 0 -187.5 53t-154.5 177q-61 103 -92 224.5t-31 258.5z" />
    <glyph glyph-name="one" unicode="1" horiz-adv-x="1124" 
d="M487 193v956q0 60 -15 89.5t-49 35.5q-21 3 -65 7q-10 1 -14 1q-44 2 -57 7t-13 16q1 19 71 26q42 4 71 8q126 19 230 71q18 9 22 9t7 -9.5t3 -25.5q0 -3 -1 -23q-7 -112 -7 -226v-936q0 -79 20 -111.5t74 -44.5q17 -3 49 -7q7 -1 10 -1h2q54 -7 54 -27q0 -10 -10.5 -14
t-34.5 -4q-5 0 -25 1q-118 7 -242 7q-106 0 -218 -7q-22 -1 -27 -1q-24 0 -33.5 4t-9.5 14q0 20 53 27h2q3 0 10 1q32 4 50 7q51 10 72 43t21 107z" />
    <glyph glyph-name="two" unicode="2" horiz-adv-x="1124" 
d="M289 174q79 -3 156 -4.5t173 -1.5q87 0 185 4t110 4q26 0 35.5 -6t9.5 -20q0 -8 -0.5 -12.5t-0.5 -7.5l-48 -233q-1 -9 -5 -14.5t-11 -5.5q-11 0 -17 6t-6 17q0 7 2 20t2 21q0 39 -13.5 49t-82.5 10h-606q-8 0 -23 -3t-22 -3q-11 0 -16 2t-5 6q0 28 70 123t182 217
q32 35 137.5 137.5t157.5 171.5q68 91 99.5 185.5t31.5 203.5q0 149 -76 233.5t-208 84.5q-103 0 -173.5 -69t-70.5 -169q0 -94 50.5 -153.5t129.5 -59.5q30 0 58 9.5l28 9.5q7 0 11 -3t4 -8q0 -30 -61 -65t-136 -35q-90 0 -154.5 71t-64.5 173q0 151 116.5 248.5
t301.5 97.5q204 0 328 -108.5t124 -284.5q0 -74 -20 -138.5t-60 -117.5q-59 -79 -208 -195q-26 -20 -39 -31l-43 -34q-289 -229 -332 -322z" />
    <glyph glyph-name="three" unicode="3" horiz-adv-x="1124" 
d="M584 782h22q174 0 276.5 -88.5t102.5 -238.5q0 -95 -34.5 -173t-108.5 -151q-84 -82 -183 -123t-215 -41q-139 0 -233 59t-94 142q0 44 25.5 68t70.5 24q34 0 54.5 -18.5t45.5 -94.5q25 -72 63.5 -101.5t104.5 -29.5q147 0 223 100.5t76 293.5q0 166 -52 247.5t-159 81.5
q-42 0 -76.5 -21.5t-79.5 -79.5q-2 -2 -7 -9q-37 -49 -58 -49q-18 0 -31.5 11.5t-13.5 24.5q0 38 81 84q32 18 50 29q154 95 210 183t56 221q0 108 -49 166.5t-141 58.5q-96 0 -156.5 -58t-60.5 -149q0 -55 37.5 -97t87.5 -42q25 0 52.5 9t31.5 9q8 0 11 -2.5t3 -7.5
q0 -23 -53.5 -55.5t-110.5 -32.5q-80 0 -132 50t-52 128q0 112 116 203.5t273 91.5q149 0 241.5 -71.5t92.5 -182.5q0 -104 -73.5 -193t-233.5 -176z" />
    <glyph glyph-name="four" unicode="4" horiz-adv-x="1124" 
d="M631 522v633l-504 -633h504zM623 449h-543q-15 0 -26 10.5t-11 25.5q0 12 9.5 30t27.5 40l657 823q18 22 28.5 30.5t16.5 8.5q13 0 19 -13t6 -42v-840h201q25 0 41 -10.5t16 -26.5t-15 -26t-38 -10h-209v-265q0 -67 17 -95t59 -36q16 -3 34 -4.5t48 -1.5l15 -3
q48 -10 48 -24q0 -12 -12.5 -18t-38.5 -6q-8 0 -92.5 4t-161.5 4q-92 0 -187 -5t-98 -5q-20 0 -29.5 6t-9.5 18q0 20 75 28q5 1 7 1q10 0 40 3q5 1 7 1q52 6 75.5 36t23.5 89v273z" />
    <glyph glyph-name="five" unicode="5" horiz-adv-x="1124" 
d="M289 733q56 68 136.5 106t170.5 38q176 0 280.5 -103.5t104.5 -277.5q0 -229 -152.5 -378t-386.5 -149q-146 0 -241 59t-95 144q0 39 25.5 64.5t63.5 25.5q61 0 93 -96l9 -27q23 -65 63 -92t113 -27q152 0 231.5 116.5t79.5 338.5q0 176 -59.5 259t-185.5 83
q-87 0 -159.5 -56t-72.5 -114q0 -13 2 -34t2 -27q0 -25 -10.5 -38t-30.5 -13q-19 0 -31 16t-12 43q0 11 5 44t6 55l22 673q2 26 7 34.5t18 8.5t36.5 -19.5t32.5 -25.5q47 -32 102 -45.5t138 -13.5q60 0 106 15t88 48q18 15 37 38.5t25 23.5q8 -1 13 -5.5t5 -11.5
q0 -27 -20 -73.5t-51 -84.5q-48 -58 -124.5 -87t-180.5 -29q-48 0 -95.5 6t-93.5 18z" />
    <glyph glyph-name="six" unicode="6" horiz-adv-x="1124" 
d="M303 639q-2 -27 -3 -56.5t-1 -84.5q0 -246 68 -366t208 -120q128 0 198.5 113t70.5 317q0 200 -59 292.5t-185 92.5q-78 0 -151.5 -46.5t-145.5 -141.5zM301 713q82 91 162.5 133.5t171.5 42.5q183 0 295 -114t112 -300q0 -222 -136 -366t-347 -144t-335 173.5
t-124 473.5q0 207 60 382t168 284q62 63 141 94t180 31q132 0 214.5 -50t82.5 -128q0 -36 -24.5 -58t-63.5 -22q-31 0 -55 18t-47 60l-1 1q-69 128 -165 128q-139 0 -214 -162t-75 -465v-12z" />
    <glyph glyph-name="seven" unicode="7" horiz-adv-x="1124" 
d="M899 1200h-537q-65 0 -97.5 -25t-59.5 -102q-9 -25 -19 -64q-14 -55 -34 -55q-12 0 -18.5 8.5t-6.5 22.5q0 6 0.5 9.5t1.5 7.5l102 495q3 15 10 24t17 9q11 0 17 -8.5t6 -22.5q0 -8 -3.5 -30t-3.5 -35q0 -38 15 -52t69 -14h615q16 0 25.5 -4t9.5 -10q0 -12 -41 -101
q-196 -433 -310 -878q-14 -57 -35 -154q-56 -256 -153 -256q-43 0 -66.5 26t-23.5 72q0 78 108 316.5t412 820.5z" />
    <glyph glyph-name="eight" unicode="8" horiz-adv-x="1124" 
d="M694 791q63 53 94 123t31 157q0 135 -71.5 214t-192.5 79q-115 0 -190.5 -68t-75.5 -172q0 -96 94.5 -174t310.5 -159zM457 682q-97 -63 -142 -146.5t-45 -199.5q0 -155 74 -237.5t213 -82.5q147 0 233.5 78.5t86.5 212.5q0 185 -414 372zM412 702q-128 72 -189 157
t-61 190q0 145 118 249.5t291 104.5q162 0 271.5 -91.5t109.5 -224.5q0 -91 -52 -169.5t-161 -151.5q142 -82 207.5 -175.5t65.5 -213.5q0 -179 -129.5 -294.5t-331.5 -115.5q-194 0 -313 94.5t-119 247.5q0 114 69 207.5t224 185.5z" />
    <glyph glyph-name="nine" unicode="9" horiz-adv-x="1124" 
d="M840 731q2 27 3 57t1 84q0 247 -68 366.5t-209 119.5q-127 0 -197.5 -113t-70.5 -317q0 -200 59 -292.5t185 -92.5q78 0 151.5 46.5t145.5 141.5zM842 657q-82 -91 -163 -133.5t-173 -42.5q-183 0 -294.5 114t-111.5 300q0 223 136.5 366.5t347.5 143.5t334.5 -173.5
t123.5 -473.5q0 -205 -60.5 -380.5t-168.5 -285.5q-62 -64 -140 -94.5t-179 -30.5q-132 0 -214.5 50t-82.5 128q0 36 24 58t64 22q31 0 55 -18t47 -60h1q69 -129 165 -129q139 0 214 162.5t75 464.5v12z" />
    <glyph glyph-name="colon" unicode=":" horiz-adv-x="616" 
d="M195 784q0 48 33.5 81.5t80.5 33.5t80 -33.5t33 -81.5q0 -47 -33 -79.5t-82 -32.5q-48 0 -80 32t-32 80zM195 100q0 48 33.5 81.5t80.5 33.5t80 -33.5t33 -81.5t-33 -81t-82 -33q-48 0 -80 32.5t-32 81.5z" />
    <glyph glyph-name="semicolon" unicode=";" horiz-adv-x="616" 
d="M186 788q0 47 33 80t80 33q46 0 78.5 -33t32.5 -80q0 -45 -33.5 -78.5t-79.5 -33.5t-78.5 32.5t-32.5 79.5zM352 16q-18 -10 -32.5 -14t-30.5 -4q-45 0 -74 30t-29 76q0 48 32.5 80.5t80.5 32.5q71 0 114.5 -46.5t43.5 -121.5q0 -107 -74 -201t-207 -155l-24 33
q98 61 154 130t56 124q0 8 -2 16.5t-8 19.5z" />
    <glyph glyph-name="less" unicode="&#x3c;" horiz-adv-x="1706" 
d="M1442 1145v-127l-1000 -408l1000 -405v-129l-1178 483v103z" />
    <glyph glyph-name="equal" unicode="=" horiz-adv-x="1706" 
d="M254 477h1198v-117h-1198v117zM254 860h1198v-117h-1198v117z" />
    <glyph glyph-name="greater" unicode="&#x3e;" horiz-adv-x="1706" 
d="M264 1145l1178 -483v-103l-1178 -483v129l1000 405l-1000 408v127z" />
    <glyph glyph-name="question" unicode="?" horiz-adv-x="901" 
d="M223 92q0 49 34.5 83t82.5 34t81.5 -34t33.5 -83t-33 -83t-82 -34q-48 0 -82.5 34.5t-34.5 82.5zM305 317v408h129q136 0 206.5 59.5t70.5 173.5q0 130 -71.5 211.5t-184.5 81.5q-36 0 -96.5 -9t-84.5 -9q-53 0 -80.5 21t-27.5 63q0 39 35.5 63.5t93.5 24.5q73 0 154 -31
t139 -82q86 -75 135 -186t49 -229q0 -158 -100.5 -241t-290.5 -83h-27v-236h-49z" />
    <glyph glyph-name="at" unicode="@" horiz-adv-x="2019" 
d="M1190 336q-62 -106 -139 -158.5t-170 -52.5q-125 0 -201 92t-76 244q0 108 49 216t138 193q65 64 144 100t155 36q87 0 143 -49.5t78 -145.5l53 180h143l-170 -610q0 -2 -1 -5q-17 -59 -17 -104q0 -47 25.5 -74.5t68.5 -27.5q34 0 79 17.5t85 48.5q122 90 187 231t65 315
q0 140 -50 252t-153 203q-90 79 -216 122.5t-267 43.5q-187 0 -341.5 -58.5t-275.5 -175.5q-130 -126 -197 -293.5t-67 -369.5q0 -175 57 -304.5t181 -234.5q114 -97 261 -146.5t320 -49.5q163 0 317.5 52t295.5 154l30 -36q-148 -110 -313 -166t-342 -56q-187 0 -342 46.5
t-274 138.5q-151 113 -229.5 274.5t-78.5 358.5q0 204 86 381t250 313q131 110 291 165.5t344 55.5q347 0 553.5 -187t206.5 -499q0 -157 -58 -297t-163 -236q-57 -52 -123.5 -80t-134.5 -28q-97 0 -149 52.5t-58 158.5zM1098 965q-54 0 -99 -31t-92 -100
q-72 -108 -114.5 -234t-42.5 -225q0 -93 40.5 -147t108.5 -54q66 0 126 44.5t116 133.5q57 94 91 202.5t34 197.5q0 93 -47.5 153t-120.5 60z" />
    <glyph glyph-name="A" unicode="A" horiz-adv-x="1356" 
d="M354 500l-90 -226q-13 -32 -19.5 -62.5t-6.5 -53.5q0 -39 16 -64t51 -39q20 -7 30 -9.5t17 -2.5q26 -4 34.5 -10.5t8.5 -18.5q0 -8 -10 -13t-29 -5q-5 0 -68.5 6t-121.5 6q-44 0 -102 -4t-70 -4q-25 0 -38 5.5t-13 17.5q0 9 8.5 14.5t33.5 9.5q27 5 45.5 11.5t35.5 15.5
q35 17 66.5 64t72.5 145l457 1089q8 21 16.5 30t19.5 9t20 -9.5t19 -33.5l453 -1141q30 -75 58.5 -112t64.5 -52q13 -6 30 -10t37 -6q29 -4 38 -10t9 -17q0 -9 -11 -14.5t-30 -5.5q-24 0 -111 4t-149 4q-40 0 -122.5 -6t-124.5 -6q-26 0 -39.5 5.5t-14.5 16.5q0 9 12 15.5
t48 13.5q59 6 85.5 23t26.5 49q0 22 -8 58t-22 73l-95 250h-518zM377 559h475l-229 592z" />
    <glyph glyph-name="B" unicode="B" horiz-adv-x="1462" 
d="M838 737q236 -24 354.5 -118t118.5 -257q0 -181 -142.5 -273.5t-423.5 -92.5q-43 0 -152 5t-175 5q-125 0 -245 -9q-19 -1 -23 -1q-19 0 -29 6t-10 16q0 20 49 26q4 1 6 1q25 2 44 6.5t33 11.5q39 19 53.5 52.5t14.5 113.5v922q0 77 -15 110.5t-52 51.5q-15 6 -34 10
t-44 6q-2 0 -6 1q-49 6 -49 22q0 9 10 14.5t29 5.5q5 0 30 -1q122 -7 238 -7q29 0 107.5 4t127.5 4q263 0 390.5 -80.5t127.5 -247.5q0 -120 -82.5 -196.5t-250.5 -110.5zM528 805q0 -40 12.5 -50t51.5 -10q189 0 274.5 67.5t85.5 215.5q0 151 -74.5 225t-226.5 74
q-82 0 -102.5 -12t-20.5 -64v-446zM528 238q0 -101 54 -146t176 -45q142 0 226.5 88t84.5 236q0 169 -101 249t-315 80h-18q-77 0 -92 -10t-15 -51v-401z" />
    <glyph glyph-name="C" unicode="C" horiz-adv-x="1462" 
d="M1343 51q0 -11 -5.5 -16.5t-16.5 -5.5q-15 0 -27 38.5t-41 38.5q-21 0 -66 -28q-19 -13 -30 -19q-82 -45 -172.5 -68.5t-187.5 -23.5q-141 0 -269.5 47.5t-220.5 132.5q-102 95 -154.5 223.5t-52.5 284.5q0 122 31 230.5t92 204.5q99 151 255 231t351 80q177 0 353 -88
q38 -19 47 -19q18 0 32.5 39t26.5 39t17.5 -10t7.5 -35l10 -301q0 -12 2 -24v-3q0 -13 -6 -20.5t-16 -7.5q-16 0 -26 39q-9 38 -20 63q-58 146 -160.5 216.5t-254.5 70.5q-226 0 -358 -186t-132 -508q0 -299 134.5 -473.5t363.5 -174.5q135 0 239 70.5t158 198.5
q24 56 45 124t35 68q7 0 11.5 -6t4.5 -14v-408z" />
    <glyph glyph-name="D" unicode="D" horiz-adv-x="1575" 
d="M303 1159q0 78 -15 112.5t-52 51.5q-24 12 -80 16h-2q-2 1 -6 1q-46 7 -46 20q1 10 11 16t28 6q7 0 34 -2q122 -8 235 -8q46 0 140 5t142 5q369 0 576 -187t207 -521q0 -338 -186 -507t-556 -169q-79 0 -197.5 4t-156.5 4q-108 0 -216 -7q-19 -1 -24 -1q-18 0 -27.5 5
t-9.5 15q1 20 50 26q4 1 6 1q25 2 43.5 6.5t33.5 11.5q38 19 53 53t15 115v928zM520 328q0 -159 55 -220t191 -61q241 0 351 140t110 450q0 364 -134.5 530t-428.5 166q-95 0 -119.5 -22.5t-24.5 -91.5v-891z" />
    <glyph glyph-name="E" unicode="E" horiz-adv-x="1350" 
d="M524 352q0 -201 58.5 -250t242.5 -49q150 0 227 29t117 98q22 38 34 90t30 52q13 0 17.5 -11.5t4.5 -50.5q0 -32 -4 -101t-4 -106q0 -41 -11 -49t-56 -8q-10 0 -58 1q-338 9 -702 9q-125 0 -245 -9q-19 -1 -23 -1q-18 0 -27.5 5.5t-9.5 16.5q0 20 50 26q3 1 5 1
q25 2 44 6.5t33 11.5q38 18 52 50.5t14 115.5v922q0 79 -14.5 112t-50.5 50q-15 6 -34 10t-44 6q-2 0 -6 1q-49 7 -49 22q0 9 9.5 14.5t27.5 5.5q5 0 30 -1q146 -7 291 -7q68 0 236 3t270 3h45q83 0 103 -10t20 -39q0 -4 -3 -40.5t-3 -70.5q0 -29 4 -64.5t4 -41.5
q0 -18 -5.5 -25.5t-17.5 -7.5q-20 0 -28.5 54.5t-28.5 86.5q-37 60 -113 84.5t-262 24.5h-16q-113 0 -133.5 -17t-20.5 -94v-470q141 6 204 31t97 81q21 34 31.5 95t28.5 61q12 0 18 -9t6 -26q0 -13 -5 -86t-5 -133q0 -83 6 -169.5t6 -90.5q0 -17 -6 -27t-16 -10
q-14 0 -24 43.5t-23 72.5q-30 64 -93.5 91.5t-187.5 27.5h-37v-340z" />
    <glyph glyph-name="F" unicode="F" horiz-adv-x="1241" 
d="M537 229q0 -84 15.5 -116t55.5 -50q29 -13 88 -18h2h5q53 -7 53 -27q-1 -10 -11.5 -16t-27.5 -6q-5 0 -25 1q-131 9 -264 9q-124 0 -244 -9q-20 -1 -24 -1q-18 0 -27.5 6t-9.5 16q0 19 50 26q4 1 5 1q25 2 44 6.5t35 12.5q37 18 52 51.5t15 113.5v922q0 77 -15 110.5
t-53 51.5q-15 6 -34 10t-44 6q-2 0 -6 1q-49 7 -49 22q0 9 10.5 14.5t28.5 5.5q5 0 30 -1q139 -7 279 -7q284 0 563 7q48 1 58 1q38 0 55.5 -6.5t21.5 -22.5q2 -5 3 -13.5t2 -26.5v-36q1 -74 13 -148q3 -16 3 -19q0 -14 -5 -22.5t-14 -8.5q-18 0 -34 51.5t-41 85.5
q-43 60 -134 86.5t-257 26.5q-66 0 -104 -4t-46 -12q-11 -11 -15.5 -49t-4.5 -109v-432q141 4 198.5 21.5t91.5 58.5q35 40 49 108t31 68q12 0 17.5 -11.5t5.5 -35.5q0 -4 -1 -19q-3 -64 -3 -125q0 -98 4 -197.5t4 -101.5q0 -18 -6 -29.5t-15 -11.5q-16 0 -28 56t-37 90
q-35 45 -86.5 64.5t-147.5 19.5q-29 0 -45 -0.5t-30 -1.5v-437z" />
    <glyph glyph-name="G" unicode="G" horiz-adv-x="1573" 
d="M1407 150q-49 -2 -88.5 -9.5t-69.5 -21.5q-21 -10 -65 -34q-220 -118 -404 -118q-148 0 -273.5 50.5t-221.5 148.5q-94 95 -139.5 212.5t-45.5 264.5q0 338 201.5 550t523.5 212q174 0 352 -80q49 -22 62 -22q16 0 31 32.5t26 32.5q12 0 16.5 -8t4.5 -31v-22l-12 -301
q-1 -13 -5.5 -19t-13.5 -6q-16 0 -26 44q-8 33 -15 53q-52 146 -147 216t-242 70q-247 0 -375.5 -176.5t-128.5 -515.5q0 -307 125 -479.5t346 -172.5q184 0 270.5 82t86.5 256q0 62 -19 102.5t-53 53.5q-17 5 -34.5 9t-32.5 5q-3 1 -8 2q-40 8 -40 25q0 10 13 16.5t34 6.5
q7 0 36 -3q107 -10 200 -10q102 0 209 10q24 3 28 3q17 0 28 -6.5t11 -14.5q0 -15 -32 -26q-5 -2 -7 -3q-17 -2 -33 -7.5t-32 -14.5q-29 -18 -40 -48.5t-11 -121.5v-23q0 -44 2.5 -85.5t7.5 -77.5z" />
    <glyph glyph-name="H" unicode="H" horiz-adv-x="1796" 
d="M315 1151q0 79 -14 112t-51 50q-15 6 -34 10t-44 6q-2 0 -6 1q-49 7 -49 22q0 9 9.5 14.5t27.5 5.5q6 0 33 -1q122 -7 235 -7q123 0 244 7q20 1 24 1q18 0 27.5 -5t9.5 -13q0 -15 -41 -23q-5 -1 -8 -2q-13 0 -29 -2.5t-37 -7.5q-46 -13 -65 -49.5t-19 -118.5v-410h740
v410q0 79 -14.5 112t-51.5 50q-13 6 -32 10t-44 6q-34 5 -45.5 10t-11.5 15q0 8 9.5 13t27.5 5q4 0 24 -1q121 -7 244 -7q113 0 235 7q27 1 33 1q18 0 27.5 -5.5t9.5 -14.5q0 -16 -49 -22q-4 -1 -6 -1q-25 -2 -44 -6t-34 -10q-36 -17 -50.5 -50t-14.5 -112v-922
q0 -83 14 -115.5t52 -50.5q14 -7 33 -11.5t44 -6.5q2 0 5 -1q50 -6 50 -26q0 -11 -9.5 -16.5t-27.5 -5.5q-4 0 -23 1q-120 9 -245 9q-124 0 -244 -9q-20 -1 -24 -1q-18 0 -27.5 6t-9.5 16q0 19 50 26q4 1 5 1q26 2 44.5 6.5t34.5 12.5q36 17 50.5 49.5t14.5 115.5v449h-740
v-449q0 -80 15 -113.5t52 -51.5q18 -9 38.5 -14t40.5 -5h4q49 -7 49 -27q0 -10 -9.5 -16t-27.5 -6q-4 0 -24 1q-120 9 -244 9q-125 0 -245 -9q-19 -1 -23 -1q-18 0 -27.5 5.5t-9.5 16.5q0 20 50 26q3 1 5 1q25 2 44 6.5t33 11.5q38 18 52 50.5t14 115.5v922z" />
    <glyph glyph-name="I" unicode="I" horiz-adv-x="899" 
d="M555 229q0 -78 16.5 -113t56.5 -52q19 -8 41 -12.5t50 -6.5q2 0 5 -1q50 -7 50 -26q0 -10 -10.5 -16t-28.5 -6q-5 0 -27 1q-130 9 -259 9q-130 0 -258 -9q-22 -1 -27 -1q-19 0 -30 6t-11 16q0 20 53 27h4h3q58 5 87 18q42 19 58 53t16 113v922q0 77 -15 110.5t-53 51.5
q-15 6 -36.5 10t-51.5 6q-2 0 -7 1q-58 7 -58 22q0 8 19 14t40 6q7 0 33 -1q121 -7 234 -7q122 0 245 7q20 1 25 1q21 0 38 -5t17 -13q0 -15 -48 -23q-7 -1 -11 -2q-22 0 -40.5 -2.5t-35.5 -7.5q-46 -13 -65 -49.5t-19 -118.5v-922z" />
    <glyph glyph-name="J" unicode="J" horiz-adv-x="901" 
d="M379 -207v1358q0 79 -14.5 112t-51.5 50q-15 6 -34 10t-43 6q-3 0 -7 1q-49 7 -49 22q0 9 10 14.5t27 5.5q7 0 34 -1q122 -7 234 -7q123 0 244 7q20 1 25 1q17 0 26.5 -4.5t10.5 -13.5q0 -15 -41 -23q-5 -1 -9 -2q-14 0 -30 -2.5t-37 -7.5q-45 -12 -63.5 -48t-18.5 -120
v-1229q0 -127 -13 -189t-42 -110q-60 -92 -158.5 -136t-247.5 -44q-138 0 -219.5 45t-81.5 119q0 35 23 56.5t63 21.5q29 0 50.5 -15t33.5 -45q34 -85 67 -108t93 -23q121 0 170 63.5t49 235.5z" />
    <glyph glyph-name="K" unicode="K" horiz-adv-x="1573" 
d="M539 528v-299q0 -80 14.5 -113.5t53.5 -52.5q14 -7 33 -11.5t44 -6.5q2 0 5 -1q50 -6 50 -26q0 -10 -10 -16t-29 -6q-4 0 -23 1q-120 9 -245 9q-124 0 -244 -9q-20 -1 -24 -1q-18 0 -27.5 6t-9.5 16q0 19 50 26q4 1 5 1q26 2 44.5 6.5t34.5 12.5q36 17 50.5 49.5
t14.5 115.5v922q0 79 -14.5 112t-51.5 50q-15 6 -34 10t-44 6q-2 0 -6 1q-49 7 -49 22q0 9 10.5 14.5t28.5 5.5q7 0 33 -1q120 -7 233 -7q123 0 246 7q20 1 24 1q18 0 27.5 -4.5t9.5 -13.5q0 -15 -41 -23q-5 -1 -8 -2q-14 0 -30.5 -2.5t-36.5 -7.5q-46 -13 -65 -49.5
t-19 -118.5v-555q233 232 372.5 412.5t139.5 244.5q0 32 -21 50.5t-63 23.5q-5 0 -7.5 0.5t-5.5 1.5q-38 2 -48.5 7.5t-10.5 17.5q0 9 9.5 13.5t29.5 4.5q23 0 86 -4t102 -4q46 0 108.5 4t78.5 4q20 0 29.5 -5t9.5 -17q0 -11 -24 -19q-3 -1 -5 -2q-31 0 -56.5 -9.5
t-50.5 -29.5q-32 -24 -168 -195t-239 -292l461 -557l13 -16q138 -163 200 -183q10 -3 31 -6q34 -6 34 -21q0 -13 -7 -18.5t-26 -5.5l-58.5 5t-117.5 5q-146 0 -315 -9q-47 -3 -59 -3q-23 0 -34 5.5t-12 16.5q0 18 54 25q19 2 30 4q50 7 67 20t17 39q0 35 -67.5 131
t-208.5 263l-131 155z" />
    <glyph glyph-name="L" unicode="L" horiz-adv-x="1350" 
d="M514 299q0 -147 62 -196.5t258 -49.5q145 0 230.5 29.5t131.5 93.5q29 40 45.5 109t36.5 69q9 0 12.5 -5.5t3.5 -31.5l-4 -274q0 -32 -8.5 -41.5t-34.5 -9.5q-11 0 -64 2q-288 14 -575 14q-233 0 -439 -11q-25 -1 -30 -1q-18 0 -27 5.5t-10 16.5q1 20 50 26q4 1 6 1
q25 2 43.5 6.5t33.5 11.5q37 18 51.5 50.5t14.5 115.5v922q0 79 -14.5 112t-50.5 50q-15 6 -34.5 10t-43.5 6q-2 0 -6 1q-49 6 -50 22q0 9 10 14.5t27 5.5q7 0 34 -1q122 -7 235 -7q122 0 243 7q20 1 25 1q17 0 26.5 -4.5t10.5 -13.5q0 -15 -41 -23q-5 -1 -8 -2
q-15 0 -31 -2.5t-37 -7.5q-45 -12 -63.5 -48t-18.5 -120v-852z" />
    <glyph glyph-name="M" unicode="M" horiz-adv-x="1911" 
d="M309 264v983q-13 31 -37.5 48t-73.5 28q-13 3 -24.5 4.5t-21.5 1.5h-2q-48 7 -48 27q0 10 12 16t31 6t80 -4t103 -4q51 0 81 2t45 6h19q26 0 39.5 -9.5t28.5 -45.5l426 -1004l438 1020q8 21 22 30t35 9q7 0 18 -2.5t15 -3.5q7 0 27 -1t32 -1q47 0 119 3t99 3
q28 0 38.5 -5t10.5 -17q0 -15 -37 -23q-5 -1 -9 -2q-35 -2 -59.5 -9.5t-44.5 -21.5q-31 -22 -47 -67t-16 -113v-889q0 -79 14 -113t50 -53q14 -7 32 -11.5t41 -6.5q4 -1 10 -2q41 -8 41 -25q0 -10 -9 -16t-26 -6q-4 0 -21 1q-115 9 -233 9q-126 0 -248 -9q-20 -1 -24 -1
q-18 0 -27.5 6t-9.5 16q1 20 50 26q4 1 5 1q26 2 44.5 6.5t34.5 12.5q37 18 52 51.5t15 113.5v949l-486 -1137q-6 -15 -14.5 -25t-13.5 -10q-6 0 -13 7t-12 18l-487 1157v-926q0 -97 18.5 -136.5t64.5 -61.5q17 -10 34.5 -14.5t35.5 -4.5q2 0 8 -2q33 -8 33 -25
q0 -10 -11.5 -16t-33.5 -6q-4 0 -19.5 1t-25.5 1q-4 0 -46.5 4t-74.5 4q-18 0 -48.5 -2.5t-36.5 -3.5q-34 -3 -50 -3.5t-31 -0.5q-40 0 -57.5 5.5t-17.5 18.5q0 10 9.5 15.5t39.5 9.5q1 0 6 1q47 9 70 22q38 22 53.5 61.5t15.5 134.5z" />
    <glyph glyph-name="N" unicode="N" horiz-adv-x="1686" 
d="M379 262q0 -94 19 -135.5t67 -67.5q14 -6 31 -10t36 -6h3q38 -7 38 -25q0 -11 -11 -16.5t-32 -5.5q-6 0 -31 2q-85 6 -159 6q-34 0 -90 -3t-78 -3q-23 0 -36 6t-13 16q0 11 12.5 17t36.5 6q5 1 16 4q41 10 60 21q39 22 54 61.5t15 134.5v957q-26 41 -55.5 64t-72.5 36
q-12 3 -36 7q-4 1 -6 1q-1 0 -4 1q-43 6 -43 24q0 10 13.5 15t42.5 5q9 0 58.5 -4t90.5 -4q10 0 30.5 1t31.5 1q5 1 24 3.5t31 2.5q20 0 37.5 -9.5t32.5 -29.5l839 -1050v841q0 113 -40 161t-132 48q-8 0 -15 6.5t-7 14.5q0 9 9 14.5t25 5.5q19 0 91 -5t124 -5q30 0 58.5 1
t60.5 3q3 0 8 1q28 3 39 3q17 0 26 -5.5t9 -14.5q0 -14 -44 -24l-3 -1h-3q-49 -9 -73 -20q-39 -21 -54 -58t-15 -127v-1097q0 -37 -7.5 -49.5t-25.5 -12.5q-16 0 -30.5 10t-37.5 39l-915 1139v-891z" />
    <glyph glyph-name="O" unicode="O" horiz-adv-x="1686" 
d="M348 690q0 -306 137.5 -493t358.5 -187q225 0 362 184t137 492q0 312 -133.5 493t-361.5 181q-223 0 -361.5 -184t-138.5 -486zM96 680q0 143 53.5 270.5t157.5 231.5q110 108 250 164.5t299 56.5q161 0 306.5 -61t250.5 -173q90 -96 134 -215.5t44 -269.5
q0 -148 -56 -282.5t-157 -229.5t-242.5 -150t-287.5 -55q-155 0 -291 50.5t-240 146.5q-113 106 -167 231t-54 285z" />
    <glyph glyph-name="P" unicode="P" horiz-adv-x="1241" 
d="M528 645v-416q0 -80 15 -113.5t52 -51.5q16 -8 34.5 -12.5t44.5 -6.5q1 0 5 -1q50 -7 50 -26q0 -10 -10 -16t-29 -6q-4 0 -24 1q-120 9 -244 9q-125 0 -245 -9q-19 -1 -23 -1q-18 0 -27.5 5.5t-9.5 16.5q0 20 50 26q3 1 5 1q25 2 44 6.5t33 11.5q38 18 52 50.5t14 115.5
v922q0 79 -14 112t-51 50q-15 6 -34 10t-44 6q-2 0 -6 1q-49 7 -49 22q0 9 9.5 14.5t27.5 5.5q6 0 33 -1q122 -7 235 -7q58 0 133.5 3t93.5 3q272 0 411.5 -92.5t139.5 -271.5q0 -175 -140 -272t-394 -97q-39 0 -131 8h-7zM529 696q38 -5 70.5 -7.5t51.5 -2.5
q163 0 239.5 76.5t76.5 238.5q0 165 -80 245.5t-244 80.5q-63 0 -89 -16t-26 -54z" />
    <glyph glyph-name="Q" unicode="Q" horiz-adv-x="1686" 
d="M350 686q0 -315 130 -494.5t358 -179.5t369 184.5t141 489.5t-134 491.5t-348 186.5q-236 0 -376 -183.5t-140 -494.5zM741 -29q-294 35 -469.5 228t-175.5 481q0 147 55.5 276t163.5 232q114 108 248.5 161.5t290.5 53.5q122 0 233 -31t205 -92q139 -90 222 -246
t83 -327q0 -214 -130 -399t-345 -275q-70 -30 -237.5 -68t-235.5 -98h37q78 0 151 -11t146 -34q52 -17 202 -82.5t236 -65.5q56 0 100 23.5t83 73.5q17 22 27.5 31.5t19.5 9.5t14.5 -8t5.5 -21q0 -126 -94.5 -222t-228.5 -96q-132 0 -295 140q-12 10 -17 14
q-138 117 -217.5 159t-150.5 42q-79 0 -158.5 -58.5t-95.5 -58.5t-26.5 9.5t-10.5 23.5q0 24 17.5 41t72.5 41q68 29 157 84.5t117 68.5z" />
    <glyph glyph-name="R" unicode="R" horiz-adv-x="1460" 
d="M510 737q0 -36 10 -46.5t41 -10.5q220 0 314 73.5t94 243.5q0 174 -87.5 257t-271.5 83q-58 0 -79 -16.5t-21 -63.5v-520zM510 229q0 -83 14.5 -115.5t51.5 -50.5q15 -7 33.5 -11.5t43.5 -6.5q2 0 6 -1q49 -6 50 -26q-1 -11 -10 -16.5t-27 -5.5q-5 0 -24 1q-120 9 -245 9
q-124 0 -244 -9q-19 -1 -24 -1q-18 0 -27 5.5t-10 16.5q1 20 50 26q4 1 6 1q25 2 43.5 6.5t34.5 12.5q36 17 50.5 49.5t14.5 115.5v922q0 79 -14.5 112t-51.5 50q-15 6 -34 10t-43 6q-2 0 -6 1q-49 6 -50 22q0 9 10 14.5t27 5.5h17q21 -2 60.5 -3t88.5 -1q77 0 207.5 5
t183.5 5q263 0 385.5 -84.5t122.5 -265.5q0 -153 -96.5 -244.5t-284.5 -115.5l445 -521q27 -32 62 -56t93 -46l3 -1q46 -20 46 -34q0 -7 -9.5 -12.5t-22.5 -5.5q-5 0 -8.5 0.5t-6.5 1.5q-3 0 -14 1q-72 7 -133 7q-9 0 -19.5 -1t-29.5 -3h-47q-40 0 -57 7t-31 26l-443 555
q-21 26 -42.5 36.5t-57.5 10.5q-22 0 -29.5 -9t-7.5 -34v-361z" />
    <glyph glyph-name="S" unicode="S" horiz-adv-x="1126" 
d="M111 373q0 27 4 33.5t18 7.5q23 0 35 -61q10 -49 20 -79q46 -124 138 -192t215 -68q140 0 219.5 74t79.5 205q0 49 -13.5 91t-40.5 77q-64 80 -302 178q-40 16 -60 25q-134 56 -206.5 153.5t-72.5 220.5q0 160 114.5 263.5t291.5 103.5q123 0 251 -70q37 -20 48 -20
q19 0 33.5 38t29.5 38q12 0 19.5 -12.5t7.5 -32.5q0 -9 -3 -54t-3 -82q0 -20 3 -62t3 -63q0 -36 -4.5 -46t-17.5 -11q-24 0 -38 52q-13 46 -26 75q-45 98 -120.5 149.5t-174.5 51.5q-117 0 -187.5 -64t-70.5 -168q0 -148 296 -279l17 -7q235 -105 325.5 -209.5t90.5 -257.5
q0 -177 -139 -293.5t-350 -116.5q-152 0 -306 88q-39 23 -49 23q-14 0 -30 -31t-29 -31q-11 0 -16 7t-5 22q0 1 5.5 52t5.5 102q0 40 -3 100.5t-3 79.5z" />
    <glyph glyph-name="T" unicode="T" horiz-adv-x="1491" 
d="M852 229q0 -80 16 -114t58 -52q29 -13 87 -18h3h4q53 -7 53 -27q0 -10 -11 -16t-30 -6q-4 0 -24 1q-128 9 -263 9q-134 0 -264 -9q-20 -1 -24 -1q-19 0 -29 6t-10 16q0 20 53 27h4h3q58 5 87 18q42 18 58 52t16 114v1033q0 36 -21 49.5t-96 13.5h-82q-169 0 -236.5 -18.5
t-99.5 -63.5q-25 -37 -35 -104.5t-24 -67.5q-10 0 -14 7t-4 28v231q0 27 12.5 37t46.5 10q8 0 52 -1q294 -13 607 -13q314 0 608 13q44 1 52 1q34 0 45.5 -9.5t11.5 -37.5v-231q0 -24 -3.5 -29.5t-12.5 -5.5q-14 0 -25.5 68t-36.5 104q-30 46 -96.5 64t-283.5 18h-35
q-78 0 -97.5 -13t-19.5 -50v-1033z" />
    <glyph glyph-name="U" unicode="U" horiz-adv-x="1688" 
d="M311 1151q0 77 -15 110.5t-52 51.5q-15 6 -34 10t-44 6q-2 0 -6 1q-49 6 -49 22q0 9 10 14.5t29 5.5q6 0 33 -1q120 -7 233 -7q123 0 245 7q21 1 25 1q17 0 26 -4.5t9 -13.5q0 -15 -41 -23q-5 -1 -8 -2q-13 0 -29 -2.5t-37 -7.5q-46 -13 -65 -49.5t-19 -118.5v-719
q0 -203 91 -298t284 -95q227 0 334.5 114t107.5 357v641q0 77 -15 110.5t-52 51.5q-15 6 -34 10t-44 6q-2 0 -6 1q-49 7 -49 22q0 9 10.5 14.5t28.5 5.5q15 0 82 -4t118 -4q48 0 108.5 4t72.5 4q17 0 26.5 -4.5t9.5 -13.5q0 -15 -41 -23q-5 -1 -8 -2q-14 0 -30.5 -2.5
t-36.5 -7.5q-46 -12 -64 -48t-18 -120v-590q0 -324 -129.5 -460t-433.5 -136q-263 0 -393 109.5t-130 328.5v748z" />
    <glyph glyph-name="V" unicode="V" horiz-adv-x="1569" 
d="M852 219l203 496q83 204 128.5 340t45.5 178q0 36 -16.5 59t-47.5 29q-26 6 -63 11q-45 7 -45 20q0 9 9 14.5t26 5.5q5 0 71.5 -5t126.5 -5q58 0 120 5t67 5q17 0 26.5 -5.5t9.5 -14.5q0 -14 -32 -23q-5 -1 -8 -2q-19 0 -28.5 -1.5t-17.5 -4.5q-42 -16 -78.5 -68
t-88.5 -182l-347 -862q-53 -136 -84 -189t-55 -53q-12 0 -29 22.5t-30 59.5l-389 1024q-7 17 -19 49q-66 177 -127 193q-15 4 -31 7.5t-28 4.5q-36 6 -45.5 11.5t-9.5 15.5t8.5 15t27.5 5q4 0 22 -2q106 -10 220 -10q135 0 263 9q19 1 24 1q15 0 23 -4.5t8 -13.5
q-1 -19 -49 -24q-15 -2 -24 -3q-49 -6 -71 -25t-22 -55q0 -23 14 -71.5t53 -157.5z" />
    <glyph glyph-name="W" unicode="W" horiz-adv-x="2021" 
d="M737 242l314 1052q15 52 26 67t29 15q32 0 55 -79l2 -6l314 -1025l188 613q33 104 50.5 192t17.5 150q0 42 -26 69t-75 35q-12 2 -32 4q-43 5 -44 25q0 10 11.5 16t31.5 6q11 0 20 -0.5t18 -1.5q10 0 37 -2q97 -8 169 -8q22 0 52 4t34 4q8 1 17.5 1.5t23.5 0.5t22.5 -5
t8.5 -13q0 -16 -47 -31v0q-7 0 -17 -2.5t-22 -7.5q-37 -15 -61.5 -51.5t-57.5 -143.5l-321 -1032q-19 -61 -38 -91t-38 -30q-21 0 -35 20t-31 79l-295 1001l-299 -987q-18 -62 -35.5 -87.5t-39.5 -25.5q-35 0 -69 103l-1 4l-354 1108q-24 73 -45.5 100t-59.5 37q-13 3 -37 6
q-53 7 -53 29q0 10 7 14t30 4q9 0 40 -2q111 -6 208 -6q48 0 133 5t121 5q30 0 43.5 -5t13.5 -17q0 -17 -40 -21q-26 -3 -42 -6q-59 -12 -81.5 -31.5t-22.5 -58.5q0 -69 238 -848z" />
    <glyph glyph-name="X" unicode="X" horiz-adv-x="1571" 
d="M700 649l-446 584q-54 68 -148 96h-1q-21 4 -28 8.5t-7 12.5q0 10 12 16t33 6q16 0 55 -3q8 -1 13 -1q35 -3 79 -4.5t98 -1.5q79 0 142.5 3t101.5 9q9 0 17.5 1t9.5 1q11 0 19.5 -6.5t8.5 -13.5q0 -11 -8 -16t-43 -9q-1 0 -4.5 -1t-5.5 -1q-47 -1 -70.5 -13t-23.5 -34
q0 -23 11.5 -48t43.5 -67l281 -360l139 174q66 83 108.5 162.5t42.5 111.5q0 27 -14.5 43.5t-44.5 22.5q-17 3 -44 7q-5 1 -7 1q-3 1 -6 1q-41 8 -41 24q0 8 11.5 14t29.5 6q14 0 24 -0.5t19 -1.5q6 0 56.5 -5t88.5 -5q68 0 155 11q9 1 13 1q9 0 21.5 1t15.5 1
q18 0 28.5 -5.5t10.5 -14.5q0 -13 -33 -25l-6 -2q-10 0 -22 -2.5t-27 -7.5q-74 -29 -173 -156l-9 -12l-299 -389l489 -625q29 -35 62.5 -57t78.5 -33q1 0 4 -1q33 -12 33 -26q0 -11 -12.5 -17.5t-34.5 -6.5q-8 0 -31 3q-8 1 -12 1q-5 0 -17 1q-87 5 -153 5q-74 0 -109 -1
t-63 -3h-11q-82 -4 -120 -4q-31 0 -41 4t-10 14q0 15 16 22.5t59 10.5q5 1 11 1q81 8 82 46q0 22 -17 55.5t-51 77.5l-291 373l-223 -287q-49 -62 -72.5 -109t-23.5 -81q0 -33 17.5 -50t60.5 -24q6 0 11 -0.5t16 -3.5q38 -4 47.5 -10t9.5 -19q0 -11 -9.5 -16.5t-29.5 -5.5
q-6 0 -64.5 5t-111.5 5q-57 0 -129.5 -5t-87.5 -5q-30 0 -43 5.5t-13 16.5q0 20 49 32q37 9 60 18q72 28 168 154q17 22 27 35z" />
    <glyph glyph-name="Y" unicode="Y" horiz-adv-x="1460" 
d="M829 229q0 -83 14.5 -115.5t50.5 -49.5q16 -8 34.5 -12.5t44.5 -6.5q1 0 5 -1q50 -7 50 -26q0 -10 -9.5 -16t-27.5 -6q-4 0 -24 1q-120 9 -244 9q-125 0 -244 -9q-20 -1 -24 -1q-19 0 -29 6t-10 16q0 20 50 26q3 1 5 1q26 2 45.5 6.5t33.5 11.5q38 18 52 50.5t14 115.5
v312l-354 641q-3 6 -9 16q-61 111 -118 121q-8 1 -26 4q-51 7 -52 29q0 12 11 17t34 5q11 0 19 -0.5t17 -1.5q4 0 14 -1q79 -5 141 -5q57 0 130.5 4t80.5 4q18 0 44.5 1t35.5 1q28 0 38.5 -5t10.5 -17q0 -19 -36 -20q-22 0 -36 -3q-42 -8 -64 -27.5t-22 -50.5
q0 -18 12 -53.5t33 -75.5l275 -530q39 66 110 183q234 382 234 462q0 35 -14 54.5t-44 25.5q-13 3 -36 7q-48 9 -48 26q0 10 10.5 15t30.5 5q13 0 22.5 -0.5t19.5 -1.5q31 -2 67.5 -3t75.5 -1q78 0 155 6h2q4 1 7.5 1.5t7.5 0.5q11 0 18.5 -4.5t7.5 -11.5q0 -13 -28 -24
q-5 -2 -7 -3q-38 -5 -69.5 -24t-59.5 -54q-16 -21 -152.5 -254.5t-275.5 -443.5v-326z" />
    <glyph glyph-name="Z" unicode="Z" horiz-adv-x="1231" 
d="M133 0q-30 0 -39.5 3.5t-9.5 12.5q0 3 2.5 8.5t7.5 14.5l783 1276h-367q-126 0 -185 -25t-96 -88q-22 -37 -35.5 -97.5t-31.5 -60.5q-9 0 -14 12t-5 31q0 4 6.5 70t6.5 129v45q0 24 10.5 30.5t42.5 6.5h874q21 0 33 -5t12 -13q0 -7 -12 -25q-4 -7 -6 -10l-780 -1262h383
q144 0 222.5 33.5t121.5 112.5q25 46 41.5 112t31.5 66q11 0 16 -8t5 -25q0 -6 -9 -91.5t-9 -164.5v-37q0 -32 -10 -41.5t-50 -9.5h-940z" />
    <glyph glyph-name="bracketleft" unicode="[" horiz-adv-x="672" 
d="M164 -401v1769h436v-61h-299v-1643h299v-65h-436z" />
    <glyph glyph-name="backslash" unicode="\" horiz-adv-x="557" 
d="M528 -190l-516 1593h80l516 -1593h-80z" />
    <glyph glyph-name="bracketright" unicode="]" horiz-adv-x="672" 
d="M508 -401h-436v65h299v1643h-299v61h436v-1769z" />
    <glyph glyph-name="asciicircum" unicode="^" horiz-adv-x="2048" 
d="M934 1462h178l520 -565h-92l-518 436l-520 -436h-90z" />
    <glyph glyph-name="underscore" unicode="_" 
d="M0 -365h1024v-118h-1024v118z" />
    <glyph glyph-name="grave" unicode="`" 
d="M680 1036h-66l-329 205q-33 21 -48.5 41t-15.5 41q0 31 21.5 51.5t54.5 20.5q20 0 40.5 -12t55.5 -48z" />
    <glyph glyph-name="a" unicode="a" horiz-adv-x="1012" 
d="M639 516q-203 -78 -289 -150.5t-86 -162.5q0 -70 37 -111t100 -41q85 0 161.5 56t76.5 122v287zM633 115q-73 -69 -163.5 -105.5t-186.5 -36.5q-97 0 -153 50.5t-56 136.5q0 110 110.5 193t454.5 208v162q0 82 -48 121t-149 39q-76 0 -123 -26t-53 -73q-11 -68 -29.5 -87
t-58.5 -19q-32 0 -52 21t-20 55q0 74 97.5 122t257.5 48q181 0 266.5 -57.5t85.5 -178.5v-520q0 -53 17.5 -82t50.5 -29q21 0 48.5 19.5t35.5 19.5q9 0 13.5 -4.5t4.5 -13.5q0 -33 -53.5 -70t-116.5 -37q-69 0 -117.5 39t-62.5 105z" />
    <glyph glyph-name="b" unicode="b" horiz-adv-x="1120" 
d="M268 96l-86 -90q-6 -6 -11.5 -9t-10.5 -3q-7 0 -9.5 5t-3.5 21v17v1208q0 76 -9.5 101t-36.5 34q-16 6 -49 10q-3 0 -5 1q-32 2 -41.5 7t-9.5 15q0 18 59 24l2 1l50 6q38 5 73.5 10.5t70.5 11.5q15 4 27.5 6.5t20.5 2.5q12 0 16 -7.5t4 -33.5v-21v-616q42 58 117.5 89.5
t175.5 31.5q188 0 305 -127t117 -330q0 -226 -123.5 -357t-337.5 -131q-83 0 -156 29.5t-149 93.5zM313 264q0 -117 56.5 -176t167.5 -59q152 0 230.5 108.5t78.5 319.5q0 189 -77 295t-214 106q-118 0 -180 -63.5t-62 -186.5v-344z" />
    <glyph glyph-name="c" unicode="c" horiz-adv-x="899" 
d="M59 438q0 102 43.5 196.5t122.5 166.5q69 63 157 94t198 31q114 0 188 -38.5t74 -96.5q0 -31 -17.5 -48.5t-48.5 -17.5q-30 0 -49.5 14.5t-34.5 48.5q-25 63 -51.5 78t-81.5 15q-136 0 -215.5 -117t-79.5 -322q0 -192 82 -299.5t227 -107.5q56 0 101 12.5t71 36.5
q13 11 33.5 38.5t36.5 27.5q13 0 20 -6.5t7 -18.5q0 -60 -90 -107t-222 -47q-220 0 -345.5 124.5t-125.5 342.5z" />
    <glyph glyph-name="d" unicode="d" horiz-adv-x="1243" 
d="M860 135q-72 -83 -149.5 -121.5t-173.5 -38.5q-193 0 -321 130.5t-128 324.5q0 212 126 352t316 140q94 0 172.5 -33.5t133.5 -95.5v512q0 39 -10 56.5t-38 27.5q-21 7 -64.5 11t-43.5 23t51 22q24 1 39 3q73 6 146.5 16.5t76.5 10.5q13 0 19 -7t6 -22v-1206
q0 -61 15 -95.5t48 -52.5q13 -6 27 -9t32 -3q26 -3 32.5 -7t7.5 -14q0 -17 -60 -29q-16 -3 -26 -5q-52 -12 -112 -31t-69 -19q-16 0 -27 30t-26 130zM842 602q0 123 -70.5 192.5t-193.5 69.5q-133 0 -211 -114t-78 -310q0 -189 75.5 -297t206.5 -108q126 0 198.5 77.5
t72.5 211.5v278z" />
    <glyph glyph-name="e" unicode="e" horiz-adv-x="1016" 
d="M299 621h418q20 0 28.5 10.5t8.5 36.5q0 98 -55 156.5t-146 58.5q-102 0 -169 -69.5t-85 -192.5zM287 561q-4 -24 -6 -50t-2 -52q0 -181 92 -295.5t237 -114.5q67 0 117 20t100 66q8 7 20 21q22 24 38 24q9 0 14.5 -6t5.5 -16q0 -62 -106.5 -124.5t-249.5 -62.5
q-206 0 -339.5 130t-133.5 325q0 96 35 186.5t100 161.5q71 77 156.5 114.5t191.5 37.5q159 0 271 -95.5t112 -224.5q0 -27 -8.5 -36t-44.5 -9h-600z" />
    <glyph glyph-name="f" unicode="f" horiz-adv-x="659" 
d="M399 176q0 -64 14 -84t58 -33q20 -6 41.5 -10t46.5 -6q4 -1 10 -2q47 -8 47 -25q0 -9 -11 -14.5t-32 -5.5q-6 0 -91 6t-163 6q-74 0 -150.5 -6t-78.5 -6q-16 0 -25.5 5.5t-9.5 14.5q0 17 37 25q5 1 9 2q19 2 35 6t31 10q34 13 45 32.5t11 84.5v637h-121q-23 0 -33 6
t-10 19t10.5 20.5t28.5 7.5h125v131q0 244 91.5 351.5t297.5 107.5q125 0 196 -37t71 -102q0 -27 -19 -45.5t-47 -18.5q-56 0 -75 64q-4 13 -7 20q-14 38 -51 58t-94 20q-87 0 -137 -64.5t-50 -176.5v-308h193q33 0 48 -6.5t15 -21.5q0 -14 -10 -19.5t-39 -5.5h-207v-637z
" />
    <glyph glyph-name="g" unicode="g" horiz-adv-x="1128" 
d="M305 600q0 -135 54 -212t149 -77q98 0 153.5 75.5t55.5 209.5q0 137 -56.5 213t-156.5 76q-89 0 -144 -78t-55 -207zM358 297q-107 40 -166 117.5t-59 179.5q0 143 108.5 237.5t274.5 94.5q78 0 145 -23.5t123 -71.5l33 21q52 36 91 52t75 16q57 0 91 -25t34 -68
q0 -27 -18.5 -46t-45.5 -19q-28 0 -67.5 38t-69.5 38q-15 0 -35.5 -9t-54.5 -30q40 -54 58 -104.5t18 -106.5q0 -146 -91 -223t-284 -93q-166 -13 -209 -32.5t-43 -61.5q1 -62 238 -67h42q243 -6 349 -81t106 -239t-124.5 -259t-341.5 -95q-195 0 -317 81t-122 208
q0 67 47 118.5t107 51.5q32 0 50.5 -8t18.5 -21q0 -3 -11 -11q-79 -55 -79 -157q0 -97 87.5 -154t238.5 -57q145 0 228 63.5t83 174.5q0 108 -72 152t-279 46q-182 2 -264.5 47t-82.5 142q0 72 48.5 119t141.5 65z" />
    <glyph glyph-name="h" unicode="h" horiz-adv-x="1241" 
d="M399 752q56 84 137 127t187 43q147 0 225 -69.5t78 -199.5v-477q0 -63 10 -83t39 -34q13 -6 27 -10t31 -6q25 -4 33 -10.5t8 -18.5q0 -8 -9.5 -13t-23.5 -5q-3 0 -71 6t-134 6t-135 -6t-72 -6q-15 0 -23 5.5t-8 16.5q0 10 8 15.5t33 9.5q4 1 10 2q31 8 48 14
q28 13 38.5 33.5t10.5 83.5v465q0 109 -48 163t-145 54q-108 0 -184 -85t-76 -210v-387q0 -63 10 -83t39 -34q13 -6 27 -10t31 -6q25 -4 33 -10.5t8 -18.5q0 -8 -8.5 -13t-22.5 -5q-3 0 -72 6t-135 6t-134 -6t-71 -6q-15 0 -23.5 5.5t-8.5 16.5q0 10 8 15.5t32 9.5q4 1 10 2
q32 8 48 14q28 13 38.5 33.5t10.5 83.5v1077q0 59 -10 78.5t-37 30.5q-13 5 -27 8.5t-30 5.5q-27 5 -35 10t-8 13q0 18 66 28q11 2 16 3q74 11 149 28t80 17q11 -1 16.5 -9t5.5 -24v-690z" />
    <glyph glyph-name="i" unicode="i" horiz-adv-x="565" 
d="M160 1354q0 44 31 75t75 31q43 0 74 -31t31 -75t-30.5 -74.5t-74.5 -30.5t-75 30.5t-31 74.5zM197 733q0 41 -8.5 57.5t-30.5 24.5q-9 4 -22 6t-38 2q-2 0 -7 1q-36 3 -36 16q1 17 48 25q22 4 36 7q71 15 141 39.5t74 24.5q12 0 17.5 -7.5t5.5 -23.5v-729q0 -63 10 -83.5
t39 -33.5q12 -6 26.5 -10t30.5 -6q26 -4 33.5 -10.5t7.5 -18.5q0 -8 -9 -13t-23 -5q-2 0 -70 6t-135 6q-68 0 -137 -6t-70 -6q-14 0 -22.5 5t-8.5 13q0 10 7 16t34 13q17 2 31 6t26 10q29 14 39.5 35t10.5 82v557z" />
    <glyph glyph-name="j" unicode="j" horiz-adv-x="565" 
d="M197 1352q0 44 31 75t75 31q43 0 74 -31t31 -75t-30.5 -74.5t-74.5 -30.5t-75 30.5t-31 74.5zM242 -225v915q0 57 -11.5 81.5t-40.5 33.5q-10 3 -23.5 4.5t-39.5 1.5h-6q-45 4 -45 20q0 20 93 38l5 1q120 25 210 62q15 6 17 6q11 0 16 -9t5 -28v-1108q0 -176 -101 -266
t-296 -90q-128 0 -206.5 35.5t-78.5 91.5q0 34 17.5 50.5t54.5 16.5q49 0 80 -70l2 -4q18 -38 52.5 -56.5t86.5 -18.5q109 0 159 69.5t50 223.5z" />
    <glyph glyph-name="k" unicode="k" horiz-adv-x="1126" 
d="M229 1253q0 56 -10.5 77t-38.5 32q-14 5 -48 13q-5 1 -7 1q-26 5 -34.5 9.5t-8.5 11.5q0 21 60 30q12 1 19 2q67 10 142 28t82 18q12 -1 16 -8t5 -25v-985l131 137q92 96 131 147t39 76q0 16 -11 24t-39 13q-8 2 -21 4q-42 7 -42 27q0 10 4.5 14t19.5 4q2 0 45.5 -3
t84.5 -3q36 0 85.5 3t61.5 3q37 0 45 -4t8 -14q0 -18 -31 -25h-2q-14 -2 -22.5 -4.5t-15.5 -5.5q-60 -23 -166 -143v0l-156 -172l383 -392q37 -39 71 -64t68 -36l4 -2q15 -8 15 -14q0 -13 -11.5 -18t-44.5 -5q-15 0 -44 1t-42 1q-30 0 -62.5 -2t-35.5 -2q-14 0 -25.5 4.5
t-17.5 11.5l-317 344q-30 32 -45.5 43t-28.5 11q-5 0 -7.5 -0.5t-4.5 -1.5v-238q0 -63 10 -83.5t39 -33.5q12 -6 26 -10t31 -6q25 -4 33 -10.5t8 -18.5q0 -8 -9 -13t-24 -5q-1 0 -69 6t-136 6q-67 0 -136 -6t-70 -6q-15 0 -23 5t-8 13q0 10 7 16t34 13q17 2 31 6t26 10
q29 13 39 33.5t10 83.5v1077z" />
    <glyph glyph-name="l" unicode="l" horiz-adv-x="563" 
d="M377 176q0 -63 10 -83.5t39 -33.5q12 -6 26.5 -10t30.5 -6q26 -4 33.5 -10.5t7.5 -18.5q0 -8 -8 -13t-22 -5q-2 0 -71 6t-136 6q-68 0 -137 -6t-70 -6q-14 0 -22.5 5t-8.5 13q0 10 7 16t34 13q17 2 31 6t26 10q29 13 39.5 33.5t10.5 83.5v1077q0 56 -11 77t-39 32
q-13 5 -48 13q-5 1 -6 1q-27 5 -35 9t-9 12q0 21 70 31q6 1 10 2q106 14 204 39q20 5 23 6q11 0 16 -8t5 -25v-1266z" />
    <glyph glyph-name="m" unicode="m" horiz-adv-x="1806" 
d="M393 741q56 93 136 139t186 46q112 0 183 -47t89 -134q56 88 141.5 134.5t188.5 46.5q148 0 217.5 -72t69.5 -227v-451q0 -63 10 -83.5t39 -33.5q12 -6 26 -10t31 -6q25 -4 33 -10.5t8 -18.5q0 -8 -8 -13t-23 -5q-1 0 -70 6t-137 6q-67 0 -136 -6t-70 -6q-15 0 -23 5
t-8 13q0 10 7 16t34 13q17 2 31 6t26 10q29 13 39 33.5t10 83.5v481q0 99 -45 150t-133 51q-110 0 -174.5 -80t-64.5 -217v-385q0 -63 10 -83.5t39 -33.5q13 -6 27 -10t28 -6q25 -4 33 -10.5t8 -18.5q0 -8 -8 -13t-23 -5q-1 0 -69 6t-136 6q-67 0 -136 -6t-70 -6
q-15 0 -23 5t-8 13q0 10 7 16t34 13q15 2 28.5 6t27.5 11q28 12 39 33.5t11 82.5v481q0 99 -45 150t-133 51q-110 0 -175.5 -80t-65.5 -217v-385q0 -63 10 -83.5t39 -33.5q12 -6 26 -10t31 -6q25 -4 33 -10.5t8 -18.5q0 -8 -8.5 -13t-22.5 -5q-1 0 -70 6t-137 6
q-67 0 -136 -6t-70 -6q-15 0 -23 5t-8 13q0 10 7 16t34 13q17 2 31 6t26 10q29 13 39 33.5t10 83.5v492q0 72 -10.5 101.5t-38.5 43.5q-16 7 -52 12h-3q-26 3 -33.5 7t-7.5 12q0 17 65 30q9 2 13 3q58 12 121.5 33.5t72.5 21.5q19 0 27 -32.5t14 -158.5z" />
    <glyph glyph-name="n" unicode="n" horiz-adv-x="1245" 
d="M225 176v492q0 68 -10.5 98t-38.5 45q-11 6 -24.5 9t-30.5 3q-2 1 -5 1q-38 6 -38 20q0 16 65 30q9 1 15 3q59 12 121.5 33.5t68.5 21.5q32 0 42 -133q3 -42 5 -68q61 98 145 146.5t193 48.5q146 0 224.5 -71t78.5 -202v-477q0 -63 10.5 -83t38.5 -34q13 -6 27 -10t31 -6
q25 -4 33 -10.5t8 -18.5q0 -8 -8.5 -13t-22.5 -5q-3 0 -72 6t-135 6t-134 -6t-71 -6q-15 0 -23.5 6t-8.5 16t8 15.5t33 9.5q3 1 9 2q32 8 48 14q29 13 39 33.5t10 83.5v465q0 109 -48 163t-144 54q-108 0 -183 -85t-75 -210v-387q0 -63 10 -83t39 -34q12 -6 26 -10t31 -6
q25 -4 33 -10.5t8 -18.5q0 -8 -9 -13t-24 -5q-3 0 -71 6t-134 6q-65 0 -134.5 -6t-71.5 -6q-15 0 -23 5.5t-8 16.5q0 10 8 15.5t33 9.5q3 1 9 2q32 8 48 14q29 13 39 33.5t10 83.5z" />
    <glyph glyph-name="o" unicode="o" horiz-adv-x="1126" 
d="M272 446q0 -207 74.5 -319.5t210.5 -112.5q145 0 220 112t75 329q0 205 -77.5 318.5t-217.5 113.5q-128 0 -206.5 -120t-78.5 -321zM74 449q0 202 144 339.5t355 137.5q96 0 178.5 -34t151.5 -101q70 -70 109 -157.5t39 -174.5q0 -95 -37.5 -184.5t-106.5 -159.5
q-72 -74 -154.5 -109t-185.5 -35q-214 0 -353.5 135t-139.5 343z" />
    <glyph glyph-name="p" unicode="p" horiz-adv-x="1245" 
d="M393 -391q0 -63 10.5 -82.5t38.5 -32.5q13 -6 27 -10t31 -6q25 -4 33 -10.5t8 -18.5q0 -8 -8.5 -13t-22.5 -5q-1 0 -70.5 6t-136.5 6q-83 0 -178 -10q-26 -2 -33 -2q-14 0 -22.5 5t-8.5 13q0 10 7.5 16t34.5 13q16 2 30 6t27 10q29 13 39 32.5t10 82.5v1077
q0 72 -11 101.5t-38 43.5q-16 8 -54 13h-2q-1 0 -5 1q-35 6 -36 19q0 16 57 27q13 2 21 4q58 12 121 33.5t72 21.5q26 0 38 -117q4 -39 7 -63q55 79 129.5 117.5t175.5 38.5q196 0 322.5 -131.5t126.5 -337.5q0 -208 -130.5 -341.5t-330.5 -133.5q-88 0 -158.5 31t-120.5 91
v-495zM383 432q0 -127 10.5 -189t34.5 -98q30 -44 89 -73t120 -29q137 0 215 108t78 300q0 201 -74 309t-211 108q-49 0 -95 -17.5t-83 -49.5q-46 -41 -65 -107.5t-19 -261.5z" />
    <glyph glyph-name="q" unicode="q" horiz-adv-x="1135" 
d="M287 434q0 -191 70.5 -296t199.5 -105q59 0 113 23.5t88 64.5q35 43 49 117t14 243q0 140 -9 201t-32 94q-31 48 -83.5 74.5t-114.5 26.5q-139 0 -217 -116.5t-78 -326.5zM981 -397q0 -63 10 -82.5t39 -32.5q13 -6 27 -10t30 -6q26 -5 33.5 -11t7.5 -18q0 -8 -9 -13
t-23 -5q-2 0 -70 5t-135 5t-136.5 -5t-70.5 -5q-14 0 -22.5 5t-8.5 13q0 10 7.5 16t34.5 13q16 2 30 6t27 10q28 13 38.5 32.5t10.5 82.5v493q-48 -59 -120 -90t-161 -31q-187 0 -312.5 131.5t-125.5 329.5q0 208 138 348t345 140q102 0 189.5 -38t89.5 -38q33 0 74 26.5
t47 26.5q9 0 14.5 -8t5.5 -21l-2 -44.5t-2 -90.5v-1134z" />
    <glyph glyph-name="r" unicode="r" horiz-adv-x="895" 
d="M406 715q42 92 119.5 144t172.5 52q70 0 113 -30t43 -78q0 -38 -19 -60t-51 -22q-24 0 -40 11t-27 34q-3 6 -8 17q-24 57 -84 57q-91 0 -149 -76.5t-58 -200.5v-387q0 -63 10 -83.5t39 -33.5q12 -6 26.5 -10t30.5 -6q25 -4 33 -10.5t8 -18.5q0 -8 -8 -13t-22 -5
q-2 0 -71 6t-136 6q-68 0 -137 -6t-70 -6q-14 0 -22.5 5t-8.5 13q0 10 7 16t34 13q17 2 31 6t26 10q29 13 39.5 33.5t10.5 83.5v471q0 78 -17 116.5t-57 53.5q-11 4 -24 6t-38 2q-29 0 -37 5.5t-8 17.5q0 9 16 16.5t59 16.5q78 15 150 34l72 19q29 0 42 -130q5 -54 10 -89z
" />
    <glyph glyph-name="s" unicode="s" horiz-adv-x="782" 
d="M102 262q0 9 5 16t12 7q13 0 24 -37.5t23 -61.5q42 -86 98 -127t131 -41t126.5 45t51.5 109q0 98 -194 203l-14 8q-140 73 -196 139.5t-56 153.5q0 111 72 180.5t188 69.5q47 0 101 -16.5t63 -16.5q26 0 50 14.5t27 14.5q7 0 12 -7t5 -16v-209q0 -10 -4.5 -16t-12.5 -6
q-15 0 -32 40q-9 23 -17 38q-36 69 -82 102t-106 33q-63 0 -102 -31.5t-39 -81.5q0 -48 28 -82.5t142 -99.5q21 -13 90 -49.5t104 -61.5q50 -36 75 -91.5t25 -129.5q0 -133 -81.5 -209t-225.5 -76q-79 0 -171 43q-27 13 -34 13q-13 0 -35.5 -18.5t-33.5 -18.5
q-8 0 -12.5 5.5t-4.5 12.5v256z" />
    <glyph glyph-name="t" unicode="t" horiz-adv-x="672" 
d="M172 840h-63q-20 0 -29.5 4.5t-9.5 13.5t49.5 45.5t87.5 77.5q42 45 75.5 99.5t43.5 54.5t14 -6.5t4 -22.5v-205h188q39 0 49.5 -6.5t10.5 -24.5q0 -16 -14 -23t-48 -7h-184v-617q0 -97 31.5 -140.5t99.5 -43.5q56 0 100.5 49t53.5 49q10 0 17 -8.5t7 -19.5
q0 -47 -73 -89.5t-172 -42.5q-130 0 -184 57.5t-54 198.5v607z" />
    <glyph glyph-name="u" unicode="u" horiz-adv-x="1243" 
d="M840 725q0 64 -10.5 84t-38.5 33q-14 5 -27.5 8.5t-28.5 5.5q-27 5 -35 11.5t-8 19.5q0 8 10.5 13t30.5 5q9 0 54 -4t81 -4q17 0 54 3t57 3q23 0 32 -12.5t9 -46.5v-613q0 -72 11 -101.5t38 -43.5q16 -8 53 -12h2q2 -1 5 -1q36 -7 36 -20q0 -16 -50 -25q-17 -3 -28 -5
q-58 -13 -120.5 -34.5t-71.5 -21.5q-31 0 -43 173q-1 18 -2 28q-59 -98 -142.5 -145.5t-195.5 -47.5q-158 0 -230.5 74.5t-72.5 237.5v438q0 64 -10.5 84t-38.5 33q-14 5 -27.5 8.5t-27.5 5.5q-28 5 -36 11.5t-8 19.5q0 9 10 13.5t29 4.5q13 0 59 -4t79 -4q16 0 53 3t57 3
q23 0 32 -12.5t9 -46.5v-586q0 -109 48 -164t145 -55q108 0 183 85.5t75 211.5v389z" />
    <glyph glyph-name="v" unicode="v" horiz-adv-x="1018" 
d="M592 199q121 311 162 431t41 154q0 29 -16.5 46t-59.5 28l-2 1q-37 10 -37 24q0 10 6.5 14t24.5 4q11 0 51.5 -4t68.5 -4q31 0 68.5 3t44.5 3q18 0 27.5 -5t9.5 -13q0 -10 -24 -20l-1 -1q-12 -5 -21 -10t-15 -10q-22 -19 -45.5 -63t-61.5 -138l-254 -639q-6 -15 -14 -22
t-21 -7q-25 0 -46 55q-8 23 -13 35l-285 687q-17 38 -33 62t-30 30q-17 8 -46 16q-6 2 -8 2v0q-34 6 -34 25q0 9 8 13.5t26 4.5q12 0 80.5 -4t126.5 -4q48 0 101.5 3t58.5 3q24 0 33.5 -4t9.5 -14q0 -14 -38 -20q-2 -1 -3 -1q-8 0 -17 -1.5t-20 -4.5q-22 -5 -33.5 -18.5
t-11.5 -34.5t13 -62.5t36 -95.5z" />
    <glyph glyph-name="w" unicode="w" horiz-adv-x="1468" 
d="M725 631l-235 -630q-8 -17 -15 -23t-18 -7q-12 0 -20 6t-13 19l-240 758q-11 35 -28 55.5t-46 34.5q-10 5 -21 8.5t-23 5.5h-2q-31 7 -31 23q0 8 10.5 14t28.5 6q3 0 19 -1q84 -5 167 -5q86 0 173 7q14 1 18 1q20 0 30 -6t10 -18q0 -8 -7.5 -12t-35.5 -7q-3 -1 -12.5 -2
t-13.5 -2q-35 -6 -52.5 -23t-17.5 -47q0 -15 2.5 -31t8.5 -33l159 -499l240 654v1q10 23 20 23q11 0 19 -18q1 -3 2 -4l260 -678l156 504q6 19 9 39t3 38q0 31 -14.5 47t-51.5 25q-8 1 -16.5 3t-13.5 3q-2 0 -4 1q-35 6 -35 22q0 9 9.5 13.5t29.5 4.5q1 0 36.5 -3t69.5 -3
q30 0 82.5 3t75.5 3q14 0 22 -5.5t8 -14.5q0 -11 -19 -18q-5 -2 -8 -3q-12 0 -23.5 -4t-22.5 -12q-23 -15 -40 -43t-36 -86l-236 -703q-6 -19 -16 -30t-22 -11q-13 0 -20 7.5t-17 35.5z" />
    <glyph glyph-name="x" unicode="x" horiz-adv-x="1124" 
d="M467 418l-303 373q-38 46 -84.5 63.5t-46.5 28.5q0 8 9.5 13t25.5 5q3 0 19 -1q84 -5 169 -5q49 0 111 4t75 4q18 0 27.5 -5.5t9.5 -14.5q0 -15 -57 -23.5t-57 -32.5q0 -10 3.5 -19t12.5 -22l194 -245l136 166q30 37 41.5 59.5t11.5 40.5q0 19 -11 29t-51 18q-1 0 -5 1
q-50 8 -50 28q0 9 8.5 13.5t26.5 4.5q14 0 64.5 -3t87.5 -3q42 0 93 4t60 4q14 0 22.5 -5t8.5 -13q0 -16 -29 -21q-18 -3 -29 -6q-36 -9 -70 -35t-77 -78l-205 -247l283 -338q61 -73 133 -104.5t72 -39.5q-1 -9 -11.5 -14.5t-27.5 -5.5q-4 0 -18 1q-96 7 -195 7
q-96 0 -183 -5q-15 -1 -18 -1q-20 0 -30.5 5t-10.5 13q0 12 10.5 17.5t45.5 9.5h1h3q67 7 67 35q0 21 -30 58l-3 4l-192 235l-172 -215q-12 -15 -17.5 -27.5t-5.5 -23.5q0 -19 13 -35t35 -25q13 -5 35 -10q36 -8 36 -23q0 -8 -10.5 -13t-28.5 -5q-2 0 -16 1q-68 5 -137 5
q-82 0 -158 -7q-12 -1 -15 -1q-9 0 -15.5 5t-6.5 11q0 21 44 31h1q6 1 14.5 3t25.5 7q32 10 67.5 41t87.5 94z" />
    <glyph glyph-name="y" unicode="y" horiz-adv-x="1018" 
d="M582 207l192 471q15 35 23 64t8 51q0 24 -14.5 38.5t-47.5 22.5q-9 2 -28 5q-35 4 -35 20q0 10 10 16t27 6q9 0 50.5 -4t74.5 -4q32 0 67 4t37 4q19 0 29 -6t10 -16q0 -12 -28 -22q-18 -6 -27 -11q-22 -12 -41.5 -42.5t-44.5 -90.5l-262 -637l-5 -12q-265 -642 -360 -642
q-25 0 -40 17t-15 45q0 62 86 101q36 17 49 28q19 16 42 57t67 138q5 11 14 31q63 137 63 175q0 13 -5 30.5t-17 47.5l-268 628q-2 5 -5 12q-39 91 -79 110q-9 4 -22 7.5t-16 4.5q-21 4 -28.5 10t-7.5 17q0 8 14 15t35 7q2 0 55.5 -5t104.5 -5t120 5t87 5t30.5 -7t12.5 -17
q0 -16 -46 -23q-10 -1 -16 -2q-40 -7 -56 -20.5t-16 -38.5q1 -13 4.5 -27.5t10.5 -32.5z" />
    <glyph glyph-name="z" unicode="z" horiz-adv-x="903" 
d="M293 45h98q199 0 262.5 12t85.5 43q19 25 35 76t35 51q10 0 15 -8.5t5 -25.5q0 -20 -6 -65.5t-6 -70.5v-18q0 -20 -6.5 -29.5t-19.5 -9.5h-699q-9 0 -13.5 3.5t-4.5 10.5q0 10 12 28q1 2 2 3l518 811h-217q-98 0 -138 -17t-63 -63q-8 -17 -16 -48q-11 -40 -29 -40
q-12 0 -17 6.5t-5 22.5q0 116 10.5 150t56.5 34h564q36 0 51.5 -2t15.5 -6q0 -7 -1.5 -12.5t-4.5 -10.5z" />
    <glyph glyph-name="braceleft" unicode="{" 
d="M846 1516v-51q-142 -2 -194 -55.5t-52 -209.5v-143q0 -226 -61 -308.5t-226 -113.5q165 -31 226 -113.5t61 -308.5v-143q0 -156 51.5 -208.5t194.5 -54.5v-51h-10q-217 0 -298 73.5t-81 272.5v213q0 158 -59 218t-222 73v60q165 15 223 74t58 216v213q0 200 81 273.5
t298 73.5h10z" />
    <glyph glyph-name="bar" unicode="|" 
d="M449 1565h126v-2048h-126v2048z" />
    <glyph glyph-name="braceright" unicode="}" 
d="M178 1516h10q216 0 297.5 -74t81.5 -273v-213q0 -157 58 -216t223 -74v-60q-163 -13 -222 -73t-59 -218v-213q0 -198 -81.5 -272t-297.5 -74h-10v51q143 2 194.5 54.5t51.5 208.5v143q0 226 61 308.5t226 113.5q-165 31 -226 113.5t-61 308.5v143q0 156 -52 209.5
t-194 55.5v51z" />
    <glyph glyph-name="asciitilde" unicode="~" horiz-adv-x="1706" 
d="M1530 758v-131q-101 -72 -197.5 -108t-189.5 -36q-43 0 -90.5 9t-100.5 26q-30 10 -87 31q-202 72 -302 72q-83 0 -173.5 -37.5t-211.5 -122.5v133q105 73 202 109t185 36q56 0 116.5 -12.5t174.5 -52.5q12 -4 35 -13q164 -59 254 -59q85 0 176 36.5t209 119.5z" />
    <glyph glyph-name="Euro" horiz-adv-x="1124" 
d="M1034 51q0 -12 -4.5 -17t-15.5 -5q-20 0 -29 38.5t-29 38.5q-10 0 -45 -30q-123 -109 -254 -109q-211 0 -347 157t-163 433h-137l33 74h100v51q0 11 0.5 26t1.5 31h-145l33 74h121q42 275 179 431.5t335 156.5q120 0 223 -86q25 -21 33 -21q17 0 31 39t30 39q11 0 16 -8
t7 -37l12 -301v-16q0 -26 -3 -32.5t-11 -6.5q-23 0 -37 74q-3 16 -4 24q-27 138 -102 214.5t-183 76.5q-137 0 -223 -141.5t-109 -405.5h479l-32 -74h-451q0 -18 -1 -54t-1 -54h403l-32 -74h-367q20 -256 109 -397.5t231 -141.5q92 0 165 68.5t105 185.5q16 56 27 135
q10 72 31 72q11 0 15.5 -4.5t4.5 -15.5v-408z" />
    <glyph glyph-name="Euro" unicode="&#x20ac;" horiz-adv-x="1124" 
d="M1034 51q0 -12 -4.5 -17t-15.5 -5q-20 0 -29 38.5t-29 38.5q-10 0 -45 -30q-123 -109 -254 -109q-211 0 -347 157t-163 433h-137l33 74h100v51q0 11 0.5 26t1.5 31h-145l33 74h121q42 275 179 431.5t335 156.5q120 0 223 -86q25 -21 33 -21q17 0 31 39t30 39q11 0 16 -8
t7 -37l12 -301v-16q0 -26 -3 -32.5t-11 -6.5q-23 0 -37 74q-3 16 -4 24q-27 138 -102 214.5t-183 76.5q-137 0 -223 -141.5t-109 -405.5h479l-32 -74h-451q0 -18 -1 -54t-1 -54h403l-32 -74h-367q20 -256 109 -397.5t231 -141.5q92 0 165 68.5t105 185.5q16 56 27 135
q10 72 31 72q11 0 15.5 -4.5t4.5 -15.5v-408z" />
    <glyph glyph-name="nonbreakingspace" unicode="&#xa0;" horiz-adv-x="1124" 
 />
    <glyph glyph-name="exclamdown" unicode="&#xa1;" horiz-adv-x="616" 
d="M332 1042v-157q0 -235 43 -484.5t43 -269.5q0 -71 -29.5 -111t-81.5 -40q-51 0 -79.5 38.5t-28.5 108.5q0 41 42 293.5t42 466.5v155h49zM424 1288q0 -48 -34.5 -82.5t-82.5 -34.5t-81 34t-33 83q0 48 33 81.5t81 33.5q49 0 83 -33.5t34 -81.5z" />
    <glyph glyph-name="cent" unicode="&#xa2;" horiz-adv-x="1124" 
d="M461 180l278 719q-21 6 -34 8t-25 2q-141 0 -221 -116t-80 -324q0 -99 19.5 -167t62.5 -122zM512 127q43 -33 86.5 -49.5t91.5 -16.5q54 0 98 13.5t72 38.5q13 11 33.5 38t36.5 27q12 0 19 -7t7 -19q0 -60 -88.5 -106t-218.5 -46q-49 0 -93.5 6.5t-84.5 20.5l-102 -265
h-72l115 291q-118 56 -177 157.5t-59 248.5q0 207 144.5 350t353.5 143q17 0 38.5 -1.5t46.5 -4.5l101 250h70l-103 -262q67 -22 98 -50t31 -65q0 -31 -17.5 -48t-49.5 -17q-50 0 -80 73q-8 19 -12 29z" />
    <glyph glyph-name="sterling" unicode="&#xa3;" horiz-adv-x="1124" 
d="M440 141q-43 35 -96.5 54.5t-103.5 19.5q-52 0 -82.5 -27t-30.5 -73q0 -47 29 -73t84 -26q54 0 111.5 35.5t88.5 89.5zM487 109q-40 -67 -106.5 -104.5t-142.5 -37.5q-78 0 -121 37t-43 102q0 75 50 120.5t132 45.5q51 0 102 -14t103 -42q3 29 4.5 54t1.5 47
q0 81 -18 171t-56 194h-262v74h240q-23 82 -34 146t-11 116q0 183 100.5 285t282.5 102q133 0 226 -61.5t93 -145.5q0 -34 -23 -57t-55 -23q-39 0 -60.5 23t-33.5 78q-15 77 -56.5 111t-119.5 34q-88 0 -142.5 -64t-54.5 -167q0 -57 16.5 -141.5t57.5 -235.5h332v-74h-320
q12 -62 18.5 -109.5t6.5 -76.5q0 -85 -16 -161.5t-48 -146.5q75 -28 145.5 -42.5t139.5 -14.5q70 0 118 17.5t87 56.5q9 8 21.5 30.5t21.5 22.5q11 0 15.5 -5t4.5 -15q0 -115 -73 -192t-185 -77q-108 0 -271 100q-15 9 -22 13z" />
    <glyph glyph-name="currency" unicode="&#xa4;" horiz-adv-x="1124" 
d="M1034 51q0 -12 -4.5 -17t-15.5 -5q-20 0 -29 38.5t-29 38.5q-10 0 -45 -30q-123 -109 -254 -109q-211 0 -347 157t-163 433h-137l33 74h100v51q0 11 0.5 26t1.5 31h-145l33 74h121q42 275 179 431.5t335 156.5q120 0 223 -86q25 -21 33 -21q17 0 31 39t30 39q11 0 16 -8
t7 -37l12 -301v-16q0 -26 -3 -32.5t-11 -6.5q-23 0 -37 74q-3 16 -4 24q-27 138 -102 214.5t-183 76.5q-137 0 -223 -141.5t-109 -405.5h479l-32 -74h-451q0 -18 -1 -54t-1 -54h403l-32 -74h-367q20 -256 109 -397.5t231 -141.5q92 0 165 68.5t105 185.5q16 56 27 135
q10 72 31 72q11 0 15.5 -4.5t4.5 -15.5v-408z" />
    <glyph glyph-name="yen" unicode="&#xa5;" horiz-adv-x="1280" 
d="M885 834h344v-62h-377l-115 -186h492v-62h-516v-295q0 -80 14.5 -113.5t53.5 -52.5q14 -7 33 -11.5t44 -6.5q2 0 6 -1q49 -6 49 -26q0 -10 -10 -16t-29 -6q-4 0 -25 2q-110 8 -220 8q-114 0 -228 -9q-20 -1 -24 -1q-18 0 -27.5 6t-9.5 16q0 19 50 26q4 1 5 1
q26 2 44.5 6.5t34.5 12.5q36 17 50.5 49.5t14.5 115.5v295h-473v62h448l-104 186h-344v62h313l-193 348l-5 10q-65 117 -124 127q-8 1 -25 4q-50 7 -50 29q0 12 10.5 17t34.5 5q13 0 22 -0.5t17 -1.5q5 0 17 -1q74 -5 124 -5q43 0 86 2t92 6q18 0 46 1t38 1q29 0 38 -4.5
t9 -17.5q0 -19 -35 -20q-23 0 -37 -3q-41 -7 -62.5 -27t-21.5 -51q0 -18 12.5 -53.5t33.5 -75.5l274 -530q40 66 111 183q233 382 233 462q0 35 -14 54.5t-43 25.5q-14 3 -37 7q-49 9 -49 26q0 9 11 14.5t32 5.5q8 0 14.5 -0.5t14.5 -1.5q28 -2 74 -3t99 -1q39 0 73.5 1.5
t65.5 4.5q3 1 6.5 1.5t6.5 0.5q11 0 18.5 -4.5t8.5 -11.5q0 -16 -38 -26l-1 -1q-8 0 -16 -1.5t-17 -4.5q-36 -12 -69 -46.5t-79 -111.5z" />
    <glyph glyph-name="brokenbar" unicode="&#xa6;" 
d="M449 408h126v-758h-126v758zM449 1432h126v-758h-126v758z" />
    <glyph glyph-name="section" unicode="&#xa7;" 
d="M244 657q0 -45 23 -90.5t71 -95.5q84 -87 154 -131.5t122 -44.5q69 0 115.5 42t46.5 103q0 44 -23 87.5t-81 103.5q-90 91 -155.5 132.5t-119.5 41.5q-66 0 -109.5 -42t-43.5 -106zM575 262q112 -84 159.5 -155t47.5 -152q0 -118 -78.5 -191t-205.5 -73q-119 0 -203 62.5
t-84 144.5q0 50 28.5 81t73.5 31q43 0 68 -22.5t25 -61.5q0 -37 -36 -73.5t-36 -40.5q0 -31 46.5 -54.5t115.5 -23.5q83 0 132.5 44.5t49.5 119.5q0 52 -32.5 101.5t-115.5 117.5l-198 164q-84 69 -132 153.5t-48 161.5q0 107 65.5 175.5t169.5 68.5q13 0 28 -2t27 -4
q-113 89 -159.5 163t-46.5 158q0 110 76.5 179t201.5 69q116 0 190 -57t74 -142q0 -49 -27.5 -77.5t-76.5 -28.5q-38 0 -61 22.5t-23 59.5q0 34 32.5 70t32.5 50q0 25 -40.5 41.5t-104.5 16.5q-76 0 -123 -42.5t-47 -111.5q0 -53 29.5 -98.5t140.5 -136.5l141 -117
q129 -108 176 -180.5t47 -149.5q0 -121 -67 -192.5t-180 -71.5q-15 0 -47 4h-5z" />
    <glyph glyph-name="dieresis" unicode="&#xa8;" 
d="M215 1190q0 40 29.5 70t68.5 30q40 0 70.5 -30t30.5 -70q0 -43 -29.5 -71.5t-71.5 -28.5q-41 0 -69.5 28.5t-28.5 71.5zM596 1190q0 40 30 70t70 30t69.5 -30t29.5 -70q0 -43 -28.5 -71.5t-70.5 -28.5t-71 28.5t-29 71.5z" />
    <glyph glyph-name="copyright" unicode="&#xa9;" horiz-adv-x="1683" 
d="M1120 1096h35l2 -314h-41q-34 137 -104 206t-176 69q-123 0 -185.5 -94.5t-62.5 -278.5q0 -189 67 -285t199 -96q86 0 156 43t127 131l34 -24q-58 -105 -143 -157t-199 -52q-167 0 -285 123t-118 297q0 186 116 312t285 126q74 0 148 -34t82 -34q27 0 42 14.5t21 47.5z
M844 1303q-123 0 -237.5 -48.5t-200.5 -136.5q-88 -89 -134.5 -202.5t-46.5 -237.5q0 -125 47 -238.5t136 -201.5q88 -89 198.5 -135t235.5 -46q126 0 236.5 46t197.5 135q88 90 135 203t47 237t-47.5 240.5t-132.5 201.5q-86 87 -200.5 135t-233.5 48zM844 1382
q137 0 266.5 -53.5t226.5 -150.5q98 -97 152.5 -228.5t54.5 -271.5t-53 -268t-154 -230q-98 -100 -225 -152.5t-270 -52.5t-269 52.5t-227 152.5t-154 227t-53 271q0 140 53 268.5t152 229.5q98 99 228 152.5t272 53.5z" />
    <glyph glyph-name="ordfeminine" unicode="&#xaa;" horiz-adv-x="760" 
d="M96 594h598v-102h-598v102zM471 1104q-144 -55 -204 -104.5t-60 -108.5q0 -51 25.5 -78t72.5 -27q59 0 112.5 39.5t53.5 83.5v195zM618 1231v-369q0 -33 11.5 -51t32.5 -18q12 0 31.5 13t29.5 13q11 0 16.5 -5t5.5 -15q0 -22 -42 -50t-93 -28t-88.5 25t-50.5 67
q-54 -45 -121 -68.5t-139 -23.5q-76 0 -121 38.5t-45 102.5q0 78 81.5 136t344.5 147v96q0 66 -32 93.5t-107 27.5q-59 0 -89 -19.5t-36 -61.5q-5 -36 -22.5 -51.5t-51.5 -15.5q-28 0 -45.5 17.5t-17.5 44.5q0 55 76 91t200 36q138 0 205 -42.5t67 -129.5z" />
    <glyph glyph-name="guillemotleft" unicode="&#xab;" horiz-adv-x="885" 
d="M571 463q93 -110 150 -194t57 -107q0 -8 -3 -11.5t-11 -3.5q-9 0 -119 109.5t-227 206.5q119 96 228.5 205.5t117.5 109.5t11 -3t3 -11q0 -23 -57 -107.5t-150 -193.5zM256 463q92 -110 149.5 -194t57.5 -107q0 -8 -3.5 -11.5t-10.5 -3.5q-10 0 -120 109.5t-227 206.5
q119 96 228.5 205.5t118.5 109.5q7 0 10.5 -3t3.5 -11q0 -23 -57.5 -107.5t-149.5 -193.5z" />
    <glyph glyph-name="logicalnot" unicode="&#xac;" horiz-adv-x="1706" 
d="M254 858h1198v-502h-115v385h-1083v117z" />
    <glyph glyph-name="sfthyphen" unicode="&#xad;" horiz-adv-x="680" 
d="M94 387v139h496v-139h-496z" />
    <glyph glyph-name="registered" unicode="&#xae;" horiz-adv-x="1683" 
d="M729 719q16 -1 32 -1.5t34 -0.5q112 0 173.5 45.5t61.5 128.5q0 73 -53 117.5t-143 44.5q-52 0 -78.5 -18.5t-26.5 -53.5v-262zM469 1092h393q147 0 232.5 -54.5t85.5 -146.5q0 -76 -69.5 -124t-217.5 -75q93 -29 142 -77.5t71 -133.5q6 -22 11 -63q13 -88 59 -88
q32 0 49.5 34t17.5 99h43v-12q0 -88 -40.5 -133.5t-119.5 -45.5q-46 0 -78.5 17t-48.5 49q-18 40 -21 113.5t-9 95.5q-20 68 -70.5 100.5t-136.5 32.5h-33v-248q0 -54 26.5 -75.5t98.5 -25.5v-40h-385v40q72 3 99.5 24.5t27.5 76.5v516q0 55 -26 76t-101 25v43zM844 1303
q-122 0 -236 -48t-202 -137t-134.5 -202.5t-46.5 -237.5q0 -127 46.5 -239t136.5 -201q88 -89 198.5 -135t235.5 -46q126 0 236.5 46t197.5 135q88 90 135 203t47 237t-47.5 241.5t-132.5 200.5q-86 87 -200.5 135t-233.5 48zM844 1382q138 0 268.5 -54t228.5 -152
q97 -97 150 -228t53 -272q0 -137 -55.5 -267.5t-157.5 -232.5q-99 -99 -224.5 -150t-270.5 -51q-137 0 -263 52.5t-227 152.5t-154 227t-53 271q0 140 53 268.5t152 229.5q98 99 228 152.5t272 53.5z" />
    <glyph glyph-name="macron" unicode="&#xaf;" 
d="M246 1126v127h516v-127h-516z" />
    <glyph glyph-name="degree" unicode="&#xb0;" horiz-adv-x="674" 
d="M338 1372q-84 0 -143.5 -58.5t-59.5 -142.5t59.5 -143t143.5 -59t142.5 59t58.5 143t-58.5 142.5t-142.5 58.5zM338 1454q117 0 200 -83t83 -200q0 -116 -83.5 -199t-201.5 -83t-199.5 82t-81.5 200q0 119 82.5 201t200.5 82z" />
    <glyph glyph-name="plusminus" unicode="&#xb1;" horiz-adv-x="1706" 
d="M254 158h1198v-117h-1198v117zM795 1180h118v-344h539v-117h-539v-344h-118v344h-541v117h541v344z" />
    <glyph glyph-name="twosuperior" unicode="&#xb2;" horiz-adv-x="741" 
d="M190 651q53 -2 104 -3t114 -1q57 0 122 3t72 3q17 0 24 -3.5t7 -12.5q0 -5 -0.5 -7.5t-1.5 -4.5l-31 -140q-2 -6 -4.5 -9t-5.5 -3q-8 0 -11.5 3.5t-3.5 10.5q0 4 1.5 12t1.5 13q0 23 -10 29t-54 6h-401q-5 0 -14.5 -2t-14.5 -2q-8 0 -11 1.5t-3 4.5q0 17 46.5 74
t121.5 129q22 22 91 83t103 103q44 53 65 110t21 123q0 89 -50 140t-138 51q-68 0 -114 -41.5t-46 -101.5q0 -57 33 -92t86 -35q21 0 45 7q9 3 10 3q4 0 7 -1.5t3 -4.5q0 -18 -40 -39t-89 -21q-60 0 -102.5 42.5t-42.5 103.5q0 90 77 149.5t199 59.5q134 0 215.5 -65.5
t81.5 -172.5q0 -44 -13 -83t-38 -71q-37 -43 -126 -107q-26 -19 -38 -28l-33 -24q-187 -135 -215 -189z" />
    <glyph glyph-name="threesuperior" unicode="&#xb3;" horiz-adv-x="741" 
d="M385 1016h14q116 0 183 -53t67 -144q0 -57 -22.5 -103.5t-71.5 -90.5q-56 -50 -121 -74.5t-141 -24.5q-92 0 -153.5 35.5t-61.5 85.5q0 27 16.5 41t46.5 14q23 0 36 -11.5t30 -55.5q16 -43 41.5 -60.5t68.5 -17.5q98 0 147.5 59.5t49.5 176.5q0 100 -34.5 149t-104.5 49
q-26 0 -48.5 -12.5t-54.5 -48.5q-17 -22 -25.5 -28.5t-17.5 -6.5q-11 0 -19.5 7t-8.5 16q0 21 51 48q22 12 35 19q101 56 138.5 109t37.5 133q0 65 -33 100t-94 35q-63 0 -103 -35t-40 -90q0 -33 25 -58.5t58 -25.5q17 0 35 6t21 6q4 0 6 -1.5t2 -4.5q0 -14 -35 -33.5
t-72 -19.5q-53 0 -87.5 30t-34.5 76q0 68 76.5 123.5t181.5 55.5q97 0 158 -43.5t61 -110.5q0 -63 -48.5 -116t-154.5 -105z" />
    <glyph glyph-name="acute" unicode="&#xb4;" 
d="M328 1036l288 299q36 36 56.5 48t40.5 12q33 0 53 -20t20 -52q0 -21 -15 -41.5t-46 -40.5l-330 -205h-67z" />
    <glyph glyph-name="mu" unicode="&#xb5;" horiz-adv-x="1120" 
d="M164 193q-27 -136 -52 -339q-34 -272 -112 -272q-37 0 -58.5 23.5t-21.5 64.5q0 40 64.5 273.5t105.5 427.5l109 514h147l-104 -492q-6 -30 -9.5 -58.5t-3.5 -53.5q0 -83 42 -129t118 -46q98 0 163.5 68.5t94.5 200.5l111 510h149l-114 -531q-13 -59 -17 -87.5t-4 -49.5
q0 -48 26 -78t66 -30q35 0 65.5 18t51.5 51t41 93.5t39 60.5q12 0 19 -10t7 -27q0 -25 -11 -66.5t-29 -83.5q-38 -82 -95 -122.5t-135 -40.5q-68 0 -108.5 51t-40.5 139v23q-46 -110 -116 -164t-165 -54q-96 0 -152.5 54.5t-70.5 161.5z" />
    <glyph glyph-name="paragraph" unicode="&#xb6;" 
d="M948 1479v-78h-125v-1401h-94v1401h-182v-1401h-96v782q-173 8 -274 102.5t-101 245.5q0 157 107.5 253t285.5 96h479z" />
    <glyph glyph-name="glyph122" unicode="&#xb7;" horiz-adv-x="561" 
d="M166 723q0 48 33.5 81.5t81.5 33.5q47 0 79.5 -33.5t32.5 -81.5q0 -49 -32 -82t-80 -33q-49 0 -82 33t-33 82z" />
    <glyph glyph-name="cedilla" unicode="&#xb8;" 
d="M244 -371l35 78q60 -34 118.5 -53t104.5 -19q64 0 93.5 22.5t29.5 70.5q0 42 -30.5 66t-84.5 24q-13 0 -28.5 -1.5t-32.5 -4.5v188h63v-112q16 2 31.5 3.5t29.5 2.5q87 0 135 -43.5t48 -120.5q0 -82 -58.5 -129t-160.5 -47q-55 0 -122 17t-171 58z" />
    <glyph glyph-name="onesuperior" unicode="&#xb9;" horiz-adv-x="741" 
d="M322 662v575q0 34 -11 52.5t-33 21.5q-22 2 -33.5 3.5t-19.5 2.5q-24 0 -34.5 3t-10.5 9q0 12 48 16q27 2 47 5q80 12 149 43q14 6 16 6q3 0 4.5 -5t1.5 -16v-14q-6 -69 -6 -137v-561q0 -48 14 -67.5t50 -25.5q9 -2 22 -3.5t17 -2.5q23 -2 29.5 -5.5t7.5 -10.5
q-1 -6 -7.5 -8t-23.5 -2h-15q-79 4 -161 4q-69 0 -144 -4h-18q-16 0 -22 2t-7 8q0 7 7 10.5t30 5.5q3 1 16.5 2.5t23.5 4.5q34 5 48.5 25t14.5 63z" />
    <glyph glyph-name="ordmasculine" unicode="&#xba;" horiz-adv-x="848" 
d="M424 762q95 0 152 81t57 220q0 138 -57 219.5t-152 81.5t-151 -81t-56 -220t56 -220t151 -81zM801 1063q0 -142 -110.5 -242t-266.5 -100q-157 0 -266 99.5t-109 242.5q0 142 109.5 241t265.5 99t266.5 -99t110.5 -241zM102 594h643v-102h-643v102z" />
    <glyph glyph-name="guillemotright" unicode="&#xbb;" horiz-adv-x="885" 
d="M625 463q-93 112 -150 195.5t-57 105.5q0 8 3 11t11 3q9 0 119 -109t227 -206q-119 -97 -228.5 -206.5t-117.5 -109.5t-11 3.5t-3 11.5q0 22 57 105.5t150 195.5zM309 463q-93 112 -150 195.5t-57 105.5q0 8 3.5 11t11.5 3q9 0 119 -109t227 -206q-119 -97 -228.5 -206.5
t-117.5 -109.5t-11.5 3.5t-3.5 11.5q0 22 57 105.5t150 195.5z" />
    <glyph glyph-name="onequarter" unicode="&#xbc;" horiz-adv-x="1757" 
d="M1448 293v354l-318 -354h318zM1444 252h-342q-11 0 -18 5.5t-7 14.5q0 6 6 15.5t19 23.5l414 462q9 10 16 15.5t12 6.5q8 -1 11 -8.5t4 -24.5v-469h127q15 0 25.5 -6t10.5 -15t-9.5 -14.5t-24.5 -5.5h-132v-150q0 -36 11 -51.5t37 -19.5q10 -2 21.5 -3t29.5 -1q2 -1 5 -1
q36 -6 36 -14q0 -7 -8 -10.5t-25 -3.5q-5 0 -58.5 2t-101.5 2q-57 0 -117 -3t-61 -3q-12 0 -18 3.5t-7 10.5q0 11 39 15q8 1 13 2q11 0 17.5 0.5t11.5 1.5q32 3 47.5 19.5t15.5 49.5v154zM367 -33l940 1436h84l-938 -1436h-86zM307 711v534q0 34 -9.5 50t-31.5 20
q-3 0 -21.5 2.5t-27.5 3.5q-25 0 -35 3t-10 9q0 10 42 14q28 2 49 5q79 10 144 40q11 5 13 5q3 0 5.5 -5.5t2.5 -13.5q0 -2 -1 -14q-5 -63 -5 -127v-524q0 -44 13 -62t46 -24q2 -1 6 -1q22 -3 31 -3q3 -1 9 -2q26 -5 26 -15q0 -5 -6.5 -7.5t-22.5 -2.5q-2 0 -15 1
q-73 3 -153 3q-66 0 -134 -3q-16 -1 -19 -1q-15 0 -21 2.5t-6 7.5q1 11 26 15q6 1 9 2q9 0 31 3q4 0 6 1q33 6 46 24.5t13 59.5z" />
    <glyph glyph-name="onehalf" unicode="&#xbd;" horiz-adv-x="1757" 
d="M1233 98q50 -2 98 -3t109 -1q55 0 117 2t69 2q15 0 22 -3t7 -11q0 -4 -0.5 -6.5t-1.5 -5.5l-29 -129q-2 -7 -4 -9.5t-6 -3.5q-7 0 -11 4t-4 11q0 3 1.5 10.5t1.5 11.5q0 22 -9.5 27.5t-52.5 5.5h-381q-5 0 -15 -2t-14 -2q-5 0 -8.5 1.5t-3.5 4.5q0 16 44 70t114 121
q17 15 85 73.5t101 98.5q42 49 62 102t20 115q0 83 -47 130.5t-131 47.5q-65 0 -109.5 -38.5t-44.5 -94.5q0 -52 32 -85.5t81 -33.5q21 0 46 8q7 2 9 2q4 0 6 -1.5t3 -4.5q0 -16 -38.5 -35.5t-84.5 -19.5q-58 0 -99 39.5t-41 97.5q0 84 74 138t191 54q127 0 205.5 -60.5
t78.5 -158.5q0 -42 -13 -78.5t-38 -64.5q-36 -45 -129 -108q-18 -13 -27 -19l-33 -24q-176 -125 -202 -175zM367 -33l940 1436h84l-938 -1436h-86zM307 711v534q0 34 -9.5 50t-31.5 20q-3 0 -21.5 2.5t-27.5 3.5q-25 0 -35 3t-10 9q0 10 42 14q28 2 49 5q79 10 144 40
q11 5 13 5q3 0 5.5 -5.5t2.5 -13.5q0 -2 -1 -14q-5 -63 -5 -127v-524q0 -44 13 -62t46 -24q2 -1 6 -1q22 -3 31 -3q3 -1 9 -2q26 -5 26 -15q0 -5 -6.5 -7.5t-22.5 -2.5q-2 0 -15 1q-73 3 -153 3q-66 0 -134 -3q-16 -1 -19 -1q-15 0 -21 2.5t-6 7.5q1 11 26 15q6 1 9 2
q9 0 31 3q4 0 6 1q33 6 46 24.5t13 59.5z" />
    <glyph glyph-name="threequarters" unicode="&#xbe;" horiz-adv-x="1759" 
d="M1448 293v354l-318 -354h318zM1444 252h-342q-11 0 -18 5.5t-7 14.5q0 6 6 15.5t19 23.5l414 462q9 10 16 15.5t12 6.5q8 -1 11 -8.5t4 -24.5v-469h127q15 0 25.5 -6t10.5 -15t-9.5 -14.5t-24.5 -5.5h-132v-150q0 -36 11 -51.5t37 -19.5q10 -2 21.5 -3t29.5 -1q2 -1 5 -1
q36 -6 36 -14q0 -7 -8 -10.5t-25 -3.5q-5 0 -58.5 2t-101.5 2q-57 0 -117 -3t-61 -3q-12 0 -18 3.5t-7 10.5q0 11 39 15q8 1 13 2q11 0 17.5 0.5t11.5 1.5q32 3 47.5 19.5t15.5 49.5v154zM367 -33l940 1436h84l-938 -1436h-86zM369 1040h12q110 0 175 -50t65 -134
q0 -52 -22 -96t-69 -84q-54 -47 -116 -69.5t-133 -22.5q-88 0 -147.5 33t-59.5 79q0 25 16 38.5t45 13.5q22 0 35 -12t27 -52q17 -41 41 -57.5t65 -16.5q93 0 141 56.5t48 164.5q0 93 -33.5 139t-100.5 46q-26 0 -48.5 -12.5t-49.5 -43.5q-2 -2 -4 -5q-24 -29 -37 -29
q-11 0 -20 7t-9 15q0 21 53 46l32 16q97 55 131 104t34 123q0 61 -30.5 93t-87.5 32q-61 0 -99.5 -32t-38.5 -83q0 -31 24 -54.5t56 -23.5q16 0 33 5.5t18 5.5q5 0 8 -2t3 -4q0 -13 -34.5 -31.5t-70.5 -18.5q-50 0 -82.5 28.5t-32.5 72.5q0 62 73 113t171 51q95 0 153 -40
t58 -102q0 -58 -46 -107.5t-146 -99.5z" />
    <glyph glyph-name="questiondown" unicode="&#xbf;" horiz-adv-x="901" 
d="M713 1286q0 -48 -34.5 -82.5t-82.5 -34.5t-81.5 34t-33.5 83q0 50 33 83.5t82 33.5q48 0 82.5 -34t34.5 -83zM631 1061v-408h-131q-136 0 -205.5 -58t-69.5 -173q0 -130 72 -212.5t184 -82.5q36 0 96.5 10t84.5 10q53 0 80.5 -21t27.5 -63q0 -38 -35.5 -63t-93.5 -25
q-73 0 -154 31t-139 82q-86 75 -135 185.5t-49 228.5q0 157 101.5 241t291.5 84h25v234h49z" />
    <glyph glyph-name="Agrave" unicode="&#xc0;" horiz-adv-x="1356" 
d="M354 500l-90 -226q-13 -32 -19.5 -62.5t-6.5 -53.5q0 -39 16 -64t51 -39q20 -7 30 -9.5t17 -2.5q26 -4 34.5 -10.5t8.5 -18.5q0 -8 -10 -13t-29 -5q-5 0 -68.5 6t-121.5 6q-44 0 -102 -4t-70 -4q-25 0 -38 5.5t-13 17.5q0 9 8.5 14.5t33.5 9.5q27 5 45.5 11.5t35.5 15.5
q35 17 66.5 64t72.5 145l457 1089q8 21 16.5 30t19.5 9t20 -9.5t19 -33.5l453 -1141q30 -75 58.5 -112t64.5 -52q13 -6 30 -10t37 -6q29 -4 38 -10t9 -17q0 -9 -11 -14.5t-30 -5.5q-24 0 -111 4t-149 4q-40 0 -122.5 -6t-124.5 -6q-26 0 -39.5 5.5t-14.5 16.5q0 9 12 15.5
t48 13.5q59 6 85.5 23t26.5 49q0 22 -8 58t-22 73l-95 250h-518zM377 559h475l-229 592zM873 1515h-66l-329 205q-33 21 -48.5 41t-15.5 41q0 31 21.5 51.5t54.5 20.5q20 0 40.5 -12t55.5 -48z" />
    <glyph glyph-name="Aacute" unicode="&#xc1;" horiz-adv-x="1356" 
d="M354 500l-90 -226q-13 -32 -19.5 -62.5t-6.5 -53.5q0 -39 16 -64t51 -39q20 -7 30 -9.5t17 -2.5q26 -4 34.5 -10.5t8.5 -18.5q0 -8 -10 -13t-29 -5q-5 0 -68.5 6t-121.5 6q-44 0 -102 -4t-70 -4q-25 0 -38 5.5t-13 17.5q0 9 8.5 14.5t33.5 9.5q27 5 45.5 11.5t35.5 15.5
q35 17 66.5 64t72.5 145l457 1089q8 21 16.5 30t19.5 9t20 -9.5t19 -33.5l453 -1141q30 -75 58.5 -112t64.5 -52q13 -6 30 -10t37 -6q29 -4 38 -10t9 -17q0 -9 -11 -14.5t-30 -5.5q-24 0 -111 4t-149 4q-40 0 -122.5 -6t-124.5 -6q-26 0 -39.5 5.5t-14.5 16.5q0 9 12 15.5
t48 13.5q59 6 85.5 23t26.5 49q0 22 -8 58t-22 73l-95 250h-518zM377 559h475l-229 592zM521 1515l288 299q36 36 56.5 48t40.5 12q33 0 53 -20t20 -52q0 -21 -15 -41.5t-46 -40.5l-330 -205h-67z" />
    <glyph glyph-name="Acircumflex" unicode="&#xc2;" horiz-adv-x="1356" 
d="M354 500l-90 -226q-13 -32 -19.5 -62.5t-6.5 -53.5q0 -39 16 -64t51 -39q20 -7 30 -9.5t17 -2.5q26 -4 34.5 -10.5t8.5 -18.5q0 -8 -10 -13t-29 -5q-5 0 -68.5 6t-121.5 6q-44 0 -102 -4t-70 -4q-25 0 -38 5.5t-13 17.5q0 9 8.5 14.5t33.5 9.5q27 5 45.5 11.5t35.5 15.5
q35 17 66.5 64t72.5 145l457 1089q8 21 16.5 30t19.5 9t20 -9.5t19 -33.5l453 -1141q30 -75 58.5 -112t64.5 -52q13 -6 30 -10t37 -6q29 -4 38 -10t9 -17q0 -9 -11 -14.5t-30 -5.5q-24 0 -111 4t-149 4q-40 0 -122.5 -6t-124.5 -6q-26 0 -39.5 5.5t-14.5 16.5q0 9 12 15.5
t48 13.5q59 6 85.5 23t26.5 49q0 22 -8 58t-22 73l-95 250h-518zM377 559h475l-229 592zM406 1515l233 348h117l232 -348h-58l-233 209l-232 -209h-59z" />
    <glyph glyph-name="Atilde" unicode="&#xc3;" horiz-adv-x="1356" 
d="M354 500l-90 -226q-13 -32 -19.5 -62.5t-6.5 -53.5q0 -39 16 -64t51 -39q20 -7 30 -9.5t17 -2.5q26 -4 34.5 -10.5t8.5 -18.5q0 -8 -10 -13t-29 -5q-5 0 -68.5 6t-121.5 6q-44 0 -102 -4t-70 -4q-25 0 -38 5.5t-13 17.5q0 9 8.5 14.5t33.5 9.5q27 5 45.5 11.5t35.5 15.5
q35 17 66.5 64t72.5 145l457 1089q8 21 16.5 30t19.5 9t20 -9.5t19 -33.5l453 -1141q30 -75 58.5 -112t64.5 -52q13 -6 30 -10t37 -6q29 -4 38 -10t9 -17q0 -9 -11 -14.5t-30 -5.5q-24 0 -111 4t-149 4q-40 0 -122.5 -6t-124.5 -6q-26 0 -39.5 5.5t-14.5 16.5q0 9 12 15.5
t48 13.5q59 6 85.5 23t26.5 49q0 22 -8 58t-22 73l-95 250h-518zM377 559h475l-229 592zM984 1812q-21 -103 -69 -154t-126 -51q-16 1 -33 3t-41 8l-106 26q-20 5 -30 6.5t-19 2.5q-40 0 -62.5 -21t-36.5 -72h-51q18 106 68.5 159.5t130.5 53.5q17 0 32.5 -2t30.5 -6
l108 -28q23 -6 36 -8.5t20 -2.5q36 0 59 20.5t37 65.5h52z" />
    <glyph glyph-name="Adieresis" unicode="&#xc4;" horiz-adv-x="1356" 
d="M354 500l-90 -226q-13 -32 -19.5 -62.5t-6.5 -53.5q0 -39 16 -64t51 -39q20 -7 30 -9.5t17 -2.5q26 -4 34.5 -10.5t8.5 -18.5q0 -8 -10 -13t-29 -5q-5 0 -68.5 6t-121.5 6q-44 0 -102 -4t-70 -4q-25 0 -38 5.5t-13 17.5q0 9 8.5 14.5t33.5 9.5q27 5 45.5 11.5t35.5 15.5
q35 17 66.5 64t72.5 145l457 1089q8 21 16.5 30t19.5 9t20 -9.5t19 -33.5l453 -1141q30 -75 58.5 -112t64.5 -52q13 -6 30 -10t37 -6q29 -4 38 -10t9 -17q0 -9 -11 -14.5t-30 -5.5q-24 0 -111 4t-149 4q-40 0 -122.5 -6t-124.5 -6q-26 0 -39.5 5.5t-14.5 16.5q0 9 12 15.5
t48 13.5q59 6 85.5 23t26.5 49q0 22 -8 58t-22 73l-95 250h-518zM377 559h475l-229 592zM408 1669q0 40 29.5 70t68.5 30q40 0 70.5 -30t30.5 -70q0 -43 -29.5 -71.5t-71.5 -28.5q-41 0 -69.5 28.5t-28.5 71.5zM789 1669q0 40 30 70t70 30t69.5 -30t29.5 -70
q0 -43 -28.5 -71.5t-70.5 -28.5t-71 28.5t-29 71.5z" />
    <glyph glyph-name="Aring" unicode="&#xc5;" horiz-adv-x="1356" 
d="M545 1720q0 -63 43 -106t106 -43t106.5 43t43.5 106q0 62 -44 106t-106 44t-105.5 -43.5t-43.5 -106.5zM455 1720q0 102 69 171t170 69q102 0 172 -69.5t70 -170.5t-70 -171t-172 -70q-101 0 -170 70t-69 171zM354 500l-90 -226q-13 -32 -19.5 -62.5t-6.5 -53.5
q0 -39 16 -64t52 -39q15 -6 45 -12q44 -9 44 -29q0 -8 -10 -13t-29 -5q-5 0 -68.5 6t-121.5 6q-44 0 -102 -4t-70 -4q-25 0 -38 5.5t-13 17.5q0 9 8.5 14.5t33.5 9.5q27 5 45.5 11.5t35.5 15.5q35 17 66.5 64t72.5 145l457 1089q8 21 16.5 30t19.5 9t20 -9.5t19 -33.5
l453 -1141q30 -75 58.5 -112t64.5 -52q13 -6 30 -10t37 -6q29 -4 38 -10t9 -17q0 -9 -11 -14.5t-30 -5.5q-24 0 -111 4t-149 4q-40 0 -122.5 -6t-124.5 -6q-26 0 -39.5 5.5t-14.5 16.5q1 10 13.5 16t46.5 11q60 8 86 25t26 49q0 22 -8 58t-22 73l-95 250h-518zM377 559h475
l-229 592z" />
    <glyph glyph-name="AE" unicode="&#xc6;" horiz-adv-x="1759" 
d="M934 352q0 -201 58 -250t243 -49q149 0 226 29t118 98q22 38 34 90t29 52q13 0 18 -11.5t5 -50.5q0 -32 -4 -101t-4 -106q0 -41 -11 -49t-57 -8q-9 0 -57 1q-338 9 -703 9q-124 0 -244 -9q-19 -1 -24 -1q-18 0 -27 5.5t-10 16.5q0 20 53 27h5h3q49 5 72 16
q37 20 51.5 52.5t14.5 115.5v463h-320l-233 -463q-2 -3 -6 -11q-27 -53 -27 -81q0 -37 22 -56.5t77 -29.5q5 -1 14 -3q53 -10 53 -28q0 -8 -12 -14t-33 -6q-15 0 -26 0.5t-21 1.5q-14 0 -61.5 2t-79.5 2q-33 0 -79 -2t-59 -2q-9 -1 -18.5 -1.5t-24.5 -0.5q-18 0 -28.5 5
t-10.5 13q0 11 9 17t37 10q3 1 10 3q26 7 41 13q41 18 73 52t66 100l528 1014q6 10 9.5 20t3.5 19q0 26 -17.5 38t-72.5 21q-12 2 -32 4q-52 7 -52 23q0 9 9.5 14.5t26.5 5.5q6 0 31 -1q173 -7 361 -7q60 0 229.5 3t278.5 3h45q83 0 102.5 -10t19.5 -39q0 -4 -3 -40.5
t-3 -70.5q0 -29 4.5 -64.5t4.5 -41.5q0 -18 -5.5 -25.5t-17.5 -7.5q-20 0 -28.5 54.5t-28.5 86.5q-38 60 -113.5 84.5t-261.5 24.5h-17q-112 0 -132.5 -17t-20.5 -94v-470q142 7 204 31.5t97 80.5q21 34 31.5 95t27.5 61q12 0 18.5 -9t6.5 -26q0 -13 -5 -86t-5 -133
q0 -83 6 -169.5t6 -90.5q0 -17 -6 -27t-17 -10q-13 0 -23 43.5t-24 72.5q-29 64 -92.5 91.5t-187.5 27.5h-37v-340zM426 739h297v512q0 7 -3.5 12.5t-8.5 6.5q-4 -1 -8 -6t-9 -15z" />
    <glyph glyph-name="Ccedilla" unicode="&#xc7;" horiz-adv-x="1462" 
d="M1343 51q0 -11 -5.5 -16.5t-16.5 -5.5q-15 0 -27 38.5t-41 38.5q-21 0 -66 -28q-19 -13 -30 -19q-82 -45 -172.5 -68.5t-187.5 -23.5q-141 0 -269.5 47.5t-220.5 132.5q-102 95 -154.5 223.5t-52.5 284.5q0 122 31 230.5t92 204.5q99 151 255 231t351 80q177 0 353 -88
q38 -19 47 -19q18 0 32.5 39t26.5 39t17.5 -10t7.5 -35l10 -301q0 -12 2 -24v-3q0 -13 -6 -20.5t-16 -7.5q-16 0 -26 39q-9 38 -20 63q-58 146 -160.5 216.5t-254.5 70.5q-226 0 -358 -186t-132 -508q0 -299 134.5 -473.5t363.5 -174.5q135 0 239 70.5t158 198.5
q24 56 45 124t35 68q7 0 11.5 -6t4.5 -14v-408zM533 -371l35 78q60 -34 118.5 -53t104.5 -19q64 0 93.5 22.5t29.5 70.5q0 42 -30.5 66t-84.5 24q-13 0 -28.5 -1.5t-32.5 -4.5v188h63v-112q16 2 31.5 3.5t29.5 2.5q87 0 135 -43.5t48 -120.5q0 -82 -58.5 -129t-160.5 -47
q-55 0 -122 17t-171 58z" />
    <glyph glyph-name="Egrave" unicode="&#xc8;" horiz-adv-x="1350" 
d="M524 352q0 -201 58.5 -250t242.5 -49q150 0 227 29t117 98q22 38 34 90t30 52q13 0 17.5 -11.5t4.5 -50.5q0 -32 -4 -101t-4 -106q0 -41 -11 -49t-56 -8q-10 0 -58 1q-338 9 -702 9q-125 0 -245 -9q-19 -1 -23 -1q-18 0 -27.5 5.5t-9.5 16.5q0 20 50 26q3 1 5 1
q25 2 44 6.5t33 11.5q38 18 52 50.5t14 115.5v922q0 79 -14.5 112t-50.5 50q-15 6 -34 10t-44 6q-2 0 -6 1q-49 7 -49 22q0 9 9.5 14.5t27.5 5.5q5 0 30 -1q146 -7 291 -7q68 0 236 3t270 3h45q83 0 103 -10t20 -39q0 -4 -3 -40.5t-3 -70.5q0 -29 4 -64.5t4 -41.5
q0 -18 -5.5 -25.5t-17.5 -7.5q-20 0 -28.5 54.5t-28.5 86.5q-37 60 -113 84.5t-262 24.5h-16q-113 0 -133.5 -17t-20.5 -94v-470q141 6 204 31t97 81q21 34 31.5 95t28.5 61q12 0 18 -9t6 -26q0 -13 -5 -86t-5 -133q0 -83 6 -169.5t6 -90.5q0 -17 -6 -27t-16 -10
q-14 0 -24 43.5t-23 72.5q-30 64 -93.5 91.5t-187.5 27.5h-37v-340zM879 1515h-66l-329 205q-33 21 -48.5 41t-15.5 41q0 31 21.5 51.5t54.5 20.5q20 0 40.5 -12t55.5 -48z" />
    <glyph glyph-name="Eacute" unicode="&#xc9;" horiz-adv-x="1350" 
d="M524 352q0 -201 58.5 -250t242.5 -49q150 0 227 29t117 98q22 38 34 90t30 52q13 0 17.5 -11.5t4.5 -50.5q0 -32 -4 -101t-4 -106q0 -41 -11 -49t-56 -8q-10 0 -58 1q-338 9 -702 9q-125 0 -245 -9q-19 -1 -23 -1q-18 0 -27.5 5.5t-9.5 16.5q0 20 50 26q3 1 5 1
q25 2 44 6.5t33 11.5q38 18 52 50.5t14 115.5v922q0 79 -14.5 112t-50.5 50q-15 6 -34 10t-44 6q-2 0 -6 1q-49 7 -49 22q0 9 9.5 14.5t27.5 5.5q5 0 30 -1q146 -7 291 -7q68 0 236 3t270 3h45q83 0 103 -10t20 -39q0 -4 -3 -40.5t-3 -70.5q0 -29 4 -64.5t4 -41.5
q0 -18 -5.5 -25.5t-17.5 -7.5q-20 0 -28.5 54.5t-28.5 86.5q-37 60 -113 84.5t-262 24.5h-16q-113 0 -133.5 -17t-20.5 -94v-470q141 6 204 31t97 81q21 34 31.5 95t28.5 61q12 0 18 -9t6 -26q0 -13 -5 -86t-5 -133q0 -83 6 -169.5t6 -90.5q0 -17 -6 -27t-16 -10
q-14 0 -24 43.5t-23 72.5q-30 64 -93.5 91.5t-187.5 27.5h-37v-340zM527 1515l288 299q36 36 56.5 48t40.5 12q33 0 53 -20t20 -52q0 -21 -15 -41.5t-46 -40.5l-330 -205h-67z" />
    <glyph glyph-name="Ecircumflex" unicode="&#xca;" horiz-adv-x="1350" 
d="M524 352q0 -201 58.5 -250t242.5 -49q150 0 227 29t117 98q22 38 34 90t30 52q13 0 17.5 -11.5t4.5 -50.5q0 -32 -4 -101t-4 -106q0 -41 -11 -49t-56 -8q-10 0 -58 1q-338 9 -702 9q-125 0 -245 -9q-19 -1 -23 -1q-18 0 -27.5 5.5t-9.5 16.5q0 20 50 26q3 1 5 1
q25 2 44 6.5t33 11.5q38 18 52 50.5t14 115.5v922q0 79 -14.5 112t-50.5 50q-15 6 -34 10t-44 6q-2 0 -6 1q-49 7 -49 22q0 9 9.5 14.5t27.5 5.5q5 0 30 -1q146 -7 291 -7q68 0 236 3t270 3h45q83 0 103 -10t20 -39q0 -4 -3 -40.5t-3 -70.5q0 -29 4 -64.5t4 -41.5
q0 -18 -5.5 -25.5t-17.5 -7.5q-20 0 -28.5 54.5t-28.5 86.5q-37 60 -113 84.5t-262 24.5h-16q-113 0 -133.5 -17t-20.5 -94v-470q141 6 204 31t97 81q21 34 31.5 95t28.5 61q12 0 18 -9t6 -26q0 -13 -5 -86t-5 -133q0 -83 6 -169.5t6 -90.5q0 -17 -6 -27t-16 -10
q-14 0 -24 43.5t-23 72.5q-30 64 -93.5 91.5t-187.5 27.5h-37v-340zM412 1515l233 348h117l232 -348h-58l-233 209l-232 -209h-59z" />
    <glyph glyph-name="Edieresis" unicode="&#xcb;" horiz-adv-x="1350" 
d="M524 352q0 -201 58.5 -250t242.5 -49q150 0 227 29t117 98q22 38 34 90t30 52q13 0 17.5 -11.5t4.5 -50.5q0 -32 -4 -101t-4 -106q0 -41 -11 -49t-56 -8q-10 0 -58 1q-338 9 -702 9q-125 0 -245 -9q-19 -1 -23 -1q-18 0 -27.5 5.5t-9.5 16.5q0 20 50 26q3 1 5 1
q25 2 44 6.5t33 11.5q38 18 52 50.5t14 115.5v922q0 79 -14.5 112t-50.5 50q-15 6 -34 10t-44 6q-2 0 -6 1q-49 7 -49 22q0 9 9.5 14.5t27.5 5.5q5 0 30 -1q146 -7 291 -7q68 0 236 3t270 3h45q83 0 103 -10t20 -39q0 -4 -3 -40.5t-3 -70.5q0 -29 4 -64.5t4 -41.5
q0 -18 -5.5 -25.5t-17.5 -7.5q-20 0 -28.5 54.5t-28.5 86.5q-37 60 -113 84.5t-262 24.5h-16q-113 0 -133.5 -17t-20.5 -94v-470q141 6 204 31t97 81q21 34 31.5 95t28.5 61q12 0 18 -9t6 -26q0 -13 -5 -86t-5 -133q0 -83 6 -169.5t6 -90.5q0 -17 -6 -27t-16 -10
q-14 0 -24 43.5t-23 72.5q-30 64 -93.5 91.5t-187.5 27.5h-37v-340zM414 1669q0 40 29.5 70t68.5 30q40 0 70.5 -30t30.5 -70q0 -43 -29.5 -71.5t-71.5 -28.5q-41 0 -69.5 28.5t-28.5 71.5zM795 1669q0 40 30 70t70 30t69.5 -30t29.5 -70q0 -43 -28.5 -71.5t-70.5 -28.5
t-71 28.5t-29 71.5z" />
    <glyph glyph-name="Igrave" unicode="&#xcc;" horiz-adv-x="899" 
d="M555 229q0 -78 16.5 -113t56.5 -52q19 -8 41 -12.5t50 -6.5q2 0 5 -1q50 -7 50 -26q0 -10 -10.5 -16t-28.5 -6q-5 0 -27 1q-130 9 -259 9q-130 0 -258 -9q-22 -1 -27 -1q-19 0 -30 6t-11 16q0 20 53 27h4h3q58 5 87 18q42 19 58 53t16 113v922q0 77 -15 110.5t-53 51.5
q-15 6 -36.5 10t-51.5 6q-2 0 -7 1q-58 7 -58 22q0 8 19 14t40 6q7 0 33 -1q121 -7 234 -7q122 0 245 7q20 1 25 1q21 0 38 -5t17 -13q0 -15 -48 -23q-7 -1 -11 -2q-22 0 -40.5 -2.5t-35.5 -7.5q-46 -13 -65 -49.5t-19 -118.5v-922zM619 1515h-66l-329 205q-33 21 -48.5 41
t-15.5 41q0 31 21.5 51.5t54.5 20.5q20 0 40.5 -12t55.5 -48z" />
    <glyph glyph-name="Iacute" unicode="&#xcd;" horiz-adv-x="899" 
d="M555 229q0 -78 16.5 -113t56.5 -52q19 -8 41 -12.5t50 -6.5q2 0 5 -1q50 -7 50 -26q0 -10 -10.5 -16t-28.5 -6q-5 0 -27 1q-130 9 -259 9q-130 0 -258 -9q-22 -1 -27 -1q-19 0 -30 6t-11 16q0 20 53 27h4h3q58 5 87 18q42 19 58 53t16 113v922q0 77 -15 110.5t-53 51.5
q-15 6 -36.5 10t-51.5 6q-2 0 -7 1q-58 7 -58 22q0 8 19 14t40 6q7 0 33 -1q121 -7 234 -7q122 0 245 7q20 1 25 1q21 0 38 -5t17 -13q0 -15 -48 -23q-7 -1 -11 -2q-22 0 -40.5 -2.5t-35.5 -7.5q-46 -13 -65 -49.5t-19 -118.5v-922zM267 1515l288 299q36 36 56.5 48t40.5 12
q33 0 53 -20t20 -52q0 -21 -15 -41.5t-46 -40.5l-330 -205h-67z" />
    <glyph glyph-name="Icircumflex" unicode="&#xce;" horiz-adv-x="899" 
d="M555 229q0 -78 16.5 -113t56.5 -52q19 -8 41 -12.5t50 -6.5q2 0 5 -1q50 -7 50 -26q0 -10 -10.5 -16t-28.5 -6q-5 0 -27 1q-130 9 -259 9q-130 0 -258 -9q-22 -1 -27 -1q-19 0 -30 6t-11 16q0 20 53 27h4h3q58 5 87 18q42 19 58 53t16 113v922q0 77 -15 110.5t-53 51.5
q-15 6 -36.5 10t-51.5 6q-2 0 -7 1q-58 7 -58 22q0 8 19 14t40 6q7 0 33 -1q121 -7 234 -7q122 0 245 7q20 1 25 1q21 0 38 -5t17 -13q0 -15 -48 -23q-7 -1 -11 -2q-22 0 -40.5 -2.5t-35.5 -7.5q-46 -13 -65 -49.5t-19 -118.5v-922zM152 1515l233 348h117l232 -348h-58
l-233 209l-232 -209h-59z" />
    <glyph glyph-name="Idieresis" unicode="&#xcf;" horiz-adv-x="899" 
d="M555 229q0 -78 16.5 -113t56.5 -52q19 -8 41 -12.5t50 -6.5q2 0 5 -1q50 -7 50 -26q0 -10 -10.5 -16t-28.5 -6q-5 0 -27 1q-130 9 -259 9q-130 0 -258 -9q-22 -1 -27 -1q-19 0 -30 6t-11 16q0 20 53 27h4h3q58 5 87 18q42 19 58 53t16 113v922q0 77 -15 110.5t-53 51.5
q-15 6 -36.5 10t-51.5 6q-2 0 -7 1q-58 7 -58 22q0 8 19 14t40 6q7 0 33 -1q121 -7 234 -7q122 0 245 7q20 1 25 1q21 0 38 -5t17 -13q0 -15 -48 -23q-7 -1 -11 -2q-22 0 -40.5 -2.5t-35.5 -7.5q-46 -13 -65 -49.5t-19 -118.5v-922zM154 1669q0 40 29.5 70t68.5 30
q40 0 70.5 -30t30.5 -70q0 -43 -29.5 -71.5t-71.5 -28.5q-41 0 -69.5 28.5t-28.5 71.5zM535 1669q0 40 30 70t70 30t69.5 -30t29.5 -70q0 -43 -28.5 -71.5t-70.5 -28.5t-71 28.5t-29 71.5z" />
    <glyph glyph-name="Eth" unicode="&#xd0;" horiz-adv-x="1579" 
d="M307 1159q0 80 -14.5 113.5t-50.5 50.5q-24 12 -80 16h-2q-2 1 -6 1q-45 7 -45 20q0 10 9.5 16t26.5 6q7 0 34 -2q122 -8 235 -8q47 0 141.5 5t142.5 5q369 0 575 -187t206 -521q0 -338 -185.5 -507t-556.5 -169q-79 0 -197.5 4t-156.5 4q-108 0 -216 -7q-19 -1 -24 -1
q-17 0 -25.5 5t-8.5 15q0 20 49 26q4 1 6 1q25 2 44 6.5t33 11.5q37 18 51.5 51t14.5 117v445h-307v65h307v418zM524 328q0 -159 55 -220t191 -61q242 0 352.5 140.5t110.5 449.5q0 363 -135.5 529.5t-429.5 166.5q-94 0 -119 -22.5t-25 -91.5v-478h346v-65h-346v-348z" />
    <glyph glyph-name="Ntilde" unicode="&#xd1;" horiz-adv-x="1686" 
d="M379 262q0 -94 19 -135.5t67 -67.5q14 -6 31 -10t36 -6h3q38 -7 38 -25q0 -11 -11 -16.5t-32 -5.5q-6 0 -31 2q-85 6 -159 6q-34 0 -90 -3t-78 -3q-23 0 -36 6t-13 16q0 11 12.5 17t36.5 6q5 1 16 4q41 10 60 21q39 22 54 61.5t15 134.5v957q-26 41 -55.5 64t-72.5 36
q-12 3 -36 7q-4 1 -6 1q-1 0 -4 1q-43 6 -43 24q0 10 13.5 15t42.5 5q9 0 58.5 -4t90.5 -4q10 0 30.5 1t31.5 1q5 1 24 3.5t31 2.5q20 0 37.5 -9.5t32.5 -29.5l839 -1050v841q0 113 -40 161t-132 48q-8 0 -15 6.5t-7 14.5q0 9 9 14.5t25 5.5q19 0 91 -5t124 -5q30 0 58.5 1
t60.5 3q3 0 8 1q28 3 39 3q17 0 26 -5.5t9 -14.5q0 -14 -44 -24l-3 -1h-3q-49 -9 -73 -20q-39 -21 -54 -58t-15 -127v-1097q0 -37 -7.5 -49.5t-25.5 -12.5q-16 0 -30.5 10t-37.5 39l-915 1139v-891zM1131 1812q-21 -103 -69 -154t-126 -51q-16 1 -33 3t-41 8l-106 26
q-20 5 -30 6.5t-19 2.5q-40 0 -62.5 -21t-36.5 -72h-51q18 106 68.5 159.5t130.5 53.5q17 0 32.5 -2t30.5 -6l108 -28q23 -6 36 -8.5t20 -2.5q36 0 59 20.5t37 65.5h52z" />
    <glyph glyph-name="Ograve" unicode="&#xd2;" horiz-adv-x="1686" 
d="M348 690q0 -306 137.5 -493t358.5 -187q225 0 362 184t137 492q0 312 -133.5 493t-361.5 181q-223 0 -361.5 -184t-138.5 -486zM96 680q0 143 53.5 270.5t157.5 231.5q110 108 250 164.5t299 56.5q161 0 306.5 -61t250.5 -173q90 -96 134 -215.5t44 -269.5
q0 -148 -56 -282.5t-157 -229.5t-242.5 -150t-287.5 -55q-155 0 -291 50.5t-240 146.5q-113 106 -167 231t-54 285zM1012 1515h-66l-329 205q-33 21 -48.5 41t-15.5 41q0 31 21.5 51.5t54.5 20.5q20 0 40.5 -12t55.5 -48z" />
    <glyph glyph-name="Oacute" unicode="&#xd3;" horiz-adv-x="1686" 
d="M348 690q0 -306 137.5 -493t358.5 -187q225 0 362 184t137 492q0 312 -133.5 493t-361.5 181q-223 0 -361.5 -184t-138.5 -486zM96 680q0 143 53.5 270.5t157.5 231.5q110 108 250 164.5t299 56.5q161 0 306.5 -61t250.5 -173q90 -96 134 -215.5t44 -269.5
q0 -148 -56 -282.5t-157 -229.5t-242.5 -150t-287.5 -55q-155 0 -291 50.5t-240 146.5q-113 106 -167 231t-54 285zM660 1515l288 299q36 36 56.5 48t40.5 12q33 0 53 -20t20 -52q0 -21 -15 -41.5t-46 -40.5l-330 -205h-67z" />
    <glyph glyph-name="Ocircumflex" unicode="&#xd4;" horiz-adv-x="1686" 
d="M348 690q0 -306 137.5 -493t358.5 -187q225 0 362 184t137 492q0 312 -133.5 493t-361.5 181q-223 0 -361.5 -184t-138.5 -486zM96 680q0 143 53.5 270.5t157.5 231.5q110 108 250 164.5t299 56.5q161 0 306.5 -61t250.5 -173q90 -96 134 -215.5t44 -269.5
q0 -148 -56 -282.5t-157 -229.5t-242.5 -150t-287.5 -55q-155 0 -291 50.5t-240 146.5q-113 106 -167 231t-54 285zM545 1515l233 348h117l232 -348h-58l-233 209l-232 -209h-59z" />
    <glyph glyph-name="Otilde" unicode="&#xd5;" horiz-adv-x="1686" 
d="M348 690q0 -306 137.5 -493t358.5 -187q225 0 362 184t137 492q0 312 -133.5 493t-361.5 181q-223 0 -361.5 -184t-138.5 -486zM96 680q0 143 53.5 270.5t157.5 231.5q110 108 250 164.5t299 56.5q161 0 306.5 -61t250.5 -173q90 -96 134 -215.5t44 -269.5
q0 -148 -56 -282.5t-157 -229.5t-242.5 -150t-287.5 -55q-155 0 -291 50.5t-240 146.5q-113 106 -167 231t-54 285zM1123 1812q-21 -103 -69 -154t-126 -51q-16 1 -33 3t-41 8l-106 26q-20 5 -30 6.5t-19 2.5q-40 0 -62.5 -21t-36.5 -72h-51q18 106 68.5 159.5t130.5 53.5
q17 0 32.5 -2t30.5 -6l108 -28q23 -6 36 -8.5t20 -2.5q36 0 59 20.5t37 65.5h52z" />
    <glyph glyph-name="Odieresis" unicode="&#xd6;" horiz-adv-x="1686" 
d="M348 690q0 -306 137.5 -493t358.5 -187q225 0 362 184t137 492q0 312 -133.5 493t-361.5 181q-223 0 -361.5 -184t-138.5 -486zM96 680q0 143 53.5 270.5t157.5 231.5q110 108 250 164.5t299 56.5q161 0 306.5 -61t250.5 -173q90 -96 134 -215.5t44 -269.5
q0 -148 -56 -282.5t-157 -229.5t-242.5 -150t-287.5 -55q-155 0 -291 50.5t-240 146.5q-113 106 -167 231t-54 285zM547 1669q0 40 29.5 70t68.5 30q40 0 70.5 -30t30.5 -70q0 -43 -29.5 -71.5t-71.5 -28.5q-41 0 -69.5 28.5t-28.5 71.5zM928 1669q0 40 30 70t70 30
t69.5 -30t29.5 -70q0 -43 -28.5 -71.5t-70.5 -28.5t-71 28.5t-29 71.5z" />
    <glyph glyph-name="multiply" unicode="&#xd7;" horiz-adv-x="1706" 
d="M381 1169l477 -477l475 477l82 -82l-475 -477l475 -475l-82 -82l-475 475l-477 -475l-80 82l475 475l-475 477z" />
    <glyph glyph-name="Oslash" unicode="&#xd8;" horiz-adv-x="1686" 
d="M1217 1176l-697 -1022q65 -72 147 -108t179 -36q220 0 360 181t140 473q0 171 -33.5 303t-95.5 209zM467 225l690 1014q-56 61 -131.5 93t-161.5 32q-237 0 -377.5 -182.5t-140.5 -491.5q0 -134 31 -253t90 -212zM178 -203l205 309q-142 106 -215.5 252t-73.5 324
q0 134 53.5 261.5t153.5 232.5q107 113 249 172t306 59q98 0 186 -21.5t170 -64.5l158 233h105l-187 -278q156 -113 230.5 -254.5t74.5 -325.5q0 -155 -51 -286.5t-147 -225.5q-110 -107 -253 -164t-300 -57q-97 0 -192.5 24.5t-190.5 73.5l-183 -264h-98z" />
    <glyph glyph-name="Ugrave" unicode="&#xd9;" horiz-adv-x="1688" 
d="M311 1151q0 77 -15 110.5t-52 51.5q-15 6 -34 10t-44 6q-2 0 -6 1q-49 6 -49 22q0 9 10 14.5t29 5.5q6 0 33 -1q120 -7 233 -7q123 0 245 7q21 1 25 1q17 0 26 -4.5t9 -13.5q0 -15 -41 -23q-5 -1 -8 -2q-13 0 -29 -2.5t-37 -7.5q-46 -13 -65 -49.5t-19 -118.5v-719
q0 -203 91 -298t284 -95q227 0 334.5 114t107.5 357v641q0 77 -15 110.5t-52 51.5q-15 6 -34 10t-44 6q-2 0 -6 1q-49 7 -49 22q0 9 10.5 14.5t28.5 5.5q15 0 82 -4t118 -4q48 0 108.5 4t72.5 4q17 0 26.5 -4.5t9.5 -13.5q0 -15 -41 -23q-5 -1 -8 -2q-14 0 -30.5 -2.5
t-36.5 -7.5q-46 -12 -64 -48t-18 -120v-590q0 -324 -129.5 -460t-433.5 -136q-263 0 -393 109.5t-130 328.5v748zM1075 1515h-66l-329 205q-33 21 -48.5 41t-15.5 41q0 31 21.5 51.5t54.5 20.5q20 0 40.5 -12t55.5 -48z" />
    <glyph glyph-name="Uacute" unicode="&#xda;" horiz-adv-x="1688" 
d="M311 1151q0 77 -15 110.5t-52 51.5q-15 6 -34 10t-44 6q-2 0 -6 1q-49 6 -49 22q0 9 10 14.5t29 5.5q6 0 33 -1q120 -7 233 -7q123 0 245 7q21 1 25 1q17 0 26 -4.5t9 -13.5q0 -15 -41 -23q-5 -1 -8 -2q-13 0 -29 -2.5t-37 -7.5q-46 -13 -65 -49.5t-19 -118.5v-719
q0 -203 91 -298t284 -95q227 0 334.5 114t107.5 357v641q0 77 -15 110.5t-52 51.5q-15 6 -34 10t-44 6q-2 0 -6 1q-49 7 -49 22q0 9 10.5 14.5t28.5 5.5q15 0 82 -4t118 -4q48 0 108.5 4t72.5 4q17 0 26.5 -4.5t9.5 -13.5q0 -15 -41 -23q-5 -1 -8 -2q-14 0 -30.5 -2.5
t-36.5 -7.5q-46 -12 -64 -48t-18 -120v-590q0 -324 -129.5 -460t-433.5 -136q-263 0 -393 109.5t-130 328.5v748zM723 1515l288 299q36 36 56.5 48t40.5 12q33 0 53 -20t20 -52q0 -21 -15 -41.5t-46 -40.5l-330 -205h-67z" />
    <glyph glyph-name="Ucircumflex" unicode="&#xdb;" horiz-adv-x="1688" 
d="M311 1151q0 77 -15 110.5t-52 51.5q-15 6 -34 10t-44 6q-2 0 -6 1q-49 6 -49 22q0 9 10 14.5t29 5.5q6 0 33 -1q120 -7 233 -7q123 0 245 7q21 1 25 1q17 0 26 -4.5t9 -13.5q0 -15 -41 -23q-5 -1 -8 -2q-13 0 -29 -2.5t-37 -7.5q-46 -13 -65 -49.5t-19 -118.5v-719
q0 -203 91 -298t284 -95q227 0 334.5 114t107.5 357v641q0 77 -15 110.5t-52 51.5q-15 6 -34 10t-44 6q-2 0 -6 1q-49 7 -49 22q0 9 10.5 14.5t28.5 5.5q15 0 82 -4t118 -4q48 0 108.5 4t72.5 4q17 0 26.5 -4.5t9.5 -13.5q0 -15 -41 -23q-5 -1 -8 -2q-14 0 -30.5 -2.5
t-36.5 -7.5q-46 -12 -64 -48t-18 -120v-590q0 -324 -129.5 -460t-433.5 -136q-263 0 -393 109.5t-130 328.5v748zM608 1515l233 348h117l232 -348h-58l-233 209l-232 -209h-59z" />
    <glyph glyph-name="Udieresis" unicode="&#xdc;" horiz-adv-x="1688" 
d="M311 1151q0 77 -15 110.5t-52 51.5q-15 6 -34 10t-44 6q-2 0 -6 1q-49 6 -49 22q0 9 10 14.5t29 5.5q6 0 33 -1q120 -7 233 -7q123 0 245 7q21 1 25 1q17 0 26 -4.5t9 -13.5q0 -15 -41 -23q-5 -1 -8 -2q-13 0 -29 -2.5t-37 -7.5q-46 -13 -65 -49.5t-19 -118.5v-719
q0 -203 91 -298t284 -95q227 0 334.5 114t107.5 357v641q0 77 -15 110.5t-52 51.5q-15 6 -34 10t-44 6q-2 0 -6 1q-49 7 -49 22q0 9 10.5 14.5t28.5 5.5q15 0 82 -4t118 -4q48 0 108.5 4t72.5 4q17 0 26.5 -4.5t9.5 -13.5q0 -15 -41 -23q-5 -1 -8 -2q-14 0 -30.5 -2.5
t-36.5 -7.5q-46 -12 -64 -48t-18 -120v-590q0 -324 -129.5 -460t-433.5 -136q-263 0 -393 109.5t-130 328.5v748zM610 1669q0 40 29.5 70t68.5 30q40 0 70.5 -30t30.5 -70q0 -43 -29.5 -71.5t-71.5 -28.5q-41 0 -69.5 28.5t-28.5 71.5zM991 1669q0 40 30 70t70 30t69.5 -30
t29.5 -70q0 -43 -28.5 -71.5t-70.5 -28.5t-71 28.5t-29 71.5z" />
    <glyph glyph-name="Yacute" unicode="&#xdd;" horiz-adv-x="1460" 
d="M829 229q0 -83 14.5 -115.5t50.5 -49.5q16 -8 34.5 -12.5t44.5 -6.5q1 0 5 -1q50 -7 50 -26q0 -10 -9.5 -16t-27.5 -6q-4 0 -24 1q-120 9 -244 9q-125 0 -244 -9q-20 -1 -24 -1q-19 0 -29 6t-10 16q0 20 50 26q3 1 5 1q26 2 45.5 6.5t33.5 11.5q38 18 52 50.5t14 115.5
v312l-354 641q-3 6 -9 16q-61 111 -118 121q-8 1 -26 4q-51 7 -52 29q0 12 11 17t34 5q11 0 19 -0.5t17 -1.5q4 0 14 -1q79 -5 141 -5q57 0 130.5 4t80.5 4q18 0 44.5 1t35.5 1q28 0 38.5 -5t10.5 -17q0 -19 -36 -20q-22 0 -36 -3q-42 -8 -64 -27.5t-22 -50.5
q0 -18 12 -53.5t33 -75.5l275 -530q39 66 110 183q234 382 234 462q0 35 -14 54.5t-44 25.5q-13 3 -36 7q-48 9 -48 26q0 10 10.5 15t30.5 5q13 0 22.5 -0.5t19.5 -1.5q31 -2 67.5 -3t75.5 -1q78 0 155 6h2q4 1 7.5 1.5t7.5 0.5q11 0 18.5 -4.5t7.5 -11.5q0 -13 -28 -24
q-5 -2 -7 -3q-38 -5 -69.5 -24t-59.5 -54q-16 -21 -152.5 -254.5t-275.5 -443.5v-326zM547 1515l288 299q36 36 56.5 48t40.5 12q33 0 53 -20t20 -52q0 -21 -15 -41.5t-46 -40.5l-330 -205h-67z" />
    <glyph glyph-name="Thorn" unicode="&#xde;" horiz-adv-x="1241" 
d="M528 393q55 -6 84 -8t50 -2q154 0 229.5 77.5t75.5 237.5q0 165 -80 245.5t-244 80.5q-63 0 -89 -16t-26 -54v-561zM528 229q0 -80 15 -113.5t53 -52.5q16 -7 35.5 -11.5t44.5 -6.5h4q49 -7 49 -27q0 -9 -11 -15.5t-28 -6.5q-4 0 -24 1q-120 9 -244 9q-125 0 -245 -9
q-19 -1 -23 -1q-18 0 -27.5 5.5t-9.5 16.5q0 20 49 27h4q25 2 44.5 6.5t35.5 11.5q37 19 51 52.5t14 113.5v922q0 79 -14 112t-51 50q-15 6 -34 10t-44 6q-2 0 -6 1q-49 7 -49 22q0 9 9.5 14.5t27.5 5.5q6 0 33 -1q122 -7 235 -7t235 7q26 1 33 1q18 0 28.5 -5.5t10.5 -14.5
q0 -15 -49 -22q-4 -1 -6 -1q-25 -2 -44 -6t-34 -10q-38 -18 -53 -51.5t-15 -110.5l1 -90q52 3 90.5 4.5t62.5 1.5q246 0 382 -95.5t136 -269.5t-140.5 -271t-393.5 -97q-27 0 -61 1.5t-76 4.5z" />
    <glyph glyph-name="germandbls" unicode="&#xdf;" horiz-adv-x="1157" 
d="M709 821v-14q168 -32 259 -145.5t91 -290.5q0 -186 -93 -296t-249 -110q-94 0 -150.5 35.5t-56.5 91.5q0 33 21.5 53.5t56.5 20.5q31 0 47 -17t22 -56q8 -52 21 -65.5t43 -13.5q74 0 107.5 87.5t33.5 281.5q0 185 -43 274t-141 115q-30 8 -85.5 10.5t-55.5 24.5
q0 20 51.5 24.5t81.5 16.5q52 20 78 85.5t26 176.5q0 152 -48 227.5t-144 75.5q-102 0 -154.5 -77.5t-52.5 -227.5v-932q0 -52 6.5 -76.5t22.5 -38.5q12 -10 44.5 -17.5t32.5 -23.5q0 -10 -9.5 -16t-27.5 -6q-11 0 -71.5 4t-110.5 4q-43 0 -99.5 -3t-70.5 -3q-20 0 -32.5 6
t-12.5 14q0 9 7.5 14t32.5 7q22 0 39 4t32 12q24 14 35.5 52t11.5 104v874q0 166 102.5 266.5t270.5 100.5q169 0 271.5 -92t102.5 -244q0 -105 -62 -181t-181 -116z" />
    <glyph glyph-name="agrave" unicode="&#xe0;" horiz-adv-x="1012" 
d="M639 516q-203 -78 -289 -150.5t-86 -162.5q0 -70 37 -111t100 -41q85 0 161.5 56t76.5 122v287zM633 115q-73 -69 -163.5 -105.5t-186.5 -36.5q-97 0 -153 50.5t-56 136.5q0 110 110.5 193t454.5 208v162q0 82 -48 121t-149 39q-76 0 -123 -26t-53 -73q-11 -68 -29.5 -87
t-58.5 -19q-32 0 -52 21t-20 55q0 74 97.5 122t257.5 48q181 0 266.5 -57.5t85.5 -178.5v-520q0 -53 17.5 -82t50.5 -29q21 0 48.5 19.5t35.5 19.5q9 0 13.5 -4.5t4.5 -13.5q0 -33 -53.5 -70t-116.5 -37q-69 0 -117.5 39t-62.5 105zM657 1036h-66l-329 205q-33 21 -48.5 41
t-15.5 41q0 31 21.5 51.5t54.5 20.5q20 0 40.5 -12t55.5 -48z" />
    <glyph glyph-name="aacute" unicode="&#xe1;" horiz-adv-x="1012" 
d="M639 516q-203 -78 -289 -150.5t-86 -162.5q0 -70 37 -111t100 -41q85 0 161.5 56t76.5 122v287zM633 115q-73 -69 -163.5 -105.5t-186.5 -36.5q-97 0 -153 50.5t-56 136.5q0 110 110.5 193t454.5 208v162q0 82 -48 121t-149 39q-76 0 -123 -26t-53 -73q-11 -68 -29.5 -87
t-58.5 -19q-32 0 -52 21t-20 55q0 74 97.5 122t257.5 48q181 0 266.5 -57.5t85.5 -178.5v-520q0 -53 17.5 -82t50.5 -29q21 0 48.5 19.5t35.5 19.5q9 0 13.5 -4.5t4.5 -13.5q0 -33 -53.5 -70t-116.5 -37q-69 0 -117.5 39t-62.5 105zM305 1036l288 299q36 36 56.5 48t40.5 12
q33 0 53 -20t20 -52q0 -21 -15 -41.5t-46 -40.5l-330 -205h-67z" />
    <glyph glyph-name="acircumflex" unicode="&#xe2;" horiz-adv-x="1012" 
d="M639 516q-203 -78 -289 -150.5t-86 -162.5q0 -70 37 -111t100 -41q85 0 161.5 56t76.5 122v287zM633 115q-73 -69 -163.5 -105.5t-186.5 -36.5q-97 0 -153 50.5t-56 136.5q0 110 110.5 193t454.5 208v162q0 82 -48 121t-149 39q-76 0 -123 -26t-53 -73q-11 -68 -29.5 -87
t-58.5 -19q-32 0 -52 21t-20 55q0 74 97.5 122t257.5 48q181 0 266.5 -57.5t85.5 -178.5v-520q0 -53 17.5 -82t50.5 -29q21 0 48.5 19.5t35.5 19.5q9 0 13.5 -4.5t4.5 -13.5q0 -33 -53.5 -70t-116.5 -37q-69 0 -117.5 39t-62.5 105zM190 1036l233 348h117l232 -348h-58
l-233 209l-232 -209h-59z" />
    <glyph glyph-name="atilde" unicode="&#xe3;" horiz-adv-x="1012" 
d="M639 516q-203 -78 -289 -150.5t-86 -162.5q0 -70 37 -111t100 -41q85 0 161.5 56t76.5 122v287zM633 115q-73 -69 -163.5 -105.5t-186.5 -36.5q-97 0 -153 50.5t-56 136.5q0 110 110.5 193t454.5 208v162q0 82 -48 121t-149 39q-76 0 -123 -26t-53 -73q-11 -68 -29.5 -87
t-58.5 -19q-32 0 -52 21t-20 55q0 74 97.5 122t257.5 48q181 0 266.5 -57.5t85.5 -178.5v-520q0 -53 17.5 -82t50.5 -29q21 0 48.5 19.5t35.5 19.5q9 0 13.5 -4.5t4.5 -13.5q0 -33 -53.5 -70t-116.5 -37q-69 0 -117.5 39t-62.5 105zM768 1333q-21 -103 -69 -154t-126 -51
q-16 1 -33 3t-41 8l-106 26q-20 5 -30 6.5t-19 2.5q-40 0 -62.5 -21t-36.5 -72h-51q18 106 68.5 159.5t130.5 53.5q17 0 32.5 -2t30.5 -6l108 -28q23 -6 36 -8.5t20 -2.5q36 0 59 20.5t37 65.5h52z" />
    <glyph glyph-name="adieresis" unicode="&#xe4;" horiz-adv-x="1012" 
d="M639 516q-203 -78 -289 -150.5t-86 -162.5q0 -70 37 -111t100 -41q85 0 161.5 56t76.5 122v287zM633 115q-73 -69 -163.5 -105.5t-186.5 -36.5q-97 0 -153 50.5t-56 136.5q0 110 110.5 193t454.5 208v162q0 82 -48 121t-149 39q-76 0 -123 -26t-53 -73q-11 -68 -29.5 -87
t-58.5 -19q-32 0 -52 21t-20 55q0 74 97.5 122t257.5 48q181 0 266.5 -57.5t85.5 -178.5v-520q0 -53 17.5 -82t50.5 -29q21 0 48.5 19.5t35.5 19.5q9 0 13.5 -4.5t4.5 -13.5q0 -33 -53.5 -70t-116.5 -37q-69 0 -117.5 39t-62.5 105zM192 1190q0 40 29.5 70t68.5 30
q40 0 70.5 -30t30.5 -70q0 -43 -29.5 -71.5t-71.5 -28.5q-41 0 -69.5 28.5t-28.5 71.5zM573 1190q0 40 30 70t70 30t69.5 -30t29.5 -70q0 -43 -28.5 -71.5t-70.5 -28.5t-71 28.5t-29 71.5z" />
    <glyph glyph-name="aring" unicode="&#xe5;" horiz-adv-x="1012" 
d="M340 1233q0 -63 43.5 -107.5t105.5 -44.5q63 0 107.5 44.5t44.5 107.5q0 61 -45 105t-107 44t-105.5 -43.5t-43.5 -105.5zM250 1231q0 101 70 171.5t172 70.5q100 0 169.5 -70t69.5 -172t-69 -171t-170 -69q-102 0 -172 69.5t-70 170.5zM639 516q-203 -78 -289 -150.5
t-86 -162.5q0 -70 37 -111t100 -41q85 0 161.5 56t76.5 122v287zM633 115q-73 -69 -163.5 -105.5t-186.5 -36.5q-97 0 -153 50.5t-56 136.5q0 110 110.5 193t454.5 208v162q0 82 -48 121t-149 39q-76 0 -123 -26t-53 -73q-11 -68 -29.5 -87t-58.5 -19q-32 0 -52 21t-20 55
q0 74 97.5 122t257.5 48q181 0 266.5 -57.5t85.5 -178.5v-520q0 -53 17.5 -82t50.5 -29q21 0 48.5 19.5t35.5 19.5q9 0 13.5 -4.5t4.5 -13.5q0 -33 -53.5 -70t-116.5 -37q-69 0 -117.5 39t-62.5 105z" />
    <glyph glyph-name="ae" unicode="&#xe6;" horiz-adv-x="1466" 
d="M780 616l428 1q3 18 4.5 34t1.5 31q0 91 -51 144t-139 53q-96 0 -162.5 -71t-81.5 -192zM614 498q-205 -73 -284.5 -142t-79.5 -168q0 -61 37 -100t96 -39q61 0 128.5 39t135.5 113q-16 46 -24.5 107t-8.5 138v52zM674 154q-103 -94 -202.5 -141.5t-192.5 -47.5
q-99 0 -158.5 53t-59.5 140q0 106 105.5 186.5t445.5 206.5v180q0 69 -49 108.5t-135 39.5t-124.5 -22.5t-47.5 -76.5q-11 -68 -28.5 -85t-55.5 -17q-32 0 -53 20.5t-21 53.5q0 73 93 121.5t241 48.5q115 0 188.5 -30t108.5 -91q67 61 144.5 91t168.5 30q151 0 255 -95.5
t104 -226.5q0 -23 -10 -31t-56 -8h-561q-1 -8 -2 -23q-6 -56 -6 -77q0 -181 94.5 -296.5t237.5 -115.5q116 0 215 102q21 21 26 21q9 0 16 -7t7 -15q0 -57 -102 -121t-228 -64q-114 0 -203.5 47t-154.5 142z" />
    <glyph glyph-name="ccedilla" unicode="&#xe7;" horiz-adv-x="899" 
d="M59 438q0 102 43.5 196.5t122.5 166.5q69 63 157 94t198 31q114 0 188 -38.5t74 -96.5q0 -31 -17.5 -48.5t-48.5 -17.5q-30 0 -49.5 14.5t-34.5 48.5q-25 63 -51.5 78t-81.5 15q-136 0 -215.5 -117t-79.5 -322q0 -192 82 -299.5t227 -107.5q56 0 101 12.5t71 36.5
q13 11 33.5 38.5t36.5 27.5q13 0 20 -6.5t7 -18.5q0 -60 -90 -107t-222 -47q-220 0 -345.5 124.5t-125.5 342.5zM248 -371l35 78q60 -34 118.5 -53t104.5 -19q64 0 93.5 22.5t29.5 70.5q0 42 -30.5 66t-84.5 24q-13 0 -28.5 -1.5t-32.5 -4.5v188h63v-112q16 2 31.5 3.5
t29.5 2.5q87 0 135 -43.5t48 -120.5q0 -82 -58.5 -129t-160.5 -47q-55 0 -122 17t-171 58z" />
    <glyph glyph-name="egrave" unicode="&#xe8;" horiz-adv-x="1016" 
d="M299 621h418q20 0 28.5 10.5t8.5 36.5q0 98 -55 156.5t-146 58.5q-102 0 -169 -69.5t-85 -192.5zM287 561q-4 -24 -6 -50t-2 -52q0 -181 92 -295.5t237 -114.5q67 0 117 20t100 66q8 7 20 21q22 24 38 24q9 0 14.5 -6t5.5 -16q0 -62 -106.5 -124.5t-249.5 -62.5
q-206 0 -339.5 130t-133.5 325q0 96 35 186.5t100 161.5q71 77 156.5 114.5t191.5 37.5q159 0 271 -95.5t112 -224.5q0 -27 -8.5 -36t-44.5 -9h-600zM729 1036h-66l-329 205q-33 21 -48.5 41t-15.5 41q0 31 21.5 51.5t54.5 20.5q20 0 40.5 -12t55.5 -48z" />
    <glyph glyph-name="eacute" unicode="&#xe9;" horiz-adv-x="1016" 
d="M299 621h418q20 0 28.5 10.5t8.5 36.5q0 98 -55 156.5t-146 58.5q-102 0 -169 -69.5t-85 -192.5zM287 561q-4 -24 -6 -50t-2 -52q0 -181 92 -295.5t237 -114.5q67 0 117 20t100 66q8 7 20 21q22 24 38 24q9 0 14.5 -6t5.5 -16q0 -62 -106.5 -124.5t-249.5 -62.5
q-206 0 -339.5 130t-133.5 325q0 96 35 186.5t100 161.5q71 77 156.5 114.5t191.5 37.5q159 0 271 -95.5t112 -224.5q0 -27 -8.5 -36t-44.5 -9h-600zM377 1036l288 299q36 36 56.5 48t40.5 12q33 0 53 -20t20 -52q0 -21 -15 -41.5t-46 -40.5l-330 -205h-67z" />
    <glyph glyph-name="ecircumflex" unicode="&#xea;" horiz-adv-x="1016" 
d="M299 621h418q20 0 28.5 10.5t8.5 36.5q0 98 -55 156.5t-146 58.5q-102 0 -169 -69.5t-85 -192.5zM287 561q-4 -24 -6 -50t-2 -52q0 -181 92 -295.5t237 -114.5q67 0 117 20t100 66q8 7 20 21q22 24 38 24q9 0 14.5 -6t5.5 -16q0 -62 -106.5 -124.5t-249.5 -62.5
q-206 0 -339.5 130t-133.5 325q0 96 35 186.5t100 161.5q71 77 156.5 114.5t191.5 37.5q159 0 271 -95.5t112 -224.5q0 -27 -8.5 -36t-44.5 -9h-600zM262 1036l233 348h117l232 -348h-58l-233 209l-232 -209h-59z" />
    <glyph glyph-name="edieresis" unicode="&#xeb;" horiz-adv-x="1016" 
d="M299 621h418q20 0 28.5 10.5t8.5 36.5q0 98 -55 156.5t-146 58.5q-102 0 -169 -69.5t-85 -192.5zM287 561q-4 -24 -6 -50t-2 -52q0 -181 92 -295.5t237 -114.5q67 0 117 20t100 66q8 7 20 21q22 24 38 24q9 0 14.5 -6t5.5 -16q0 -62 -106.5 -124.5t-249.5 -62.5
q-206 0 -339.5 130t-133.5 325q0 96 35 186.5t100 161.5q71 77 156.5 114.5t191.5 37.5q159 0 271 -95.5t112 -224.5q0 -27 -8.5 -36t-44.5 -9h-600zM264 1190q0 40 29.5 70t68.5 30q40 0 70.5 -30t30.5 -70q0 -43 -29.5 -71.5t-71.5 -28.5q-41 0 -69.5 28.5t-28.5 71.5z
M645 1190q0 40 30 70t70 30t69.5 -30t29.5 -70q0 -43 -28.5 -71.5t-70.5 -28.5t-71 28.5t-29 71.5z" />
    <glyph glyph-name="igrave" unicode="&#xec;" horiz-adv-x="565" 
d="M197 733q0 41 -8.5 57.5t-30.5 24.5q-9 4 -22 6t-38 2q-2 0 -7 1q-36 3 -36 16q1 17 48 25q22 4 36 7q71 15 141 39.5t74 24.5q12 0 17.5 -7.5t5.5 -23.5v-729q0 -63 10 -83.5t39 -33.5q12 -6 26.5 -10t30.5 -6q26 -4 33.5 -10.5t7.5 -18.5q0 -8 -9 -13t-23 -5
q-2 0 -70 6t-135 6q-68 0 -137 -6t-70 -6q-14 0 -22.5 5t-8.5 13q0 10 7 16t34 13q17 2 31 6t26 10q29 14 39.5 35t10.5 82v557zM451 1036h-66l-329 205q-33 21 -48.5 41t-15.5 41q0 31 21.5 51.5t54.5 20.5q20 0 40.5 -12t55.5 -48z" />
    <glyph glyph-name="iacute" unicode="&#xed;" horiz-adv-x="565" 
d="M197 733q0 41 -8.5 57.5t-30.5 24.5q-9 4 -22 6t-38 2q-2 0 -7 1q-36 3 -36 16q1 17 48 25q22 4 36 7q71 15 141 39.5t74 24.5q12 0 17.5 -7.5t5.5 -23.5v-729q0 -63 10 -83.5t39 -33.5q12 -6 26.5 -10t30.5 -6q26 -4 33.5 -10.5t7.5 -18.5q0 -8 -9 -13t-23 -5
q-2 0 -70 6t-135 6q-68 0 -137 -6t-70 -6q-14 0 -22.5 5t-8.5 13q0 10 7 16t34 13q17 2 31 6t26 10q29 14 39.5 35t10.5 82v557zM99 1036l288 299q36 36 56.5 48t40.5 12q33 0 53 -20t20 -52q0 -21 -15 -41.5t-46 -40.5l-330 -205h-67z" />
    <glyph glyph-name="icircumflex" unicode="&#xee;" horiz-adv-x="565" 
d="M197 733q0 41 -8.5 57.5t-30.5 24.5q-9 4 -22 6t-38 2q-2 0 -7 1q-36 3 -36 16q1 17 48 25q22 4 36 7q71 15 141 39.5t74 24.5q12 0 17.5 -7.5t5.5 -23.5v-729q0 -63 10 -83.5t39 -33.5q12 -6 26.5 -10t30.5 -6q26 -4 33.5 -10.5t7.5 -18.5q0 -8 -9 -13t-23 -5
q-2 0 -70 6t-135 6q-68 0 -137 -6t-70 -6q-14 0 -22.5 5t-8.5 13q0 10 7 16t34 13q17 2 31 6t26 10q29 14 39.5 35t10.5 82v557zM-16 1036l233 348h117l232 -348h-58l-233 209l-232 -209h-59z" />
    <glyph glyph-name="idieresis" unicode="&#xef;" horiz-adv-x="565" 
d="M197 733q0 41 -8.5 57.5t-30.5 24.5q-9 4 -22 6t-38 2q-2 0 -7 1q-36 3 -36 16q1 17 48 25q22 4 36 7q71 15 141 39.5t74 24.5q12 0 17.5 -7.5t5.5 -23.5v-729q0 -63 10 -83.5t39 -33.5q12 -6 26.5 -10t30.5 -6q26 -4 33.5 -10.5t7.5 -18.5q0 -8 -9 -13t-23 -5
q-2 0 -70 6t-135 6q-68 0 -137 -6t-70 -6q-14 0 -22.5 5t-8.5 13q0 10 7 16t34 13q17 2 31 6t26 10q29 14 39.5 35t10.5 82v557zM-14 1190q0 40 29.5 70t68.5 30q40 0 70.5 -30t30.5 -70q0 -43 -29.5 -71.5t-71.5 -28.5q-41 0 -69.5 28.5t-28.5 71.5zM367 1190q0 40 30 70
t70 30t69.5 -30t29.5 -70q0 -43 -28.5 -71.5t-70.5 -28.5t-71 28.5t-29 71.5z" />
    <glyph glyph-name="eth" unicode="&#xf0;" horiz-adv-x="1126" 
d="M694 813q-34 79 -76.5 140t-93.5 106l-301 -164l-28 53l276 152q-70 57 -139 108.5t-137 98.5l28 34q102 -57 181.5 -103t150.5 -89l303 170l31 -51l-279 -158q200 -172 295.5 -343t95.5 -357q0 -86 -33.5 -167t-95.5 -143q-64 -66 -138.5 -97.5t-166.5 -31.5
q-192 0 -318 120.5t-126 307.5q0 186 127.5 306t324.5 120q29 0 58.5 -3t60.5 -9zM301 397q0 -185 67.5 -286t190.5 -101q130 0 197 100.5t67 295.5q0 185 -69 287t-195 102q-115 0 -186.5 -109t-71.5 -289z" />
    <glyph glyph-name="ntilde" unicode="&#xf1;" horiz-adv-x="1245" 
d="M225 176v492q0 68 -10.5 98t-38.5 45q-11 6 -24.5 9t-30.5 3q-2 1 -5 1q-38 6 -38 20q0 16 65 30q9 1 15 3q59 12 121.5 33.5t68.5 21.5q32 0 42 -133q3 -42 5 -68q61 98 145 146.5t193 48.5q146 0 224.5 -71t78.5 -202v-477q0 -63 10.5 -83t38.5 -34q13 -6 27 -10t31 -6
q25 -4 33 -10.5t8 -18.5q0 -8 -8.5 -13t-22.5 -5q-3 0 -72 6t-135 6t-134 -6t-71 -6q-15 0 -23.5 6t-8.5 16t8 15.5t33 9.5q3 1 9 2q32 8 48 14q29 13 39 33.5t10 83.5v465q0 109 -48 163t-144 54q-108 0 -183 -85t-75 -210v-387q0 -63 10 -83t39 -34q12 -6 26 -10t31 -6
q25 -4 33 -10.5t8 -18.5q0 -8 -9 -13t-24 -5q-3 0 -71 6t-134 6q-65 0 -134.5 -6t-71.5 -6q-15 0 -23 5.5t-8 16.5q0 10 8 15.5t33 9.5q3 1 9 2q32 8 48 14q29 13 39 33.5t10 83.5zM902 1333q-21 -103 -69 -154t-126 -51q-16 1 -33 3t-41 8l-106 26q-20 5 -30 6.5t-19 2.5
q-40 0 -62.5 -21t-36.5 -72h-51q18 106 68.5 159.5t130.5 53.5q17 0 32.5 -2t30.5 -6l108 -28q23 -6 36 -8.5t20 -2.5q36 0 59 20.5t37 65.5h52z" />
    <glyph glyph-name="ograve" unicode="&#xf2;" horiz-adv-x="1126" 
d="M272 446q0 -207 74.5 -319.5t210.5 -112.5q145 0 220 112t75 329q0 205 -77.5 318.5t-217.5 113.5q-128 0 -206.5 -120t-78.5 -321zM74 449q0 202 144 339.5t355 137.5q96 0 178.5 -34t151.5 -101q70 -70 109 -157.5t39 -174.5q0 -95 -37.5 -184.5t-106.5 -159.5
q-72 -74 -154.5 -109t-185.5 -35q-214 0 -353.5 135t-139.5 343zM731 1036h-66l-329 205q-33 21 -48.5 41t-15.5 41q0 31 21.5 51.5t54.5 20.5q20 0 40.5 -12t55.5 -48z" />
    <glyph glyph-name="oacute" unicode="&#xf3;" horiz-adv-x="1126" 
d="M272 446q0 -207 74.5 -319.5t210.5 -112.5q145 0 220 112t75 329q0 205 -77.5 318.5t-217.5 113.5q-128 0 -206.5 -120t-78.5 -321zM74 449q0 202 144 339.5t355 137.5q96 0 178.5 -34t151.5 -101q70 -70 109 -157.5t39 -174.5q0 -95 -37.5 -184.5t-106.5 -159.5
q-72 -74 -154.5 -109t-185.5 -35q-214 0 -353.5 135t-139.5 343zM379 1036l288 299q36 36 56.5 48t40.5 12q33 0 53 -20t20 -52q0 -21 -15 -41.5t-46 -40.5l-330 -205h-67z" />
    <glyph glyph-name="ocircumflex" unicode="&#xf4;" horiz-adv-x="1126" 
d="M272 446q0 -207 74.5 -319.5t210.5 -112.5q145 0 220 112t75 329q0 205 -77.5 318.5t-217.5 113.5q-128 0 -206.5 -120t-78.5 -321zM74 449q0 202 144 339.5t355 137.5q96 0 178.5 -34t151.5 -101q70 -70 109 -157.5t39 -174.5q0 -95 -37.5 -184.5t-106.5 -159.5
q-72 -74 -154.5 -109t-185.5 -35q-214 0 -353.5 135t-139.5 343zM264 1036l233 348h117l232 -348h-58l-233 209l-232 -209h-59z" />
    <glyph glyph-name="otilde" unicode="&#xf5;" horiz-adv-x="1126" 
d="M272 446q0 -207 74.5 -319.5t210.5 -112.5q145 0 220 112t75 329q0 205 -77.5 318.5t-217.5 113.5q-128 0 -206.5 -120t-78.5 -321zM74 449q0 202 144 339.5t355 137.5q96 0 178.5 -34t151.5 -101q70 -70 109 -157.5t39 -174.5q0 -95 -37.5 -184.5t-106.5 -159.5
q-72 -74 -154.5 -109t-185.5 -35q-214 0 -353.5 135t-139.5 343zM842 1333q-21 -103 -69 -154t-126 -51q-16 1 -33 3t-41 8l-106 26q-20 5 -30 6.5t-19 2.5q-40 0 -62.5 -21t-36.5 -72h-51q18 106 68.5 159.5t130.5 53.5q17 0 32.5 -2t30.5 -6l108 -28q23 -6 36 -8.5
t20 -2.5q36 0 59 20.5t37 65.5h52z" />
    <glyph glyph-name="odieresis" unicode="&#xf6;" horiz-adv-x="1126" 
d="M272 446q0 -207 74.5 -319.5t210.5 -112.5q145 0 220 112t75 329q0 205 -77.5 318.5t-217.5 113.5q-128 0 -206.5 -120t-78.5 -321zM74 449q0 202 144 339.5t355 137.5q96 0 178.5 -34t151.5 -101q70 -70 109 -157.5t39 -174.5q0 -95 -37.5 -184.5t-106.5 -159.5
q-72 -74 -154.5 -109t-185.5 -35q-214 0 -353.5 135t-139.5 343zM266 1190q0 40 29.5 70t68.5 30q40 0 70.5 -30t30.5 -70q0 -43 -29.5 -71.5t-71.5 -28.5q-41 0 -69.5 28.5t-28.5 71.5zM647 1190q0 40 30 70t70 30t69.5 -30t29.5 -70q0 -43 -28.5 -71.5t-70.5 -28.5
t-71 28.5t-29 71.5z" />
    <glyph glyph-name="divide" unicode="&#xf7;" horiz-adv-x="1706" 
d="M854 365q47 0 81 -34t34 -81t-33.5 -81t-81.5 -34t-81.5 33.5t-33.5 81.5t34 81.5t81 33.5zM254 670h1198v-117h-1198v117zM854 1085q48 0 81.5 -33.5t33.5 -80.5q0 -48 -33.5 -81.5t-81.5 -33.5q-49 0 -82 33.5t-33 81.5q0 47 34 80.5t81 33.5z" />
    <glyph glyph-name="oslash" unicode="&#xf8;" horiz-adv-x="1126" 
d="M393 74q32 -32 73.5 -48t92.5 -16q142 0 220.5 116t78.5 327q0 112 -21.5 195t-62.5 128zM342 133l383 694q-38 30 -77.5 44t-82.5 14q-139 0 -217 -115.5t-78 -325.5q0 -95 18 -172t54 -139zM223 -240h-84l154 279q-103 67 -163 178t-60 234q0 199 142 336t353 137
q52 0 98.5 -9t90.5 -26l129 237h84l-144 -268q112 -74 171 -178t59 -227q0 -209 -143 -347.5t-357 -138.5q-57 0 -106 10t-91 29z" />
    <glyph glyph-name="ugrave" unicode="&#xf9;" horiz-adv-x="1243" 
d="M840 725q0 64 -10.5 84t-38.5 33q-14 5 -27.5 8.5t-28.5 5.5q-27 5 -35 11.5t-8 19.5q0 8 10.5 13t30.5 5q9 0 54 -4t81 -4q17 0 54 3t57 3q23 0 32 -12.5t9 -46.5v-613q0 -72 11 -101.5t38 -43.5q16 -8 53 -12h2q2 -1 5 -1q36 -7 36 -20q0 -16 -50 -25q-17 -3 -28 -5
q-58 -13 -120.5 -34.5t-71.5 -21.5q-31 0 -43 173q-1 18 -2 28q-59 -98 -142.5 -145.5t-195.5 -47.5q-158 0 -230.5 74.5t-72.5 237.5v438q0 64 -10.5 84t-38.5 33q-14 5 -27.5 8.5t-27.5 5.5q-28 5 -36 11.5t-8 19.5q0 9 10 13.5t29 4.5q13 0 59 -4t79 -4q16 0 53 3t57 3
q23 0 32 -12.5t9 -46.5v-586q0 -109 48 -164t145 -55q108 0 183 85.5t75 211.5v389zM791 1036h-66l-329 205q-33 21 -48.5 41t-15.5 41q0 31 21.5 51.5t54.5 20.5q20 0 40.5 -12t55.5 -48z" />
    <glyph glyph-name="uacute" unicode="&#xfa;" horiz-adv-x="1243" 
d="M840 725q0 64 -10.5 84t-38.5 33q-14 5 -27.5 8.5t-28.5 5.5q-27 5 -35 11.5t-8 19.5q0 8 10.5 13t30.5 5q9 0 54 -4t81 -4q17 0 54 3t57 3q23 0 32 -12.5t9 -46.5v-613q0 -72 11 -101.5t38 -43.5q16 -8 53 -12h2q2 -1 5 -1q36 -7 36 -20q0 -16 -50 -25q-17 -3 -28 -5
q-58 -13 -120.5 -34.5t-71.5 -21.5q-31 0 -43 173q-1 18 -2 28q-59 -98 -142.5 -145.5t-195.5 -47.5q-158 0 -230.5 74.5t-72.5 237.5v438q0 64 -10.5 84t-38.5 33q-14 5 -27.5 8.5t-27.5 5.5q-28 5 -36 11.5t-8 19.5q0 9 10 13.5t29 4.5q13 0 59 -4t79 -4q16 0 53 3t57 3
q23 0 32 -12.5t9 -46.5v-586q0 -109 48 -164t145 -55q108 0 183 85.5t75 211.5v389zM439 1036l288 299q36 36 56.5 48t40.5 12q33 0 53 -20t20 -52q0 -21 -15 -41.5t-46 -40.5l-330 -205h-67z" />
    <glyph glyph-name="ucircumflex" unicode="&#xfb;" horiz-adv-x="1243" 
d="M840 725q0 64 -10.5 84t-38.5 33q-14 5 -27.5 8.5t-28.5 5.5q-27 5 -35 11.5t-8 19.5q0 8 10.5 13t30.5 5q9 0 54 -4t81 -4q17 0 54 3t57 3q23 0 32 -12.5t9 -46.5v-613q0 -72 11 -101.5t38 -43.5q16 -8 53 -12h2q2 -1 5 -1q36 -7 36 -20q0 -16 -50 -25q-17 -3 -28 -5
q-58 -13 -120.5 -34.5t-71.5 -21.5q-31 0 -43 173q-1 18 -2 28q-59 -98 -142.5 -145.5t-195.5 -47.5q-158 0 -230.5 74.5t-72.5 237.5v438q0 64 -10.5 84t-38.5 33q-14 5 -27.5 8.5t-27.5 5.5q-28 5 -36 11.5t-8 19.5q0 9 10 13.5t29 4.5q13 0 59 -4t79 -4q16 0 53 3t57 3
q23 0 32 -12.5t9 -46.5v-586q0 -109 48 -164t145 -55q108 0 183 85.5t75 211.5v389zM324 1036l233 348h117l232 -348h-58l-233 209l-232 -209h-59z" />
    <glyph glyph-name="udieresis" unicode="&#xfc;" horiz-adv-x="1243" 
d="M840 725q0 64 -10.5 84t-38.5 33q-14 5 -27.5 8.5t-28.5 5.5q-27 5 -35 11.5t-8 19.5q0 8 10.5 13t30.5 5q9 0 54 -4t81 -4q17 0 54 3t57 3q23 0 32 -12.5t9 -46.5v-613q0 -72 11 -101.5t38 -43.5q16 -8 53 -12h2q2 -1 5 -1q36 -7 36 -20q0 -16 -50 -25q-17 -3 -28 -5
q-58 -13 -120.5 -34.5t-71.5 -21.5q-31 0 -43 173q-1 18 -2 28q-59 -98 -142.5 -145.5t-195.5 -47.5q-158 0 -230.5 74.5t-72.5 237.5v438q0 64 -10.5 84t-38.5 33q-14 5 -27.5 8.5t-27.5 5.5q-28 5 -36 11.5t-8 19.5q0 9 10 13.5t29 4.5q13 0 59 -4t79 -4q16 0 53 3t57 3
q23 0 32 -12.5t9 -46.5v-586q0 -109 48 -164t145 -55q108 0 183 85.5t75 211.5v389zM326 1190q0 40 29.5 70t68.5 30q40 0 70.5 -30t30.5 -70q0 -43 -29.5 -71.5t-71.5 -28.5q-41 0 -69.5 28.5t-28.5 71.5zM707 1190q0 40 30 70t70 30t69.5 -30t29.5 -70q0 -43 -28.5 -71.5
t-70.5 -28.5t-71 28.5t-29 71.5z" />
    <glyph glyph-name="yacute" unicode="&#xfd;" horiz-adv-x="1018" 
d="M582 207l192 471q15 35 23 64t8 51q0 24 -14.5 38.5t-47.5 22.5q-9 2 -28 5q-35 4 -35 20q0 10 10 16t27 6q9 0 50.5 -4t74.5 -4q32 0 67 4t37 4q19 0 29 -6t10 -16q0 -12 -28 -22q-18 -6 -27 -11q-22 -12 -41.5 -42.5t-44.5 -90.5l-262 -637l-5 -12q-265 -642 -360 -642
q-25 0 -40 17t-15 45q0 62 86 101q36 17 49 28q19 16 42 57t67 138q5 11 14 31q63 137 63 175q0 13 -5 30.5t-17 47.5l-268 628q-2 5 -5 12q-39 91 -79 110q-9 4 -22 7.5t-16 4.5q-21 4 -28.5 10t-7.5 17q0 8 14 15t35 7q2 0 55.5 -5t104.5 -5t120 5t87 5t30.5 -7t12.5 -17
q0 -16 -46 -23q-10 -1 -16 -2q-40 -7 -56 -20.5t-16 -38.5q1 -13 4.5 -27.5t10.5 -32.5zM326 1036l288 299q36 36 56.5 48t40.5 12q33 0 53 -20t20 -52q0 -21 -15 -41.5t-46 -40.5l-330 -205h-67z" />
    <glyph glyph-name="thorn" unicode="&#xfe;" horiz-adv-x="1241" 
d="M389 -391q0 -62 10 -81.5t39 -33.5q13 -6 27 -10t31 -6q25 -4 33 -10.5t8 -18.5q0 -8 -8.5 -13t-22.5 -5q-1 0 -70.5 6t-136.5 6t-136.5 -6t-70.5 -6q-15 0 -23 5.5t-8 16.5q0 10 8.5 15.5t32.5 9.5q4 1 10 2q32 8 48 14q29 13 39 32.5t10 82.5l-4 1644q0 55 -11 76.5
t-38 32.5q-13 5 -27.5 8.5t-29.5 5.5q-27 5 -35.5 10t-8.5 13q0 18 67 28l15 3q106 14 204 39l24 6q10 0 15 -8t5 -25l4 -662q40 70 115.5 108t175.5 38q196 0 321 -131.5t125 -337.5q0 -209 -129 -342t-329 -133q-88 0 -158.5 31t-120.5 91v-495zM377 461q0 -158 10 -219
t35 -97q30 -44 89 -73t120 -29q137 0 216 108t79 300q0 205 -74.5 311t-218.5 106q-63 0 -120.5 -30.5t-90.5 -81.5q-25 -38 -35 -99.5t-10 -195.5z" />
    <glyph glyph-name="ydieresis" unicode="&#xff;" horiz-adv-x="1018" 
d="M582 207l192 471q15 35 23 64t8 51q0 24 -14.5 38.5t-47.5 22.5q-9 2 -28 5q-35 4 -35 20q0 10 10 16t27 6q9 0 50.5 -4t74.5 -4q32 0 67 4t37 4q19 0 29 -6t10 -16q0 -12 -28 -22q-18 -6 -27 -11q-22 -12 -41.5 -42.5t-44.5 -90.5l-262 -637l-5 -12q-265 -642 -360 -642
q-25 0 -40 17t-15 45q0 62 86 101q36 17 49 28q19 16 42 57t67 138q5 11 14 31q63 137 63 175q0 13 -5 30.5t-17 47.5l-268 628q-2 5 -5 12q-39 91 -79 110q-9 4 -22 7.5t-16 4.5q-21 4 -28.5 10t-7.5 17q0 8 14 15t35 7q2 0 55.5 -5t104.5 -5t120 5t87 5t30.5 -7t12.5 -17
q0 -16 -46 -23q-10 -1 -16 -2q-40 -7 -56 -20.5t-16 -38.5q1 -13 4.5 -27.5t10.5 -32.5zM213 1190q0 40 29.5 70t68.5 30q40 0 70.5 -30t30.5 -70q0 -43 -29.5 -71.5t-71.5 -28.5q-41 0 -69.5 28.5t-28.5 71.5zM594 1190q0 40 30 70t70 30t69.5 -30t29.5 -70
q0 -43 -28.5 -71.5t-70.5 -28.5t-71 28.5t-29 71.5z" />
    <glyph glyph-name="Cacute" unicode="&#x106;" horiz-adv-x="1462" 
d="M1343 51q0 -11 -5.5 -16.5t-16.5 -5.5q-15 0 -27 38.5t-41 38.5q-21 0 -66 -28q-19 -13 -30 -19q-82 -45 -172.5 -68.5t-187.5 -23.5q-141 0 -269.5 47.5t-220.5 132.5q-102 95 -154.5 223.5t-52.5 284.5q0 122 31 230.5t92 204.5q99 151 255 231t351 80q177 0 353 -88
q38 -19 47 -19q18 0 32.5 39t26.5 39t17.5 -10t7.5 -35l10 -301q0 -12 2 -24v-3q0 -13 -6 -20.5t-16 -7.5q-16 0 -26 39q-9 38 -20 63q-58 146 -160.5 216.5t-254.5 70.5q-226 0 -358 -186t-132 -508q0 -299 134.5 -473.5t363.5 -174.5q135 0 239 70.5t158 198.5
q24 56 45 124t35 68q7 0 11.5 -6t4.5 -14v-408zM637 1515l288 299q36 36 56.5 48t40.5 12q33 0 53 -20t20 -52q0 -21 -15 -41.5t-46 -40.5l-330 -205h-67z" />
    <glyph glyph-name="cacute" unicode="&#x107;" horiz-adv-x="899" 
d="M59 438q0 102 43.5 196.5t122.5 166.5q69 63 157 94t198 31q114 0 188 -38.5t74 -96.5q0 -31 -17.5 -48.5t-48.5 -17.5q-30 0 -49.5 14.5t-34.5 48.5q-25 63 -51.5 78t-81.5 15q-136 0 -215.5 -117t-79.5 -322q0 -192 82 -299.5t227 -107.5q56 0 101 12.5t71 36.5
q13 11 33.5 38.5t36.5 27.5q13 0 20 -6.5t7 -18.5q0 -60 -90 -107t-222 -47q-220 0 -345.5 124.5t-125.5 342.5zM351 1036l288 299q36 36 56.5 48t40.5 12q33 0 53 -20t20 -52q0 -21 -15 -41.5t-46 -40.5l-330 -205h-67z" />
    <glyph glyph-name="Ccaron" unicode="&#x10c;" horiz-adv-x="1462" 
d="M1343 51q0 -11 -5.5 -16.5t-16.5 -5.5q-15 0 -27 38.5t-41 38.5q-21 0 -66 -28q-19 -13 -30 -19q-82 -45 -172.5 -68.5t-187.5 -23.5q-141 0 -269.5 47.5t-220.5 132.5q-102 95 -154.5 223.5t-52.5 284.5q0 122 31 230.5t92 204.5q99 151 255 231t351 80q177 0 353 -88
q38 -19 47 -19q18 0 32.5 39t26.5 39t17.5 -10t7.5 -35l10 -301q0 -12 2 -24v-3q0 -13 -6 -20.5t-16 -7.5q-16 0 -26 39q-9 38 -20 63q-58 146 -160.5 216.5t-254.5 70.5q-226 0 -358 -186t-132 -508q0 -299 134.5 -473.5t363.5 -174.5q135 0 239 70.5t158 198.5
q24 56 45 124t35 68q7 0 11.5 -6t4.5 -14v-408zM522 1863h59l232 -210l233 210h58l-232 -348h-117z" />
    <glyph glyph-name="ccaron" unicode="&#x10d;" horiz-adv-x="899" 
d="M59 438q0 102 43.5 196.5t122.5 166.5q69 63 157 94t198 31q114 0 188 -38.5t74 -96.5q0 -31 -17.5 -48.5t-48.5 -17.5q-30 0 -49.5 14.5t-34.5 48.5q-25 63 -51.5 78t-81.5 15q-136 0 -215.5 -117t-79.5 -322q0 -192 82 -299.5t227 -107.5q56 0 101 12.5t71 36.5
q13 11 33.5 38.5t36.5 27.5q13 0 20 -6.5t7 -18.5q0 -60 -90 -107t-222 -47q-220 0 -345.5 124.5t-125.5 342.5zM236 1384h59l232 -210l233 210h58l-232 -348h-117z" />
    <glyph glyph-name="dcroat" unicode="&#x111;" horiz-adv-x="1249" 
d="M860 135q-75 -85 -151 -122.5t-172 -37.5q-193 0 -321 131t-128 324q0 212 127 352t315 140q95 0 174 -33.5t132 -95.5v311h-324v53h324v148q0 40 -10.5 57.5t-37.5 26.5q-21 7 -64.5 11t-43.5 23q0 20 53 23h4h6q82 6 164 17.5t86 11.5q14 0 19.5 -7t5.5 -22v-289h231
v-53h-231v-875q0 -53 16 -87.5t47 -49.5q20 -8 58 -12h2q1 0 5 -1q34 -3 34 -20t-60 -29q-16 -3 -26 -5q-49 -12 -110 -31t-71 -19q-26 0 -52 154zM842 602q0 124 -70.5 193t-193.5 69q-133 0 -211 -114t-78 -310q0 -189 75.5 -297t206.5 -108q126 0 198.5 77.5t72.5 211.5
v278z" />
    <glyph glyph-name="Gbreve" unicode="&#x11e;" horiz-adv-x="1573" 
d="M1407 150q-49 -2 -88.5 -9.5t-69.5 -21.5q-21 -10 -65 -34q-220 -118 -404 -118q-148 0 -273.5 50.5t-221.5 148.5q-94 95 -139.5 212.5t-45.5 264.5q0 338 201.5 550t523.5 212q174 0 352 -80q49 -22 62 -22q16 0 31 32.5t26 32.5q12 0 16.5 -8t4.5 -31v-22l-12 -301
q-1 -13 -5.5 -19t-13.5 -6q-16 0 -26 44q-8 33 -15 53q-52 146 -147 216t-242 70q-247 0 -375.5 -176.5t-128.5 -515.5q0 -307 125 -479.5t346 -172.5q184 0 270.5 82t86.5 256q0 62 -19 102.5t-53 53.5q-17 5 -34.5 9t-32.5 5q-3 1 -8 2q-40 8 -40 25q0 10 13 16.5t34 6.5
q7 0 36 -3q107 -10 200 -10q102 0 209 10q24 3 28 3q17 0 28 -6.5t11 -14.5q0 -15 -32 -26q-5 -2 -7 -3q-17 -2 -33 -7.5t-32 -14.5q-29 -18 -40 -48.5t-11 -121.5v-23q0 -44 2.5 -85.5t7.5 -77.5zM485 1825h53q17 -74 74 -108t166 -34t166 33.5t73 108.5h52
q-20 -134 -94 -202.5t-197 -68.5q-122 0 -197 69t-96 202z" />
    <glyph glyph-name="gbreve" unicode="&#x11f;" horiz-adv-x="1128" 
d="M305 600q0 -135 54 -212t149 -77q98 0 153.5 75.5t55.5 209.5q0 137 -56.5 213t-156.5 76q-89 0 -144 -78t-55 -207zM358 297q-107 40 -166 117.5t-59 179.5q0 143 108.5 237.5t274.5 94.5q78 0 145 -23.5t123 -71.5l33 21q52 36 91 52t75 16q57 0 91 -25t34 -68
q0 -27 -18.5 -46t-45.5 -19q-28 0 -67.5 38t-69.5 38q-15 0 -35.5 -9t-54.5 -30q40 -54 58 -104.5t18 -106.5q0 -146 -91 -223t-284 -93q-166 -13 -209 -32.5t-43 -61.5q1 -62 238 -67h42q243 -6 349 -81t106 -239t-124.5 -259t-341.5 -95q-195 0 -317 81t-122 208
q0 67 47 118.5t107 51.5q32 0 50.5 -8t18.5 -21q0 -3 -11 -11q-79 -55 -79 -157q0 -97 87.5 -154t238.5 -57q145 0 228 63.5t83 174.5q0 108 -72 152t-279 46q-182 2 -264.5 47t-82.5 142q0 72 48.5 119t141.5 65zM264 1346h53q17 -74 74 -108t166 -34t166 33.5t73 108.5h52
q-20 -134 -94 -202.5t-197 -68.5q-122 0 -197 69t-96 202z" />
    <glyph glyph-name="Idotaccent" unicode="&#x130;" horiz-adv-x="899" 
d="M555 229q0 -78 16.5 -113t56.5 -52q19 -8 41 -12.5t50 -6.5q2 0 5 -1q50 -7 50 -26q0 -10 -10.5 -16t-28.5 -6q-5 0 -27 1q-130 9 -259 9q-130 0 -258 -9q-22 -1 -27 -1q-19 0 -30 6t-11 16q0 20 53 27h4h3q58 5 87 18q42 19 58 53t16 113v922q0 77 -15 110.5t-53 51.5
q-15 6 -36.5 10t-51.5 6q-2 0 -7 1q-58 7 -58 22q0 8 19 14t40 6q7 0 33 -1q121 -7 234 -7q122 0 245 7q20 1 25 1q21 0 38 -5t17 -13q0 -15 -48 -23q-7 -1 -11 -2q-22 0 -40.5 -2.5t-35.5 -7.5q-46 -13 -65 -49.5t-19 -118.5v-922zM351 1669q0 41 29.5 70.5t70.5 29.5
t70.5 -29.5t29.5 -70.5q0 -42 -29.5 -71t-70.5 -29t-70.5 29t-29.5 71z" />
    <glyph glyph-name="dotlessi" unicode="&#x131;" horiz-adv-x="565" 
d="M197 733q0 41 -8.5 57.5t-30.5 24.5q-9 4 -22 6t-38 2q-2 0 -7 1q-36 3 -36 16q1 17 48 25q22 4 36 7q71 15 141 39.5t74 24.5q12 0 17.5 -7.5t5.5 -23.5v-729q0 -63 10 -83.5t39 -33.5q12 -6 26.5 -10t30.5 -6q26 -4 33.5 -10.5t7.5 -18.5q0 -8 -9 -13t-23 -5
q-2 0 -70 6t-135 6q-68 0 -137 -6t-70 -6q-14 0 -22.5 5t-8.5 13q0 10 7 16t34 13q17 2 31 6t26 10q29 14 39.5 35t10.5 82v557z" />
    <glyph glyph-name="Lslash" unicode="&#x141;" horiz-adv-x="1354" 
d="M518 299q0 -147 62 -196.5t258 -49.5q146 0 231 29.5t131 93.5q29 40 45.5 109t36.5 69q10 0 14 -7t4 -30l-6 -274q0 -32 -8.5 -41.5t-34.5 -9.5q-11 0 -64 2q-288 14 -575 14q-233 0 -439 -11q-25 -1 -30 -1q-17 0 -26.5 5.5t-10.5 16.5q1 20 50 26q4 1 6 1q25 2 44 6.5
t33 11.5q38 18 52 50.5t14 115.5v357l-305 -215v82l305 215v483q0 79 -14.5 112t-50.5 50q-15 6 -34.5 10t-43.5 6q-2 0 -6 1q-49 6 -50 22q0 9 10 14.5t27 5.5q7 0 34 -1q122 -7 235 -7q122 0 243 7q20 1 25 1q18 0 27 -4.5t10 -13.5q0 -15 -41 -23q-5 -1 -8 -2
q-13 0 -29 -2.5t-37 -7.5q-46 -13 -65 -49.5t-19 -118.5v-350l371 258v-84l-371 -258v-418z" />
    <glyph glyph-name="lslash" unicode="&#x142;" horiz-adv-x="573" 
d="M381 176q0 -63 10 -83.5t39 -33.5q12 -6 26.5 -10t30.5 -6q26 -4 33.5 -10.5t7.5 -18.5q0 -8 -8 -13t-22 -5q-2 0 -71 6t-136 6q-68 0 -137 -6t-70 -6q-14 0 -22.5 5t-8.5 13q0 10 7 16t35 13q16 2 30 6t27 10q28 13 38.5 33.5t10.5 83.5v471l-201 -137v68l201 137v538
q0 56 -11 77t-38 32q-14 5 -49 13q-5 1 -6 1q-27 5 -35 9t-9 12q0 21 71 31q7 1 11 2q107 14 204 40q18 4 21 5q11 0 16 -8t5 -25v-608l192 133v-68l-192 -135v-588z" />
    <glyph glyph-name="OE" unicode="&#x152;" horiz-adv-x="2142" 
d="M1327 352q0 -202 57.5 -250.5t241.5 -48.5q150 0 226.5 29t117.5 98q22 37 35 89.5t31 52.5q12 0 16 -9.5t4 -52.5q0 -32 -4 -101t-4 -106q0 -42 -10.5 -49.5t-55.5 -7.5q-13 0 -73 2q-306 8 -606 8q-97 0 -257 -8t-225 -8q-329 0 -514.5 185t-185.5 513q0 306 197 501
t507 195q55 0 206 -11t247 -11q50 0 218.5 4t287.5 4h45q81 0 100 -9.5t19 -39.5q0 -4 -3 -40.5t-3 -70.5q0 -29 4 -64.5t4 -41.5q0 -18 -5.5 -25.5t-17.5 -7.5q-20 0 -28.5 54.5t-28.5 86.5q-37 60 -113 84.5t-262 24.5h-16q-112 0 -132 -16.5t-20 -94.5v-470
q142 7 203 31.5t96 80.5q21 34 32.5 95t29.5 61q11 0 16.5 -8.5t5.5 -26.5q0 -13 -5 -86t-5 -133q0 -83 6 -169.5t6 -90.5q0 -17 -6 -27t-16 -10q-14 0 -24 43.5t-24 72.5q-29 65 -92 92t-186 27h-37v-340zM1112 977q0 214 -62 290t-219 76q-221 0 -337.5 -163t-116.5 -473
q0 -323 111.5 -498.5t316.5 -175.5q101 0 172.5 34.5t99.5 96.5q19 40 27 99.5t8 193.5v520z" />
    <glyph glyph-name="oe" unicode="&#x153;" horiz-adv-x="1696" 
d="M266 455q0 -212 72 -325.5t205 -113.5q135 0 209.5 120.5t74.5 338.5q0 187 -76.5 298.5t-201.5 111.5q-129 0 -206 -116.5t-77 -313.5zM1008 621h432q0 4 1 15q3 37 3 48q0 92 -50 146.5t-134 54.5q-97 0 -165.5 -72t-86.5 -192zM913 143q-73 -82 -168.5 -127
t-197.5 -45q-202 0 -341.5 139.5t-139.5 340.5q0 199 139 337t342 138q105 0 196.5 -42t167.5 -124q75 85 161 125.5t190 40.5q160 0 263 -96t103 -238q0 -17 -7 -22t-42 -5h-582q-2 -17 -3 -35t-1 -49q0 -193 92 -312.5t236 -119.5q49 0 91.5 14t80.5 43q13 11 37 38.5
t41 27.5q8 0 13 -6.5t5 -18.5q0 -57 -100 -116.5t-229 -59.5q-118 0 -204 43t-143 129z" />
    <glyph glyph-name="Scedilla" unicode="&#x15e;" horiz-adv-x="1126" 
d="M111 373q0 27 4 33.5t18 7.5q23 0 35 -61q10 -49 20 -79q46 -124 138 -192t215 -68q140 0 219.5 74t79.5 205q0 49 -13.5 91t-40.5 77q-64 80 -302 178q-40 16 -60 25q-134 56 -206.5 153.5t-72.5 220.5q0 160 114.5 263.5t291.5 103.5q123 0 251 -70q37 -20 48 -20
q19 0 33.5 38t29.5 38q12 0 19.5 -12.5t7.5 -32.5q0 -9 -3 -54t-3 -82q0 -20 3 -62t3 -63q0 -36 -4.5 -46t-17.5 -11q-24 0 -38 52q-13 46 -26 75q-45 98 -120.5 149.5t-174.5 51.5q-117 0 -187.5 -64t-70.5 -168q0 -148 296 -279l17 -7q235 -105 325.5 -209.5t90.5 -257.5
q0 -177 -139 -293.5t-350 -116.5q-152 0 -306 88q-39 23 -49 23q-14 0 -30 -31t-29 -31q-11 0 -16 7t-5 22q0 1 5.5 52t5.5 102q0 40 -3 100.5t-3 79.5zM295 -371l35 78q60 -34 118.5 -53t104.5 -19q64 0 93.5 22.5t29.5 70.5q0 42 -30.5 66t-84.5 24q-13 0 -28.5 -1.5
t-32.5 -4.5v188h63v-112q16 2 31.5 3.5t29.5 2.5q87 0 135 -43.5t48 -120.5q0 -82 -58.5 -129t-160.5 -47q-55 0 -122 17t-171 58z" />
    <glyph glyph-name="scedilla" unicode="&#x15f;" horiz-adv-x="782" 
d="M102 262q0 9 5 16t12 7q13 0 24 -37.5t23 -61.5q42 -86 98 -127t131 -41t126.5 45t51.5 109q0 98 -194 203l-14 8q-140 73 -196 139.5t-56 153.5q0 111 72 180.5t188 69.5q47 0 101 -16.5t63 -16.5q26 0 50 14.5t27 14.5q7 0 12 -7t5 -16v-209q0 -10 -4.5 -16t-12.5 -6
q-15 0 -32 40q-9 23 -17 38q-36 69 -82 102t-106 33q-63 0 -102 -31.5t-39 -81.5q0 -48 28 -82.5t142 -99.5q21 -13 90 -49.5t104 -61.5q50 -36 75 -91.5t25 -129.5q0 -133 -81.5 -209t-225.5 -76q-79 0 -171 43q-27 13 -34 13q-13 0 -35.5 -18.5t-33.5 -18.5
q-8 0 -12.5 5.5t-4.5 12.5v256zM123 -371l35 78q60 -34 118.5 -53t104.5 -19q64 0 93.5 22.5t29.5 70.5q0 42 -30.5 66t-84.5 24q-13 0 -28.5 -1.5t-32.5 -4.5v188h63v-112q16 2 31.5 3.5t29.5 2.5q87 0 135 -43.5t48 -120.5q0 -82 -58.5 -129t-160.5 -47q-55 0 -122 17
t-171 58z" />
    <glyph glyph-name="Scaron" unicode="&#x160;" horiz-adv-x="1126" 
d="M111 373q0 27 4 33.5t18 7.5q23 0 35 -61q10 -49 20 -79q46 -124 138 -192t215 -68q140 0 219.5 74t79.5 205q0 49 -13.5 91t-40.5 77q-64 80 -302 178q-40 16 -60 25q-134 56 -206.5 153.5t-72.5 220.5q0 160 114.5 263.5t291.5 103.5q123 0 251 -70q37 -20 48 -20
q19 0 33.5 38t29.5 38q12 0 19.5 -12.5t7.5 -32.5q0 -9 -3 -54t-3 -82q0 -20 3 -62t3 -63q0 -36 -4.5 -46t-17.5 -11q-24 0 -38 52q-13 46 -26 75q-45 98 -120.5 149.5t-174.5 51.5q-117 0 -187.5 -64t-70.5 -168q0 -148 296 -279l17 -7q235 -105 325.5 -209.5t90.5 -257.5
q0 -177 -139 -293.5t-350 -116.5q-152 0 -306 88q-39 23 -49 23q-14 0 -30 -31t-29 -31q-11 0 -16 7t-5 22q0 1 5.5 52t5.5 102q0 40 -3 100.5t-3 79.5zM264 1863h59l232 -210l233 210h58l-232 -348h-117z" />
    <glyph glyph-name="scaron" unicode="&#x161;" horiz-adv-x="782" 
d="M102 262q0 9 5 16t12 7q13 0 24 -37.5t23 -61.5q42 -86 98 -127t131 -41t126.5 45t51.5 109q0 98 -194 203l-14 8q-140 73 -196 139.5t-56 153.5q0 111 72 180.5t188 69.5q47 0 101 -16.5t63 -16.5q26 0 50 14.5t27 14.5q7 0 12 -7t5 -16v-209q0 -10 -4.5 -16t-12.5 -6
q-15 0 -32 40q-9 23 -17 38q-36 69 -82 102t-106 33q-63 0 -102 -31.5t-39 -81.5q0 -48 28 -82.5t142 -99.5q21 -13 90 -49.5t104 -61.5q50 -36 75 -91.5t25 -129.5q0 -133 -81.5 -209t-225.5 -76q-79 0 -171 43q-27 13 -34 13q-13 0 -35.5 -18.5t-33.5 -18.5
q-8 0 -12.5 5.5t-4.5 12.5v256zM92 1384h59l232 -210l233 210h58l-232 -348h-117z" />
    <glyph glyph-name="Ydieresis" unicode="&#x178;" horiz-adv-x="1460" 
d="M829 229q0 -83 14.5 -115.5t50.5 -49.5q16 -8 34.5 -12.5t44.5 -6.5q1 0 5 -1q50 -7 50 -26q0 -10 -9.5 -16t-27.5 -6q-4 0 -24 1q-120 9 -244 9q-125 0 -244 -9q-20 -1 -24 -1q-19 0 -29 6t-10 16q0 20 50 26q3 1 5 1q26 2 45.5 6.5t33.5 11.5q38 18 52 50.5t14 115.5
v312l-354 641q-3 6 -9 16q-61 111 -118 121q-8 1 -26 4q-51 7 -52 29q0 12 11 17t34 5q11 0 19 -0.5t17 -1.5q4 0 14 -1q79 -5 141 -5q57 0 130.5 4t80.5 4q18 0 44.5 1t35.5 1q28 0 38.5 -5t10.5 -17q0 -19 -36 -20q-22 0 -36 -3q-42 -8 -64 -27.5t-22 -50.5
q0 -18 12 -53.5t33 -75.5l275 -530q39 66 110 183q234 382 234 462q0 35 -14 54.5t-44 25.5q-13 3 -36 7q-48 9 -48 26q0 10 10.5 15t30.5 5q13 0 22.5 -0.5t19.5 -1.5q31 -2 67.5 -3t75.5 -1q78 0 155 6h2q4 1 7.5 1.5t7.5 0.5q11 0 18.5 -4.5t7.5 -11.5q0 -13 -28 -24
q-5 -2 -7 -3q-38 -5 -69.5 -24t-59.5 -54q-16 -21 -152.5 -254.5t-275.5 -443.5v-326zM434 1669q0 40 29.5 70t68.5 30q40 0 70.5 -30t30.5 -70q0 -43 -29.5 -71.5t-71.5 -28.5q-41 0 -69.5 28.5t-28.5 71.5zM815 1669q0 40 30 70t70 30t69.5 -30t29.5 -70
q0 -43 -28.5 -71.5t-70.5 -28.5t-71 28.5t-29 71.5z" />
    <glyph glyph-name="Zcaron" unicode="&#x17d;" horiz-adv-x="1231" 
d="M133 0q-30 0 -39.5 3.5t-9.5 12.5q0 3 2.5 8.5t7.5 14.5l783 1276h-367q-126 0 -185 -25t-96 -88q-22 -37 -35.5 -97.5t-31.5 -60.5q-9 0 -14 12t-5 31q0 4 6.5 70t6.5 129v45q0 24 10.5 30.5t42.5 6.5h874q21 0 33 -5t12 -13q0 -7 -12 -25q-4 -7 -6 -10l-780 -1262h383
q144 0 222.5 33.5t121.5 112.5q25 46 41.5 112t31.5 66q11 0 16 -8t5 -25q0 -6 -9 -91.5t-9 -164.5v-37q0 -32 -10 -41.5t-50 -9.5h-940zM317 1863h59l232 -210l233 210h58l-232 -348h-117z" />
    <glyph glyph-name="zcaron" unicode="&#x17e;" horiz-adv-x="903" 
d="M293 45h98q199 0 262.5 12t85.5 43q19 25 35 76t35 51q10 0 15 -8.5t5 -25.5q0 -20 -6 -65.5t-6 -70.5v-18q0 -20 -6.5 -29.5t-19.5 -9.5h-699q-9 0 -13.5 3.5t-4.5 10.5q0 10 12 28q1 2 2 3l518 811h-217q-98 0 -138 -17t-63 -63q-8 -17 -16 -48q-11 -40 -29 -40
q-12 0 -17 6.5t-5 22.5q0 116 10.5 150t56.5 34h564q36 0 51.5 -2t15.5 -6q0 -7 -1.5 -12.5t-4.5 -10.5zM154 1384h59l232 -210l233 210h58l-232 -348h-117z" />
    <glyph glyph-name="florin" unicode="&#x192;" horiz-adv-x="1124" 
d="M461 733h-189l11 55h184q29 292 141 454.5t281 162.5q80 0 128 -34.5t48 -90.5q0 -32 -21 -53t-53 -21q-25 0 -48.5 14t-43.5 40q-7 9 -17 27q-28 50 -69 50q-68 0 -103 -92t-59 -358l-8 -99h221l-8 -55h-217q-38 -721 -145 -1000.5t-330 -279.5q-79 0 -126.5 36.5
t-47.5 94.5q0 34 23 57t59 23q24 0 43.5 -14t32.5 -42q2 -5 6 -16q28 -69 77 -69q170 0 214 896q10 201 16 314z" />
    <glyph glyph-name="circumflex" unicode="&#x2c6;" 
d="M213 1036l233 348h117l232 -348h-58l-233 209l-232 -209h-59z" />
    <glyph glyph-name="caron" unicode="&#x2c7;" 
d="M213 1384h59l232 -210l233 210h58l-232 -348h-117z" />
    <glyph glyph-name="breve" unicode="&#x2d8;" 
d="M211 1346h53q17 -74 74 -108t166 -34t166 33.5t73 108.5h52q-20 -134 -94 -202.5t-197 -68.5q-122 0 -197 69t-96 202z" />
    <glyph glyph-name="dotaccent" unicode="&#x2d9;" 
d="M412 1190q0 41 29.5 70.5t70.5 29.5t70.5 -29.5t29.5 -70.5q0 -42 -29.5 -71t-70.5 -29t-70.5 29t-29.5 71z" />
    <glyph glyph-name="ring" unicode="&#x2da;" 
d="M362 1257q0 -63 43.5 -106t106.5 -43t106.5 43t43.5 106q0 62 -44.5 106t-105.5 44q-62 0 -106 -43.5t-44 -106.5zM272 1257q0 102 69.5 171t170.5 69q102 0 172 -69.5t70 -170.5t-70.5 -171t-171.5 -70t-170.5 70t-69.5 171z" />
    <glyph glyph-name="ogonek" unicode="&#x2db;" 
d="M686 31q-91 -72 -136.5 -138t-45.5 -129q0 -54 27.5 -86t72.5 -32q40 0 69.5 18t49.5 55l31 -18q-36 -72 -91.5 -111t-121.5 -39q-70 0 -114 40.5t-44 103.5q0 88 62 170.5t190 165.5h51z" />
    <glyph glyph-name="tilde" unicode="&#x2dc;" 
d="M791 1333q-21 -103 -69 -154t-126 -51q-16 1 -33 3t-41 8l-106 26q-20 5 -30 6.5t-19 2.5q-40 0 -62.5 -21t-36.5 -72h-51q18 106 68.5 159.5t130.5 53.5q17 0 32.5 -2t30.5 -6l108 -28q23 -6 36 -8.5t20 -2.5q36 0 59 20.5t37 65.5h52z" />
    <glyph glyph-name="hungarumlaut" unicode="&#x2dd;" 
d="M594 1036l143 279q23 43 44.5 61.5t47.5 18.5q28 0 48 -19.5t20 -46.5q0 -16 -11 -36.5t-30 -41.5l-203 -215h-59zM319 1036l144 279q23 43 44.5 61.5t47.5 18.5q28 0 48 -19.5t20 -46.5q0 -16 -11 -36.5t-30 -41.5l-205 -215h-58z" />
    <glyph glyph-name="Omega" unicode="&#x3a9;" horiz-adv-x="1567" 
d="M1100 188v-26h313l66 203h61l-108 -365h-500q134 233 202 451t68 413q0 271 -107.5 416t-308.5 145t-309 -145t-108 -416q0 -195 68 -411t204 -453h-500l-110 365h61l68 -203h311v26q-165 203 -234 361.5t-69 327.5q0 272 174.5 446t443.5 174t443 -174.5t174 -445.5
q0 -169 -69 -327.5t-234 -361.5z" />
    <glyph glyph-name="pi" unicode="&#x3c0;" horiz-adv-x="1354" 
d="M1329 885l-35 -162h-329q-34 -179 -54 -452q-23 -314 -120 -314q-38 0 -58 24.5t-20 69.5q0 58 77 280.5t117 391.5h-375q-33 -177 -53 -448q-25 -318 -123 -318q-37 0 -57 25t-20 71q0 56 77.5 277t118.5 393h-133q-136 0 -180 -43.5t-72 -171.5h-59q37 207 117.5 292
t238.5 85h942z" />
    <glyph glyph-name="endash" unicode="&#x2013;" 
d="M0 399v115h1024v-115h-1024z" />
    <glyph glyph-name="emdash" unicode="&#x2014;" horiz-adv-x="2048" 
d="M0 399v115h2048v-115h-2048z" />
    <glyph glyph-name="quoteleft" unicode="&#x2018;" horiz-adv-x="508" 
d="M217 1188q19 10 33.5 15t25.5 5q44 0 70.5 -28t26.5 -74q0 -47 -30 -79t-75 -32q-65 0 -105 46.5t-40 121.5q0 100 60 190t159 136l23 -33q-72 -52 -114 -115t-42 -114q0 -10 2 -19.5t6 -19.5z" />
    <glyph glyph-name="quoteright" unicode="&#x2019;" horiz-adv-x="508" 
d="M274 1243q-19 -10 -33.5 -15t-25.5 -5q-43 0 -69.5 29t-26.5 75q0 47 29.5 78t74.5 31q65 0 105.5 -46t40.5 -120q0 -100 -60.5 -190t-158.5 -136l-23 31q71 52 113.5 116t42.5 115q0 9 -2 17.5t-7 19.5z" />
    <glyph glyph-name="quotesinglbase" unicode="&#x201a;" horiz-adv-x="508" 
d="M276 29q-19 -11 -33.5 -16t-25.5 -5q-43 0 -69.5 28.5t-26.5 74.5q0 47 29.5 78.5t74.5 31.5q65 0 105.5 -46.5t40.5 -121.5q0 -99 -60.5 -189t-158.5 -136l-25 32q72 53 115 116t43 114q0 10 -2 19.5t-7 19.5z" />
    <glyph glyph-name="quotedblleft" unicode="&#x201c;" horiz-adv-x="915" 
d="M598 1188q19 10 33.5 15t25.5 5q43 0 69 -28t26 -74q0 -47 -30 -79t-75 -32q-64 0 -103.5 46.5t-39.5 121.5q0 100 60 190t159 136l22 -33q-72 -53 -114.5 -116t-42.5 -113q0 -9 2.5 -18t7.5 -21zM193 1188q19 10 33.5 15t25.5 5q43 0 69.5 -28t26.5 -74q0 -47 -29.5 -79
t-74.5 -32q-65 0 -105.5 46.5t-40.5 121.5q0 100 60.5 190t158.5 136l25 -33q-72 -53 -115 -116t-43 -113q0 -10 2 -19.5t7 -19.5z" />
    <glyph glyph-name="quotedblright" unicode="&#x201d;" horiz-adv-x="915" 
d="M276 1243q-19 -10 -33.5 -15t-25.5 -5q-43 0 -69.5 29t-26.5 75q0 47 29.5 78t74.5 31q65 0 105.5 -46t40.5 -120q0 -100 -60.5 -190t-158.5 -136l-25 31q72 52 115 116t43 115q0 9 -2 18t-7 19zM680 1243q-19 -10 -33.5 -15t-25.5 -5q-43 0 -70 29t-27 75q0 47 29.5 78
t75.5 31q65 0 105 -46t40 -120q0 -100 -60 -190t-159 -136l-23 31q72 52 114 116t42 115q0 10 -2 18.5t-6 18.5z" />
    <glyph glyph-name="quotedblbase" unicode="&#x201e;" horiz-adv-x="915" 
d="M680 29q-19 -11 -33.5 -16t-25.5 -5q-44 0 -70.5 28.5t-26.5 74.5q0 47 30 78.5t75 31.5q65 0 105 -46.5t40 -121.5q0 -99 -60 -189t-159 -136l-23 32q72 53 114 116t42 114q0 10 -2 19.5t-6 19.5zM276 29q-19 -11 -33.5 -16t-25.5 -5q-43 0 -69.5 28.5t-26.5 74.5
q0 47 29.5 78.5t74.5 31.5q65 0 105.5 -46.5t40.5 -121.5q0 -99 -60.5 -189t-158.5 -136l-25 32q72 53 115 116t43 114q0 10 -2 19.5t-7 19.5z" />
    <glyph glyph-name="dagger" unicode="&#x2020;" 
d="M406 543q45 63 66.5 145t21.5 191l-1 30q-78 -1 -171.5 -35t-116.5 -34q-45 0 -73 23.5t-28 60.5q0 40 28.5 67t72.5 27q24 0 108 -34t154 -34h24q2 9 2.5 19t0.5 30q0 97 -37 197t-37 113q0 42 25.5 68t68.5 26q39 0 63.5 -26t24.5 -68q0 -31 -30 -98q-16 -36 -23 -56
q-8 -26 -12.5 -77t-4.5 -126h23q72 0 159 33t105 33q43 0 72 -26t29 -64q0 -41 -26 -64.5t-69 -23.5q-29 0 -114.5 34.5t-155.5 34.5h-25q0 -139 22 -227.5t69 -140.5q-41 -165 -60.5 -351.5t-19.5 -406.5q0 -17 1 -52t1 -53h-54q0 253 -20.5 465t-62.5 400z" />
    <glyph glyph-name="daggerdbl" unicode="&#x2021;" 
d="M406 543q45 63 66.5 145t21.5 191l-1 30q-78 -1 -171.5 -35t-116.5 -34q-45 0 -73 23.5t-28 60.5q0 40 28.5 67t72.5 27q24 0 108 -34t154 -34h24q2 9 2.5 19t0.5 30q0 97 -37 197t-37 113q0 42 25.5 68t68.5 26q39 0 63.5 -26t24.5 -68q0 -31 -30 -98q-16 -36 -23 -56
q-8 -26 -12.5 -77t-4.5 -126h23q72 0 159 33t105 33q43 0 72 -26t29 -64q0 -41 -26 -64.5t-69 -23.5q-29 0 -114.5 34.5t-155.5 34.5h-25q0 -139 22 -227.5t69 -140.5q-45 -64 -67 -147t-22 -185l1 -39q78 1 170.5 36.5t115.5 35.5q44 0 72.5 -24.5t28.5 -61.5
q0 -41 -28.5 -67t-72.5 -26q-24 0 -107.5 33t-152.5 33h-26q-2 -9 -2.5 -19t-0.5 -30q0 -97 37 -197t37 -112q0 -42 -25.5 -68.5t-68.5 -26.5q-39 0 -63.5 26.5t-24.5 68.5q0 30 29 96q17 38 24 57q8 26 12.5 78t4.5 127h-23q-72 0 -159 -33t-105 -33q-44 0 -72.5 25
t-28.5 64q0 40 26 64t69 24q29 0 114.5 -35t155.5 -35h25q0 136 -21.5 226.5t-66.5 146.5z" />
    <glyph glyph-name="bullet" unicode="&#x2022;" horiz-adv-x="1208" 
d="M307 762q0 123 87 209t210 86q122 0 208.5 -86.5t86.5 -208.5t-87.5 -209.5t-209.5 -87.5q-123 0 -209 87t-86 210z" />
    <glyph glyph-name="ellipsis" unicode="&#x2026;" horiz-adv-x="2048" 
d="M227 100q0 48 33.5 81.5t81.5 33.5q47 0 80.5 -33.5t33.5 -81.5t-33 -81t-81 -33q-49 0 -82 33t-33 81zM909 100q0 48 33.5 81.5t81.5 33.5q47 0 80.5 -33.5t33.5 -81.5t-33 -81t-81 -33q-49 0 -82 33t-33 81zM1593 100q0 48 33.5 81.5t81.5 33.5q47 0 80.5 -33.5
t33.5 -81.5t-33 -81t-81 -33q-49 0 -82 33t-33 81z" />
    <glyph glyph-name="perthousand" unicode="&#x2030;" horiz-adv-x="2413" 
d="M1999 -35q-139 0 -223 88t-84 234q0 197 130.5 340t307.5 143q108 0 166.5 -75t58.5 -214q0 -207 -109.5 -361.5t-246.5 -154.5zM1843 229q0 -104 42 -156.5t126 -52.5q122 0 213.5 138.5t91.5 333.5q0 105 -45 168t-119 63q-60 0 -113 -40.5t-100 -123.5
q-43 -79 -69.5 -169.5t-26.5 -160.5zM1063 229q0 -104 42 -156.5t126 -52.5q122 0 214.5 138.5t92.5 333.5q0 105 -45 168t-119 63q-61 0 -114.5 -41t-100.5 -123q-44 -79 -70 -169.5t-26 -160.5zM1221 -35q-139 0 -224.5 88.5t-85.5 233.5q0 197 131 340t308 143
q108 0 167.5 -75t59.5 -214q0 -207 -109.5 -361.5t-246.5 -154.5zM201 836q0 -78 46 -128.5t118 -50.5q120 0 212.5 138t92.5 325q0 104 -44.5 170t-113.5 66q-51 0 -100 -30t-84 -83q-62 -94 -94.5 -198.5t-32.5 -208.5zM393 -102h-88l813 1386q-53 -35 -114.5 -52.5
t-133.5 -17.5q-46 0 -90 10t-88 29q10 -36 15.5 -71.5t5.5 -69.5q0 -66 -17.5 -137t-48.5 -131q-59 -118 -137 -176t-178 -58q-124 0 -202.5 87.5t-78.5 226.5q0 96 37.5 187t106.5 161q62 63 139 98t155 35q49 0 87.5 -14.5t87.5 -53.5q49 -40 96.5 -56.5t107.5 -16.5
q116 0 216 56.5t153 152.5h76z" />
    <glyph glyph-name="guilsinglleft" unicode="&#x2039;" horiz-adv-x="569" 
d="M256 463q92 -110 149.5 -194t57.5 -107q0 -8 -2.5 -11t-9.5 -4q-10 0 -121 109.5t-228 206.5q119 96 229.5 205.5t119.5 109.5q6 0 9 -3t3 -11q0 -23 -57.5 -107.5t-149.5 -193.5z" />
    <glyph glyph-name="guilsinglright" unicode="&#x203a;" horiz-adv-x="569" 
d="M309 463q-93 112 -150 195.5t-57 105.5q0 8 3.5 11t11.5 3q9 0 119 -109t227 -206q-119 -97 -228.5 -206.5t-117.5 -109.5t-11.5 3.5t-3.5 11.5q0 22 57 105.5t150 195.5z" />
    <glyph glyph-name="franc" unicode="&#x20a3;" horiz-adv-x="2136" 
d="M537 229q0 -84 15.5 -116t55.5 -50q29 -13 88 -18h2h5q53 -7 53 -27q-1 -10 -11.5 -16t-27.5 -6q-5 0 -25 1q-131 9 -264 9q-124 0 -244 -9q-20 -1 -24 -1q-18 0 -27.5 6t-9.5 16q0 19 50 26q4 1 5 1q25 2 44 6.5t35 12.5q37 18 52 51.5t15 113.5v922q0 77 -15 110.5
t-53 51.5q-15 6 -34 10t-44 6q-2 0 -6 1q-49 7 -49 22q0 9 10.5 14.5t28.5 5.5q5 0 30 -1q139 -7 279 -7q284 0 563 7q48 1 58 1q38 0 55.5 -6.5t21.5 -22.5q2 -5 3 -13.5t2 -26.5v-36q1 -74 13 -148q3 -16 3 -19q0 -14 -5 -22.5t-14 -8.5q-18 0 -34 51.5t-41 85.5
q-43 60 -134 86.5t-257 26.5q-66 0 -104 -4t-46 -12q-11 -11 -15.5 -49t-4.5 -109v-432q141 4 198.5 21.5t91.5 58.5q35 40 49 108t31 68q12 0 17.5 -11.5t5.5 -35.5q0 -4 -1 -19q-3 -64 -3 -125q0 -98 4 -197.5t4 -101.5q0 -18 -6 -29.5t-15 -11.5q-16 0 -28 56t-37 90
q-35 45 -86.5 64.5t-147.5 19.5q-29 0 -45 -0.5t-30 -1.5v-437zM1647 715q42 92 119.5 144t172.5 52q70 0 113 -30t43 -78q0 -38 -19 -60t-51 -22q-24 0 -40 11t-27 34q-3 6 -8 17q-24 57 -84 57q-91 0 -149 -76.5t-58 -200.5v-387q0 -63 10 -83.5t39 -33.5q12 -6 26.5 -10
t30.5 -6q25 -4 33 -10.5t8 -18.5q0 -8 -8 -13t-22 -5q-2 0 -71 6t-136 6q-68 0 -137 -6t-70 -6q-14 0 -22.5 5t-8.5 13q0 10 7 16t34 13q17 2 31 6t26 10q29 13 39.5 33.5t10.5 83.5v471q0 78 -17 116.5t-57 53.5q-11 4 -24 6t-38 2q-29 0 -37 5.5t-8 17.5q0 9 16 16.5
t59 16.5q78 15 150 34l72 19q29 0 42 -130q5 -54 10 -89z" />
    <glyph glyph-name="trademark" unicode="&#x2122;" horiz-adv-x="1683" 
d="M788 1438h183l141 -400l148 400h174v-25l-30 -2q-22 -2 -34 -15.5t-12 -37.5v-373q0 -24 12 -37.5t34 -15.5l30 -2v-27h-236v27l31 2q21 2 33 16t12 37v395l-178 -479h-15l-174 479v-395q0 -23 12.5 -37t34.5 -16l31 -2v-27h-197v27l34 2q21 2 32.5 16t11.5 37v371
q0 23 -12.5 37t-34.5 16l-31 2v27zM256 1438h440l11 -178h-25q-8 79 -40.5 115t-96.5 36h-21v-426q0 -23 12 -37t33 -16l31 -2v-27h-248v27l31 2q21 1 33 15.5t12 37.5v426h-20q-64 0 -97 -36t-41 -115h-26z" />
    <glyph glyph-name="partialdiff" unicode="&#x2202;" horiz-adv-x="1044" 
d="M754 604q13 81 19.5 161.5t6.5 158.5q0 140 -39.5 216.5t-111.5 76.5q-53 0 -117 -63.5t-109 -63.5q-29 0 -51 21.5t-22 51.5q0 59 68 105.5t163 46.5q171 0 273 -152.5t102 -412.5q0 -335 -139 -555t-344 -220q-147 0 -241.5 106.5t-94.5 272.5q0 189 108.5 316
t266.5 127q99 0 162.5 -47t99.5 -146zM709 483q0 117 -45 180.5t-127 63.5q-113 0 -184.5 -127.5t-71.5 -333.5q0 -117 44 -178t128 -61q111 0 183.5 128t72.5 328z" />
    <glyph glyph-name="Delta" unicode="&#x2206;" horiz-adv-x="1208" 
d="M555 1212l-389 -1042h768zM596 1497h29l555 -1497h-1151z" />
    <glyph glyph-name="product" unicode="&#x220f;" horiz-adv-x="1595" 
d="M57 1473h1479v-70h-186v-1727h186v-69h-555v69h197v1727h-762v-1727h196v-69h-555v69h187v1727h-187v70z" />
    <glyph glyph-name="summation" unicode="&#x2211;" horiz-adv-x="1434" 
d="M12 1473h1135l98 -340h-74l-67 219q-8 27 -32 39t-73 12h-741l864 -850v-37l-858 -756h893q60 0 77.5 13t29.5 51l71 229h74l-135 -446h-1260v28l959 838l-961 950v50z" />
    <glyph glyph-name="minus" unicode="&#x2212;" horiz-adv-x="1706" 
d="M254 670h1198v-119h-1198v119z" />
    <glyph glyph-name="fraction" unicode="&#x2215;" horiz-adv-x="342" 
d="M-342 -33l940 1436h84l-938 -1436h-86z" />
    <glyph glyph-name="periodcentered" unicode="&#x2219;" horiz-adv-x="561" 
d="M166 723q0 48 33.5 81.5t81.5 33.5q47 0 79.5 -33.5t32.5 -81.5q0 -49 -32 -82t-80 -33q-49 0 -82 33t-33 82z" />
    <glyph glyph-name="radical" unicode="&#x221a;" horiz-adv-x="1288" 
d="M1106 1647h182v-82h-119l-594 -1606h-53l-323 893l-119 -43l-23 68l262 92l265 -729z" />
    <glyph glyph-name="infinity" unicode="&#x221e;" horiz-adv-x="1706" 
d="M905 559q51 -95 119 -141.5t156 -46.5q102 0 168.5 71t66.5 181q0 108 -61 179.5t-152 71.5q-85 0 -153.5 -72.5t-143.5 -242.5zM803 666q-51 95 -119 142.5t-154 47.5q-105 0 -171 -71t-66 -183q0 -108 61 -179t152 -71q85 0 152 69t145 245zM866 494
q-71 -138 -148 -201.5t-173 -63.5q-134 0 -226 109t-92 272q0 172 82.5 277.5t214.5 105.5q97 0 172 -63t144 -203q67 138 146 204t175 66q134 0 226 -108.5t92 -272.5q0 -171 -82 -277t-213 -106q-96 0 -169 60t-149 201z" />
    <glyph glyph-name="integral" unicode="&#x222b;" horiz-adv-x="1020" 
d="M301 -268q103 0 116 664q3 141 5 216q12 503 102 719.5t281 216.5q76 0 122 -39t46 -104q0 -48 -31 -77.5t-82 -29.5q-53 0 -85 35t-32 92q0 8 -6 15.5t-14 7.5q-105 0 -119 -634q-3 -157 -6 -245q-10 -308 -31.5 -461t-62.5 -247q-49 -114 -123 -173t-168 -59
q-73 0 -119.5 38t-46.5 97q0 53 31.5 84t83.5 31q47 0 79.5 -29t32.5 -67q0 -24 7.5 -37.5t19.5 -13.5z" />
    <glyph glyph-name="approxequal" unicode="&#x2248;" horiz-adv-x="1706" 
d="M1530 584v-131q-107 -75 -202 -110.5t-187 -35.5q-98 0 -288 69.5t-290 69.5q-82 0 -169.5 -35.5t-215.5 -123.5v131q108 74 203.5 110.5t183.5 36.5q111 0 301.5 -69.5t276.5 -69.5q85 0 173.5 35.5t213.5 122.5zM1530 934v-131q-104 -73 -200 -108.5t-187 -35.5
q-100 0 -290 69t-290 69q-83 0 -171.5 -36t-213.5 -122v131q106 73 202 109t185 36q111 0 300.5 -68.5t277.5 -68.5q87 0 175 35t212 121z" />
    <glyph glyph-name="notequal" unicode="&#x2260;" horiz-adv-x="1706" 
d="M1210 1180l88 -70l-196 -250h350v-115h-424l-211 -270h635v-115h-709l-251 -319l-89 70l197 249h-346v115h420l211 270h-631v115h704z" />
    <glyph glyph-name="lessequal" unicode="&#x2264;" horiz-adv-x="1706" 
d="M262 150h1182v-117h-1182v117zM1444 1192v-125l-977 -324l977 -323v-125l-1182 399v101z" />
    <glyph glyph-name="greaterequal" unicode="&#x2265;" horiz-adv-x="1706" 
d="M262 150h1182v-117h-1182v117zM262 1192l1182 -397v-101l-1182 -399v125l979 323l-979 324v125z" />
    <glyph glyph-name="lozenge" unicode="&#x25ca;" horiz-adv-x="1012" 
d="M506 1409l-385 -817l385 -825l385 825zM506 1653l500 -1061l-500 -1069l-500 1069z" />
    <glyph glyph-name="apple" unicode="&#xf000;" horiz-adv-x="1618" 
d="M836 1216q-1 6 -1.5 14t-0.5 23q0 124 95 229.5t236 131.5q1 -10 1.5 -23t0.5 -39q0 -131 -103.5 -234.5t-203.5 -103.5h-8q-3 0 -7.5 1t-8.5 1zM1505 403q-114 -247 -205 -342.5t-204 -95.5q-50 0 -131.5 33t-122.5 33q-45 0 -131 -33t-127 -33q-64 0 -128.5 44
t-129.5 132q-102 140 -157.5 295.5t-55.5 300.5q0 219 125 356.5t323 137.5q68 0 155 -34t124 -34q34 0 121.5 35t152.5 35q110 0 198 -40t161 -124q-102 -65 -151.5 -145.5t-49.5 -182.5q0 -113 60 -200t173 -138z" />
    <glyph glyph-name="fi" unicode="&#xf001;" horiz-adv-x="1233" 
d="M399 813v-637q0 -63 12 -83t48 -34q20 -6 59 -14q7 -1 10 -2q4 -1 9 -2q41 -8 41 -27q0 -8 -10 -13t-27 -5q-8 0 -81.5 6t-140.5 6q-74 0 -150.5 -6t-78.5 -6q-16 0 -25.5 5.5t-9.5 14.5q0 17 37 25q5 1 9 2q19 2 35 6t31 10q34 13 45 32.5t11 84.5v637h-121q-23 0 -33 6
t-10 19t10.5 20.5t28.5 7.5l125 1q-1 17 -1.5 36.5t-0.5 57.5q0 260 104.5 380.5t329.5 120.5q154 0 245 -41t91 -108q0 -34 -19 -50t-59 -16q-47 0 -69 61q-6 18 -11 28q-18 40 -62 60.5t-112 20.5q-139 0 -199.5 -75.5t-60.5 -254.5v-225h410q68 0 137.5 11.5t71.5 11.5
q16 0 21 -8t5 -35v-666q0 -63 10.5 -83.5t39.5 -33.5q12 -6 26 -10t31 -6q25 -4 33 -10.5t8 -18.5q0 -8 -9 -13t-24 -5q-1 0 -69 6t-136 6q-67 0 -136 -6t-70 -6q-15 0 -23 5t-8 13q0 10 7 16t34 13q17 2 31 6t26 10q29 14 39 35t10 82v553q0 51 -16 67.5t-62 16.5h-387z
" />
    <glyph glyph-name="fl" unicode="&#xf002;" horiz-adv-x="1233" 
d="M864 813h-465v-637q0 -63 11.5 -83t46.5 -34q14 -6 31 -10t36 -6q2 0 8 -2q39 -8 39 -25q0 -9 -10 -14.5t-26 -5.5q-7 0 -78.5 6t-137.5 6q-74 0 -150.5 -6t-78.5 -6q-16 0 -25.5 5.5t-9.5 14.5q0 17 37 25q5 1 9 2q19 2 35 6t31 10q34 13 45 32.5t11 84.5v637h-121
q-23 0 -33 6t-10 19t10.5 20.5t28.5 7.5h125v123q0 239 101.5 355t308.5 116q80 0 163 -26.5t93 -26.5q31 0 78 22.5t65 22.5q8 0 12.5 -8.5t4.5 -26.5q0 -4 -2.5 -30t-2.5 -46v-1165q0 -63 10.5 -83.5t39.5 -33.5q12 -6 26 -10t31 -6q25 -4 33 -10.5t8 -18.5q0 -8 -8.5 -13
t-22.5 -5q-1 0 -70 6t-137 6q-67 0 -136 -6t-70 -6q-15 0 -23 5t-8 13q0 10 7 16t34 13q17 2 31 6t26 10q29 13 39 33.5t10 83.5v637zM399 864h465v320q0 111 -57.5 170t-167.5 59q-123 0 -181.5 -79.5t-58.5 -246.5v-223z" />
    </font>
</defs>
</svg>
